<svg class="animated" id="freepik_stories-cupid" xmlns="http://www.w3.org/2000/svg" viewBox="0 0 500 500" version="1.1" xmlns:xlink="http://www.w3.org/1999/xlink" xmlns:svgjs="http://svgjs.com/svgjs"><style>svg#freepik_stories-cupid:not(.animated) .animable {opacity: 0;}svg#freepik_stories-cupid.animated #freepik--background-complete--inject-95 {animation: 1s 1 forwards cubic-bezier(.36,-0.01,.5,1.38) zoomOut;animation-delay: 0s;}svg#freepik_stories-cupid.animated #freepik--Character--inject-95 {animation: 1s 1 forwards cubic-bezier(.36,-0.01,.5,1.38) slideRight,1.5s Infinite  linear wind;animation-delay: 0s,1s;}svg#freepik_stories-cupid.animated #freepik--Hearts--inject-95 {animation: 1.6s 1 forwards linear lightSpeedLeft,1.5s Infinite  linear heartbeat;animation-delay: 0.0s,1.6s;}            @keyframes zoomOut {                0% {                    opacity: 0;                    transform: scale(1.5);                }                100% {                    opacity: 1;                    transform: scale(1);                }            }                    @keyframes slideRight {                0% {                    opacity: 0;                    transform: translateX(30px);                }                100% {                    opacity: 1;                    transform: translateX(0);                }            }                    @keyframes wind {                0% {                    transform: rotate( 0deg );                }                25% {                    transform: rotate( 1deg );                }                75% {                    transform: rotate( -1deg );                }            }                    @keyframes lightSpeedLeft {              from {                transform: translate3d(-50%, 0, 0) skewX(20deg);                opacity: 0;              }              60% {                transform: skewX(-10deg);                opacity: 1;              }              80% {                transform: skewX(2deg);              }              to {                opacity: 1;                transform: translate3d(0, 0, 0);              }            }                    @keyframes heartbeat {                0% {                    transform: scale(1);                }                10% {                    transform: scale(1.1);                }                30% {                    transform: scale(1);                }                40% {                    transform: scale(1);                }                50% {                    transform: scale(1.1);                }                60% {                    transform: scale(1);                }                100% {                    transform: scale(1);                }            }        </style><g id="freepik--background-complete--inject-95" class="animable" style="transform-origin: 245.034px 255.862px;"><path d="M84.17,325.84c-3.46-3.43-9.46-4.44-13.29-1.43a10.68,10.68,0,0,0-3.73,7.51,21.64,21.64,0,0,0-.1,3,20.92,20.92,0,0,0-2.74-1.17,10.71,10.71,0,0,0-8.39.21c-4.34,2.2-6,8.07-4.3,12.65s5.86,7.87,10.42,9.57a27.36,27.36,0,0,0,19.32.44c3.91-4,6.7-12.42,7.08-17.27S87.62,329.27,84.17,325.84Z" style="fill: rgb(245, 245, 245); transform-origin: 69.7354px 340.397px;" id="elddzuf1kipa" class="animable"></path><path d="M248.56,445.24c-.17-3.16-2.62-6.27-5.77-6.49a7,7,0,0,0-5.08,2,12.92,12.92,0,0,0-1.35,1.39,12.53,12.53,0,0,0-.81-1.76,6.92,6.92,0,0,0-4.13-3.56c-3-.84-6.38,1.28-7.59,4.21s-.62,6.34.84,9.15a17.76,17.76,0,0,0,9.11,8.66c3.62-.21,8.65-3.06,10.95-5.23S248.73,448.4,248.56,445.24Z" style="fill: rgb(245, 245, 245); transform-origin: 235.875px 447.737px;" id="el0yoxd7r15omf" class="animable"></path><path d="M318.15,46.94c-.17-3.16-2.61-6.27-5.77-6.49a6.93,6.93,0,0,0-5.08,2A11.85,11.85,0,0,0,306,43.83a11.76,11.76,0,0,0-.82-1.76A6.9,6.9,0,0,0,301,38.51c-3-.84-6.39,1.28-7.6,4.2s-.61,6.35.84,9.16a17.79,17.79,0,0,0,9.11,8.65c3.62-.21,8.65-3.05,10.95-5.22S318.32,50.1,318.15,46.94Z" style="fill: rgb(245, 245, 245); transform-origin: 305.457px 49.4223px;" id="el6wnwk7d1iw" class="animable"></path><path d="M456.34,123.94c-.46-2.62-2.82-5-5.47-4.82a5.83,5.83,0,0,0-4,2.18,10,10,0,0,0-1,1.29,10.44,10.44,0,0,0-.85-1.38,5.83,5.83,0,0,0-3.8-2.55c-2.63-.39-5.2,1.72-5.91,4.28a9.34,9.34,0,0,0,1.63,7.55,14.94,14.94,0,0,0,8.48,6.28c3-.54,6.9-3.42,8.6-5.47A9.32,9.32,0,0,0,456.34,123.94Z" style="fill: rgb(245, 245, 245); transform-origin: 445.753px 127.692px;" id="elsut821is3l" class="animable"></path><path d="M460.46,430.79c-.54-4.84-4.58-9.39-9.45-9.45a10.67,10.67,0,0,0-7.61,3.52,20.3,20.3,0,0,0-1.95,2.25,19.69,19.69,0,0,0-1.41-2.62,10.6,10.6,0,0,0-6.66-5.1c-4.76-1-9.69,2.54-11.29,7.15s-.37,9.8,2.12,14A27.42,27.42,0,0,0,439,453c5.55-.65,13-5.47,16.35-9S461,435.63,460.46,430.79Z" style="fill: rgb(245, 245, 245); transform-origin: 440.955px 436.11px;" id="el21y5vsb20yq" class="animable"></path><path d="M230.19,47.87c-3.45-3.43-9.45-4.44-13.28-1.43A10.7,10.7,0,0,0,213.18,54a20.15,20.15,0,0,0-.1,3,19.76,19.76,0,0,0-2.74-1.16A10.67,10.67,0,0,0,202,56c-4.34,2.21-5.95,8.07-4.3,12.65s5.86,7.87,10.42,9.57a27.3,27.3,0,0,0,19.32.44c3.91-4,6.7-12.42,7.08-17.27S233.65,51.3,230.19,47.87Z" style="fill: rgb(245, 245, 245); transform-origin: 215.825px 62.4342px;" id="elkoj2ka3lwk" class="animable"></path><path d="M22.34,114.78c-1-22.68,19.44-27.09,31.59-23.2A18.48,18.48,0,0,1,79.58,70.87c-3.87-5.65-2.09-14.16,3.34-18.35s13.56-4,19.26-.21,8.93,10.75,9,17.61c1.19-5.43,8-8.32,13.23-6.36s8.37,7.61,8.63,13.16-1.95,11-4.91,15.65c7.58-3.88,18-.87,22.26,6.48,2.35,4,2.48,10-1.46,12.41-1.84,1.13-4.1,1.2-6.25,1.24L22.34,114.78" style="fill: rgb(245, 245, 245); transform-origin: 87.175px 82.1012px;" id="eluf2mjxno1" class="animable"></path><path d="M399.43,202.14c-.53-11.95,10.23-14.27,16.64-12.22A9.73,9.73,0,0,1,429.58,179c-2-3-1.1-7.47,1.76-9.67a8.93,8.93,0,0,1,10.15-.11,11.29,11.29,0,0,1,4.72,9.27c.63-2.85,4.24-4.38,7-3.34s4.4,4,4.54,6.93a14.58,14.58,0,0,1-2.59,8.24,9.24,9.24,0,0,1,11.73,3.41c1.24,2.1,1.31,5.27-.77,6.55a6.46,6.46,0,0,1-3.29.65l-63.38,1.2" style="fill: rgb(245, 245, 245); transform-origin: 433.588px 184.916px;" id="elfebe38fysns" class="animable"></path><path d="M146,380.68c-.79-17.86,15.3-21.33,24.87-18.27a14.55,14.55,0,0,1,20.2-16.3c-3.05-4.46-1.65-11.16,2.63-14.45s10.67-3.16,15.16-.17a16.89,16.89,0,0,1,7.06,13.86c.94-4.27,6.33-6.55,10.42-5s6.59,6,6.79,10.36-1.54,8.62-3.86,12.32a13.79,13.79,0,0,1,17.53,5.1c1.84,3.14,1.94,7.87-1.16,9.78a9.66,9.66,0,0,1-4.92,1L146,380.68" style="fill: rgb(245, 245, 245); transform-origin: 197.033px 354.95px;" id="elm46kmu1xxj7" class="animable"></path><path d="M38.75,473.4c-1.12-25.52,21.87-30.48,35.55-26.11A20.79,20.79,0,0,1,103.16,424c-4.36-6.36-2.35-15.94,3.76-20.65s15.25-4.52,21.67-.23,10,12.09,10.09,19.8c1.34-6.1,9-9.36,14.89-7.14s9.42,8.56,9.71,14.8-2.2,12.32-5.52,17.61c8.53-4.37,20.19-1,25.05,7.29,2.63,4.48,2.78,11.25-1.65,14-2.07,1.26-4.62,1.35-7,1.39L38.75,473.4" style="fill: rgb(245, 245, 245); transform-origin: 111.687px 436.63px;" id="elc5oy496v7em" class="animable"></path></g><g id="freepik--Character--inject-95" class="animable" style="transform-origin: 259.085px 250.025px;"><path d="M308.06,239.5a30.84,30.84,0,0,1,35-6.68c9.72,4.66,17.37,14.64,28.13,15,12.76.47,21.68-12.64,33.73-16.87,9.22-3.24,19.32-1,29.06-.14s21-.56,26.67-8.5c-.91,10.8-13.83,16.14-24.66,16.44s-22.54-1.79-31.89,3.7c-5.65,3.32-9.62,9-15.35,12.21-12.07,6.7-24.57-1.21-36.58-8s-19.22-17.06-44.08-7.2" style="fill: #D9374B; transform-origin: 384.355px 239.756px;" id="elge98ce8zfbm" class="animable"></path><g id="elpcvioz8tg18"><g style="opacity: 0.6; transform-origin: 384.355px 239.756px;" class="animable" id="elviwv3qcobqq"><path d="M308.06,239.5a30.84,30.84,0,0,1,35-6.68c9.72,4.66,17.37,14.64,28.13,15,12.76.47,21.68-12.64,33.73-16.87,9.22-3.24,19.32-1,29.06-.14s21-.56,26.67-8.5c-.91,10.8-13.83,16.14-24.66,16.44s-22.54-1.79-31.89,3.7c-5.65,3.32-9.62,9-15.35,12.21-12.07,6.7-24.57-1.21-36.58-8s-19.22-17.06-44.08-7.2" style="fill: rgb(255, 255, 255); transform-origin: 384.355px 239.756px;" id="elfvearjixrmb" class="animable"></path></g></g><path d="M57.52,202c6.33,2.24,9.63,10.33,12.85,16.22s8.17,12.14,14.88,12c4.73-.09,9.22-3.5,13.85-2.5s7.11,5.72,10.24,9.21a23.9,23.9,0,0,0,25.42,6.28c9.7-3.59,15.88-13.1,20-22.6s6.83-19.75,12.94-28.09,16.95-14.46,26.74-11.13c5.66,1.93,10.58,6.79,16.54,6.3,4.3-.36,7.81-3.48,11.79-5.17,6.1-2.6,13.23-1.71,19.33.9s11.35,6.81,16.53,10.95c-5.46-5.69-11-11.46-17.88-15.35s-15.33-5.7-22.72-2.95c-2.45.91-4.82,2.3-7.42,2.3s-5.18-1.55-7.62-2.79a37.47,37.47,0,0,0-38.15,3.13c-14.46,10.57-19.25,29.88-30.59,43.74-4.38,5.35-11.35,10.2-17.76,7.63-5.37-2.15-8-8.72-13.47-10.67-6.53-2.34-13.82,3-20.51,1.17-5.14-1.43-8.14-6.57-11.17-11S63.5,199.92,57.52,202" style="fill: #D9374B; transform-origin: 158.075px 208.169px;" id="el2k7dcgh5wjx" class="animable"></path><g id="elyag7y0mr4y8"><g style="opacity: 0.6; transform-origin: 158.075px 208.169px;" class="animable" id="el4sy8d3gdtkt"><path d="M57.52,202c6.33,2.24,9.63,10.33,12.85,16.22s8.17,12.14,14.88,12c4.73-.09,9.22-3.5,13.85-2.5s7.11,5.72,10.24,9.21a23.9,23.9,0,0,0,25.42,6.28c9.7-3.59,15.88-13.1,20-22.6s6.83-19.75,12.94-28.09,16.95-14.46,26.74-11.13c5.66,1.93,10.58,6.79,16.54,6.3,4.3-.36,7.81-3.48,11.79-5.17,6.1-2.6,13.23-1.71,19.33.9s11.35,6.81,16.53,10.95c-5.46-5.69-11-11.46-17.88-15.35s-15.33-5.7-22.72-2.95c-2.45.91-4.82,2.3-7.42,2.3s-5.18-1.55-7.62-2.79a37.47,37.47,0,0,0-38.15,3.13c-14.46,10.57-19.25,29.88-30.59,43.74-4.38,5.35-11.35,10.2-17.76,7.63-5.37-2.15-8-8.72-13.47-10.67-6.53-2.34-13.82,3-20.51,1.17-5.14-1.43-8.14-6.57-11.17-11S63.5,199.92,57.52,202" style="fill: rgb(255, 255, 255); transform-origin: 158.075px 208.169px;" id="el18xro3am869" class="animable"></path></g></g><path d="M269.07,171.79s15.06-4.78,19.21-11,3.92-4.33,1.28-14.15-7.31-17.67,1.84-29.58,38.82-37.31,49.49-45.68c10.34-8.09,30.63-19.88,36.23-16.66s-11.24,19-11.24,19,6.22.14,3.17,10.41c0,0,3.14,9-5.85,20.12a23.94,23.94,0,0,1,1.12,10.12c-.72,5.79-2.51,7.47-5.84,13.54l-5.18,7.72s6.06,4.55-.19,13.5l-5,5.71s2.74.71-1.13,7.94-15.53,12.54-15.53,12.54,2.92,6.56-5.29,10.76c-1.94,1-9.25,3.27-9.25,3.27l11.27-1.89s2,4.57-10.22,9.3a133.71,133.71,0,0,1-24.74,6.66s8.27,5.05,4.7,5.28-10.28-3-10.28-3Z" style="fill: rgb(235, 235, 235); transform-origin: 323.665px 131.444px;" id="el9r0r1nhurvc" class="animable"></path><path d="M269.07,171.79l.33.58c.22.39.53,1,1,1.7l3.65,6.6,13.77,24.94-.06-.06c1.29.61,2.66,1.2,4.09,1.71a24,24,0,0,0,4.53,1.23,8.06,8.06,0,0,0,1.2.08c.38,0,.86,0,1.06-.21s-.09-.61-.34-.89a8.14,8.14,0,0,0-.89-.87,34.82,34.82,0,0,0-4.23-3l-.39-.24.46-.08a137.62,137.62,0,0,0,18.55-4.51,75,75,0,0,0,9.66-3.73,20.78,20.78,0,0,0,4.46-2.92,8.16,8.16,0,0,0,1.69-2.06,3.35,3.35,0,0,0,.42-2.48l.24.13L317,189.6l-.11-.43c1.74-.55,3.5-1.12,5.27-1.73a24,24,0,0,0,5.18-2.24c.4-.25.77-.55,1.16-.83s.7-.63,1.06-1a8.35,8.35,0,0,0,1.58-2.36,7.44,7.44,0,0,0,.15-5.62l-.09-.21.2-.1a52.8,52.8,0,0,0,6.06-3.41,38.3,38.3,0,0,0,5.62-4.36,19.25,19.25,0,0,0,4.28-5.77,17,17,0,0,0,1.3-3.41,5.57,5.57,0,0,0,.17-1.76,2.16,2.16,0,0,0-.22-.81,1.11,1.11,0,0,0-.51-.5l-.37-.13.24-.28c1.56-1.77,3.27-3.73,5-5.71v0a14.33,14.33,0,0,0,2.71-6.53,7.58,7.58,0,0,0-2.48-6.62l-.18-.15.13-.19c1.62-2.42,3.39-5.07,5.18-7.73l0,0c1-1.76,2-3.51,3.05-5.29a19.9,19.9,0,0,0,2.33-5.68,23,23,0,0,0-.67-12.47l0-.14.09-.12a33.16,33.16,0,0,0,4.29-6.93,23.4,23.4,0,0,0,1.85-6.41,16.38,16.38,0,0,0-.33-6.52l0-.09,0-.07a15.1,15.1,0,0,0,.73-6.14,4.88,4.88,0,0,0-1.14-2.7A3.9,3.9,0,0,0,365.88,74l-.59-.05.42-.4a92.73,92.73,0,0,0,7.19-7.67A42.65,42.65,0,0,0,376,61.73a11.8,11.8,0,0,0,2-4.6,2.05,2.05,0,0,0-.79-2,4.23,4.23,0,0,0-2.29-.65,16,16,0,0,0-4.91.82,58.21,58.21,0,0,0-9.21,3.83,130.9,130.9,0,0,0-16.57,10.11c-2.58,1.84-5,3.82-7.41,5.78s-4.75,3.92-7.06,5.87c-9.21,7.8-17.76,15.42-25.46,22.8-3.84,3.7-7.48,7.35-10.71,11.07a40.92,40.92,0,0,0-4.28,5.81,21.69,21.69,0,0,0-2.63,6.32,19.89,19.89,0,0,0-.36,6.5,36.92,36.92,0,0,0,1.27,6.09c.59,1.94,1.15,3.83,1.7,5.65s1,3.62,1.47,5.34c.24.86.46,1.71.65,2.56a6.51,6.51,0,0,1,.13,2.56,6.76,6.76,0,0,1-1.06,2.23c-.43.67-.88,1.31-1.31,1.93a16.71,16.71,0,0,1-2.79,3.39,27.22,27.22,0,0,1-3.19,2.36,59.72,59.72,0,0,1-10.33,5c-1.23.46-2.17.79-2.81,1s-1,.3-1,.3l.95-.34c.63-.23,1.56-.58,2.78-1.06a60.49,60.49,0,0,0,10.27-5.08,27.19,27.19,0,0,0,3.15-2.36,16.78,16.78,0,0,0,2.74-3.36c.42-.63.87-1.27,1.3-1.93a6.62,6.62,0,0,0,1-2.15c.28-1.6-.36-3.29-.79-5L289,145.19c-.55-1.83-1.13-3.71-1.72-5.65A36.31,36.31,0,0,1,286,133.4a19.79,19.79,0,0,1,.35-6.62,21.71,21.71,0,0,1,2.65-6.43,41.21,41.21,0,0,1,4.3-5.87c3.24-3.75,6.87-7.41,10.72-11.12,7.7-7.4,16.23-15,25.45-22.86,2.3-2,4.65-3.92,7.05-5.88s4.84-4,7.43-5.8a129.37,129.37,0,0,1,16.63-10.16,58.66,58.66,0,0,1,9.29-3.88,16.57,16.57,0,0,1,5.07-.83,4.73,4.73,0,0,1,2.57.74,2.32,2.32,0,0,1,.86,1.11,4.22,4.22,0,0,1,.14.69,4,4,0,0,1,0,.69,7.59,7.59,0,0,1-.78,2.54A18.33,18.33,0,0,1,376.42,62a42.5,42.5,0,0,1-3.13,4.21,92.17,92.17,0,0,1-7.23,7.72l-.17-.45a4.47,4.47,0,0,1,2.89,1.42,5.37,5.37,0,0,1,1.27,3,15.84,15.84,0,0,1-.75,6.37v-.16a16.71,16.71,0,0,1,.36,6.75,23.61,23.61,0,0,1-1.9,6.56,33,33,0,0,1-4.36,7l0-.25a23.48,23.48,0,0,1,.7,12.77,20.82,20.82,0,0,1-2.39,5.82c-1,1.79-2.09,3.53-3,5.28h0l-5.18,7.72-.06-.35a8.07,8.07,0,0,1,2.67,7.08,14.73,14.73,0,0,1-2.8,6.77h0l-5,5.71-.13-.4a1.9,1.9,0,0,1,1.1,1.73,6,6,0,0,1-.18,1.94,18.28,18.28,0,0,1-1.33,3.51,19.76,19.76,0,0,1-4.4,5.9,38.61,38.61,0,0,1-5.69,4.42,54.4,54.4,0,0,1-6.12,3.43l.12-.31a7.93,7.93,0,0,1-.15,6,8.81,8.81,0,0,1-1.68,2.49c-.37.33-.71.69-1.11,1s-.78.6-1.2.86l-1.27.72a14.09,14.09,0,0,1-1.33.58c-.89.35-1.79.67-2.67,1-1.78.62-3.54,1.19-5.28,1.74l-.11-.44,11.28-1.88.18,0,.05.16a3.74,3.74,0,0,1-.45,2.85,8.33,8.33,0,0,1-1.78,2.17,20.81,20.81,0,0,1-4.55,3,75.25,75.25,0,0,1-9.73,3.74,136.71,136.71,0,0,1-18.62,4.48l.06-.32a37.22,37.22,0,0,1,4.27,3,8.88,8.88,0,0,1,.92.92,2.41,2.41,0,0,1,.37.55.67.67,0,0,1,0,.76,1,1,0,0,1-.66.29,3.47,3.47,0,0,1-.64,0,7.32,7.32,0,0,1-1.24-.09,23.3,23.3,0,0,1-4.59-1.25c-1.45-.53-2.82-1.12-4.12-1.74l0,0,0,0-13.67-25.1c-1.56-2.89-2.76-5.1-3.58-6.6l-.91-1.69C269.16,172,269.07,171.79,269.07,171.79Z" style="fill: rgb(224, 224, 224); transform-origin: 323.787px 131.412px;" id="el3p8dm9vxz3c" class="animable"></path><path d="M323.88,91a7.15,7.15,0,0,0,2.22-1.16,20.19,20.19,0,0,0,2.21-2.05,12,12,0,0,1,3.17-2.6,7.07,7.07,0,0,1,2.35-.7,3.78,3.78,0,0,1,2.63.64,3.14,3.14,0,0,1,1.19,2.66,7.18,7.18,0,0,1-.89,3,72.89,72.89,0,0,1-8.08,11.67l-.39-.27a2.51,2.51,0,0,1,1.27-1.09,3.36,3.36,0,0,1,1.66-.16,4.2,4.2,0,0,1,2.84,1.73,5.44,5.44,0,0,1,.73,3.32,12.24,12.24,0,0,1-.78,3.37,43.77,43.77,0,0,1-7.15,12.42l-.38-.35.34-.33a12.84,12.84,0,0,1,4.14-2.93,5.13,5.13,0,0,1,4.9.56,3.44,3.44,0,0,1,1.29,2.17,6.28,6.28,0,0,1-.12,2.45,36.42,36.42,0,0,1-1.44,4.43,44.3,44.3,0,0,1-9,14.16l-.13-.35a3.42,3.42,0,0,1,1.43.7,5.6,5.6,0,0,1,1.07,1.05,2.64,2.64,0,0,1,.62,1.4,6.64,6.64,0,0,1-.16,1.42,10,10,0,0,1-2.68,4.47,43.82,43.82,0,0,1-6.4,5.43,50.88,50.88,0,0,0-4.16,3.36c-.46.42-.79.75-1,1s-.35.33-.35.33a1.69,1.69,0,0,1,.31-.37c.2-.24.53-.59,1-1a43.84,43.84,0,0,1,4.1-3.46,45.32,45.32,0,0,0,6.29-5.47,9.72,9.72,0,0,0,2.56-4.32,5.89,5.89,0,0,0,.14-1.33,2.24,2.24,0,0,0-.54-1.16,4.37,4.37,0,0,0-2.24-1.58l-.38-.09.26-.27a44,44,0,0,0,8.81-14,35.81,35.81,0,0,0,1.42-4.36,5.91,5.91,0,0,0,.11-2.25,3,3,0,0,0-1.1-1.86,4.66,4.66,0,0,0-4.41-.48,12.52,12.52,0,0,0-4,2.82l-.34.33-.38-.35a43.58,43.58,0,0,0,7.08-12.26,12.52,12.52,0,0,0,.76-3.23,5.07,5.07,0,0,0-.65-3,3.72,3.72,0,0,0-2.5-1.53,2.3,2.3,0,0,0-2.45,1l-.38-.26a73.43,73.43,0,0,0,8.09-11.54,6.75,6.75,0,0,0,.88-2.83,2.81,2.81,0,0,0-1-2.38,3.43,3.43,0,0,0-2.39-.6,6.65,6.65,0,0,0-2.26.64A11.59,11.59,0,0,0,328.46,88a18.64,18.64,0,0,1-2.28,2,6.19,6.19,0,0,1-1.67.88A2.9,2.9,0,0,1,323.88,91Z" style="fill: rgb(224, 224, 224); transform-origin: 326.243px 122.605px;" id="el2ni629ae26h" class="animable"></path><path d="M348.91,153.91s-.16.27-.52.67-.91,1-1.62,1.64a34.37,34.37,0,0,1-6.13,4.47,34,34,0,0,1-7,3c-.93.27-1.69.46-2.23.56a3,3,0,0,1-.84.11,29,29,0,0,1,3-1,43,43,0,0,0,6.82-3.1,42.45,42.45,0,0,0,6.15-4.3C348,154.7,348.85,153.86,348.91,153.91Z" style="fill: rgb(224, 224, 224); transform-origin: 339.74px 159.134px;" id="eldzvglz5iw54" class="animable"></path><path d="M353.84,134.85a3.87,3.87,0,0,1-.66.81l-1.9,2.11a83.49,83.49,0,0,1-6.59,6.68,28.19,28.19,0,0,1-4.23,3,22.32,22.32,0,0,1-3.88,1.72,18,18,0,0,1-2.77.68,4.41,4.41,0,0,1-1,.12c0-.11,1.45-.34,3.69-1.15a24,24,0,0,0,3.76-1.79,29.17,29.17,0,0,0,4.13-3c2.74-2.38,5-4.85,6.66-6.54.84-.85,1.53-1.53,2-2A4.37,4.37,0,0,1,353.84,134.85Z" style="fill: rgb(224, 224, 224); transform-origin: 343.325px 142.41px;" id="elpsavvpbf2m" class="animable"></path><path d="M363.51,103.76a6,6,0,0,1-.71,1.1c-.49.69-1.22,1.67-2.16,2.87-1.86,2.38-4.55,5.59-7.72,8.94s-6.25,6.21-8.53,8.19c-1.14,1-2.08,1.78-2.75,2.3a7,7,0,0,1-1.06.78,5.73,5.73,0,0,1,.93-.93l2.63-2.42c2.22-2,5.23-4.94,8.4-8.27s5.89-6.5,7.82-8.82l2.28-2.76A6.26,6.26,0,0,1,363.51,103.76Z" style="fill: rgb(224, 224, 224); transform-origin: 352.045px 115.85px;" id="el1uom1kn22g5" class="animable"></path><path d="M369.19,83.68a10.47,10.47,0,0,1-.88,1.36c-.29.43-.67.95-1.13,1.53s-1,1.26-1.58,2c-1.18,1.45-2.7,3.09-4.41,4.86s-3.73,3.62-5.88,5.49a115.55,115.55,0,0,1-11.65,8.8c-1.55,1-2.84,1.82-3.74,2.35a10.85,10.85,0,0,1-1.43.77,8.84,8.84,0,0,1,1.32-.94c.87-.58,2.12-1.42,3.65-2.49A141.28,141.28,0,0,0,355,98.49c2.14-1.86,4.12-3.7,5.88-5.43s3.26-3.34,4.47-4.76c.62-.69,1.16-1.34,1.63-1.91s.88-1.06,1.2-1.47A9.3,9.3,0,0,1,369.19,83.68Z" style="fill: rgb(224, 224, 224); transform-origin: 353.84px 97.26px;" id="elq0sry5sn2l" class="animable"></path><path d="M367.26,72.41a6,6,0,0,1-.85.9c-.57.55-1.4,1.34-2.45,2.29-2.09,1.92-5,4.53-8.37,7.26a107.39,107.39,0,0,1-8.91,6.62c-1.19.78-2.17,1.38-2.86,1.76a5.79,5.79,0,0,1-1.11.56,5.66,5.66,0,0,1,1-.73c.66-.43,1.61-1.08,2.76-1.89,2.32-1.63,5.44-4,8.79-6.72s6.31-5.29,8.46-7.13l2.56-2.18A5.74,5.74,0,0,1,367.26,72.41Z" style="fill: rgb(224, 224, 224); transform-origin: 354.985px 82.105px;" id="el2uojf1rc34l" class="animable"></path><path d="M301.49,114.4c.05,0-.54.72-1.42,2.07a27.61,27.61,0,0,0-3,6.11,28,28,0,0,0-1.56,9.92,25.64,25.64,0,0,0,.83,5.89c.5,2,1.31,4,2,6.09a24.41,24.41,0,0,1,1.51,6.33,16.09,16.09,0,0,1-.78,6,24.63,24.63,0,0,1-5.25,8.74,56.93,56.93,0,0,1-4.93,4.8l-1.42,1.21a4.1,4.1,0,0,1-.52.4s.14-.18.45-.48l1.35-1.28a67.42,67.42,0,0,0,4.79-4.89,24.84,24.84,0,0,0,5.07-8.64,15.68,15.68,0,0,0,.73-5.84,24.26,24.26,0,0,0-1.49-6.19c-.73-2.08-1.54-4.1-2.05-6.15a26,26,0,0,1-.81-6,28,28,0,0,1,1.69-10.06,26,26,0,0,1,3.19-6.09,14.51,14.51,0,0,1,1.15-1.48A3.47,3.47,0,0,1,301.49,114.4Z" style="fill: rgb(224, 224, 224); transform-origin: 294.221px 143.18px;" id="elpq8uxwnu5up" class="animable"></path><path d="M315.81,178.15a.86.86,0,0,1-.17.18,4,4,0,0,1-.55.44,10.23,10.23,0,0,1-2.38,1.26,25.22,25.22,0,0,1-9.46,1.47l0-.44,6.61.88,3.64.5,1.89.25a3.15,3.15,0,0,1,1.91.83,1.27,1.27,0,0,1,0,1.62,4.67,4.67,0,0,1-1.14.94c-.76.52-1.55,1-2.32,1.44a34.2,34.2,0,0,1-13.2,4.15,30.25,30.25,0,0,1-5.88,0c-.7,0-1.23-.15-1.59-.2a2,2,0,0,1-.55-.11s.77,0,2.15.11a33.46,33.46,0,0,0,5.83-.2,35.06,35.06,0,0,0,13-4.22c.76-.45,1.53-.91,2.28-1.43a4.2,4.2,0,0,0,1-.82.74.74,0,0,0,0-1,2.79,2.79,0,0,0-1.59-.65l-1.89-.26-3.63-.51-6.61-.94,0-.44a26.19,26.19,0,0,0,9.35-1.27A13.66,13.66,0,0,0,315.81,178.15Z" style="fill: rgb(224, 224, 224); transform-origin: 305.106px 184.982px;" id="elo143kg653j" class="animable"></path><path d="M315.21,160.48a2.77,2.77,0,0,1,.44-.33q.44-.32,1.29-.87a40.42,40.42,0,0,1,5-2.84,9.56,9.56,0,0,1,3.86-1.13,2.59,2.59,0,0,1,2.12.95,3,3,0,0,1,.4,2.43,12.06,12.06,0,0,1-6.77,7.76,11.79,11.79,0,0,1-2.89.87v-.5a9.28,9.28,0,0,1,2.43.72,3.47,3.47,0,0,1,1.75,1.81,2.44,2.44,0,0,1-.39,2.4,7,7,0,0,1-1.72,1.49,23.11,23.11,0,0,1-6.89,3.16,22.28,22.28,0,0,1-5,.78c-.59,0-1.05,0-1.36,0a1.74,1.74,0,0,1-.47,0s.65,0,1.82-.13a24.62,24.62,0,0,0,4.92-.92,23.67,23.67,0,0,0,6.72-3.21,6.63,6.63,0,0,0,1.59-1.39,1.93,1.93,0,0,0,.31-1.94,3,3,0,0,0-1.51-1.54,9.7,9.7,0,0,0-2.31-.67l-1.37-.27,1.38-.24a11.27,11.27,0,0,0,2.77-.84,11.65,11.65,0,0,0,6.51-7.38,2.56,2.56,0,0,0-.3-2.05,2.15,2.15,0,0,0-1.76-.8,9.5,9.5,0,0,0-3.7,1,49.84,49.84,0,0,0-5,2.68l-1.35.79A2,2,0,0,1,315.21,160.48Z" style="fill: rgb(224, 224, 224); transform-origin: 317.715px 166.252px;" id="elz58z13fe3qj" class="animable"></path><path d="M332.07,175.07a6.75,6.75,0,0,1-1.74.88,36.18,36.18,0,0,1-9.06,2.45,6.38,6.38,0,0,1-1.94.12c0-.16,2.9-.61,6.41-1.56S332,174.92,332.07,175.07Z" style="fill: rgb(224, 224, 224); transform-origin: 325.7px 176.801px;" id="elgsdublc4txv" class="animable"></path><path d="M330.89,222.6s-3.64,6.32-2.54,13,5.21,38.29,5.21,38.29l-37.17.77-39.78-61.52-2.74-16.21,57.2-10.18,18.19,21.38Z" style="fill: rgb(255, 214, 190); transform-origin: 293.715px 230.705px;" id="el47v0hk3c2wj" class="animable"></path><path d="M307,233.44a1.1,1.1,0,0,0-1.82.28,4.5,4.5,0,0,0-.51,2,2.88,2.88,0,0,0-1.1-1.6,1.28,1.28,0,0,0-1.93.22,1.63,1.63,0,0,0,.23,1.44c.93,1.71,3,2.94,4.46,4,.43-1.45.51-2.8.93-4.25A2.29,2.29,0,0,0,307,233.44Z" style="fill: rgb(255, 179, 148); transform-origin: 304.483px 236.427px;" id="eljni0ckozug" class="animable"></path><path d="M308.71,186.58s16.93-5.38,21.59-12.35,4.41-4.86,1.43-15.9-8.2-19.85,2.08-33.23,43.61-41.93,55.6-51.32c11.61-9.1,34.42-22.34,40.7-18.72s-12.62,21.36-12.62,21.36,7,.16,3.56,11.7c0,0,3.53,10.08-6.58,22.6a26.73,26.73,0,0,1,1.26,11.37c-.81,6.51-2.82,8.4-6.56,15.22L403.35,146s6.81,5.11-.21,15.17l-5.62,6.41s3.07.81-1.27,8.92-17.45,14.09-17.45,14.09,3.29,7.38-5.94,12.1c-2.18,1.11-10.39,3.67-10.39,3.67l12.66-2.12s2.2,5.13-11.48,10.44a150.2,150.2,0,0,1-27.8,7.49s9.29,5.67,5.27,5.93-11.54-3.43-11.54-3.43Z" style="fill: rgb(250, 250, 250); transform-origin: 370.049px 141.281px;" id="elow5i5uzctak" class="animable"></path><path d="M308.71,186.58l.37.65,1.07,1.91,4.1,7.41,15.46,28-.06-.07c1.45.69,3,1.35,4.6,1.93a27.14,27.14,0,0,0,5.1,1.38,9.94,9.94,0,0,0,1.34.09c.43,0,1,0,1.2-.24s-.1-.71-.38-1a9.17,9.17,0,0,0-1-1,40.57,40.57,0,0,0-4.76-3.37l-.39-.24.46-.08a154.15,154.15,0,0,0,20.84-5.07,83.46,83.46,0,0,0,10.87-4.19,23.18,23.18,0,0,0,5-3.29,9,9,0,0,0,1.9-2.31,3.78,3.78,0,0,0,.48-2.81l.23.12-12.66,2.13-.1-.43c2-.61,3.93-1.26,5.92-1.95,1-.34,2-.7,3-1.09.49-.19,1-.4,1.45-.63l1.39-.8c.45-.27.87-.62,1.31-.92s.79-.72,1.19-1.08a9.64,9.64,0,0,0,1.79-2.66,8.4,8.4,0,0,0,.16-6.33l-.08-.22.2-.09a63,63,0,0,0,6.81-3.83,43.48,43.48,0,0,0,6.31-4.91,21.51,21.51,0,0,0,4.82-6.49,19.75,19.75,0,0,0,1.46-3.83,6.21,6.21,0,0,0,.19-2,2.37,2.37,0,0,0-.25-.92,1.27,1.27,0,0,0-.59-.58l-.37-.12.24-.28L403,161v0a16.08,16.08,0,0,0,3.05-7.35,9,9,0,0,0-.47-4.07,8.08,8.08,0,0,0-2.32-3.39L403,146l.13-.19,5.82-8.68v0c1.08-2,2.27-3.94,3.41-5.94a22.16,22.16,0,0,0,2.63-6.4,25.73,25.73,0,0,0-.76-14l-.05-.14.09-.11a37.4,37.4,0,0,0,4.83-7.8,25.87,25.87,0,0,0,2.08-7.21,18.09,18.09,0,0,0-.38-7.34l0-.08,0-.08a17.15,17.15,0,0,0,.82-6.92,5.45,5.45,0,0,0-1.29-3,4.48,4.48,0,0,0-2.85-1.41l-.59,0,.42-.4a107.52,107.52,0,0,0,8.09-8.62,48.79,48.79,0,0,0,3.47-4.68,21.42,21.42,0,0,0,1.41-2.51,8.36,8.36,0,0,0,.83-2.67,2.37,2.37,0,0,0-.9-2.32,4.85,4.85,0,0,0-2.58-.73,18.12,18.12,0,0,0-5.54.92,65.82,65.82,0,0,0-10.35,4.31A147.59,147.59,0,0,0,393.12,71.3c-2.89,2.07-5.63,4.29-8.33,6.49s-5.33,4.41-7.92,6.6c-10.36,8.77-20,17.33-28.61,25.62-4.32,4.16-8.4,8.26-12,12.44a46,46,0,0,0-4.8,6.53,24.13,24.13,0,0,0-3,7.11,22.07,22.07,0,0,0-.4,7.31,39.8,39.8,0,0,0,1.43,6.85c.65,2.18,1.29,4.3,1.9,6.35s1.13,4.07,1.66,6c.27,1,.52,1.92.73,2.87a7.13,7.13,0,0,1,.14,2.87,7.39,7.39,0,0,1-1.18,2.5c-.49.75-1,1.47-1.48,2.17a18.68,18.68,0,0,1-3.12,3.8,30.69,30.69,0,0,1-3.59,2.66A66.58,66.58,0,0,1,313,185.1c-1.38.53-2.44.9-3.15,1.14s-1.09.34-1.09.34l1.07-.39c.71-.25,1.76-.64,3.13-1.18a68.31,68.31,0,0,0,11.54-5.7,29.48,29.48,0,0,0,3.54-2.66,18.13,18.13,0,0,0,3.08-3.77c.48-.71,1-1.42,1.47-2.17a7.44,7.44,0,0,0,1.13-2.42,6.88,6.88,0,0,0-.15-2.77c-.21-.94-.46-1.89-.73-2.85l-1.68-6-1.92-6.35a40.64,40.64,0,0,1-1.46-6.89,22.54,22.54,0,0,1,.39-7.43,24.8,24.8,0,0,1,3-7.22,47.71,47.71,0,0,1,4.83-6.59c3.64-4.21,7.73-8.32,12-12.48,8.66-8.32,18.25-16.89,28.6-25.69q3.89-3.28,7.93-6.61c2.69-2.2,5.43-4.43,8.34-6.51a147.24,147.24,0,0,1,18.68-11.42A67.19,67.19,0,0,1,422,55.14a18.73,18.73,0,0,1,5.69-.93,5.22,5.22,0,0,1,2.87.82,2.6,2.6,0,0,1,.95,1.24,5,5,0,0,1,.17.77c0,.25,0,.52,0,.77a9,9,0,0,1-.88,2.84,20.85,20.85,0,0,1-1.44,2.57,48.49,48.49,0,0,1-3.51,4.72,103.54,103.54,0,0,1-8.12,8.67l-.18-.44a4.93,4.93,0,0,1,3.23,1.57,6.12,6.12,0,0,1,1.42,3.32,17.7,17.7,0,0,1-.84,7.14V88a18.63,18.63,0,0,1,.41,7.58,26.36,26.36,0,0,1-2.13,7.35,38,38,0,0,1-4.89,7.92l0-.26a26.24,26.24,0,0,1,.77,14.33,22.77,22.77,0,0,1-2.68,6.54c-1.15,2-2.34,4-3.41,5.93h0c-2,3-4,6-5.82,8.67l-.06-.34a9,9,0,0,1,3,7.92,16.55,16.55,0,0,1-3.14,7.59h0l-5.62,6.42-.13-.41a2.12,2.12,0,0,1,1.21,1.93,6.48,6.48,0,0,1-.2,2.16,19.87,19.87,0,0,1-1.49,3.94,22.33,22.33,0,0,1-4.93,6.63,44.82,44.82,0,0,1-6.39,5,62.38,62.38,0,0,1-6.88,3.86l.12-.31a8.81,8.81,0,0,1-.17,6.71A9.65,9.65,0,0,1,377,200c-.41.37-.8.78-1.24,1.12s-.88.67-1.35,1l-1.42.82c-.49.24-1,.45-1.49.65-1,.39-2,.74-3,1.09-2,.69-4,1.33-5.93,1.95l-.1-.44L375.09,204l.19,0,.05.16a4.13,4.13,0,0,1-.51,3.18,9.53,9.53,0,0,1-2,2.42,22.81,22.81,0,0,1-5.11,3.34,83.07,83.07,0,0,1-10.93,4.2,154.75,154.75,0,0,1-20.91,5l.06-.32a40.23,40.23,0,0,1,4.8,3.42,9,9,0,0,1,1,1,2.78,2.78,0,0,1,.41.62.74.74,0,0,1,0,.83,1.14,1.14,0,0,1-.73.32,4.34,4.34,0,0,1-.72,0,9.19,9.19,0,0,1-1.39-.1,26.34,26.34,0,0,1-5.15-1.4c-1.63-.6-3.16-1.26-4.63-2l0,0,0,0L314.1,196.53l-4-7.42c-.45-.83-.79-1.46-1-1.9Z" style="fill: rgb(38, 50, 56); transform-origin: 370.195px 141.197px;" id="elc7obkjpn2hu" class="animable"></path><path d="M370.3,95.84a8.26,8.26,0,0,0,2.49-1.3,21,21,0,0,0,2.49-2.29,13.41,13.41,0,0,1,3.56-2.93,7.72,7.72,0,0,1,2.64-.77,4.19,4.19,0,0,1,2.93.71,3.54,3.54,0,0,1,1.34,3,8.22,8.22,0,0,1-1,3.36,81.33,81.33,0,0,1-9.08,13.09l-.38-.26a2.73,2.73,0,0,1,1.41-1.22,3.75,3.75,0,0,1,1.85-.17A4.59,4.59,0,0,1,381.7,109a6.07,6.07,0,0,1,.83,3.72,14.23,14.23,0,0,1-.88,3.78,48.86,48.86,0,0,1-8,13.94l-.38-.35.39-.37a14.44,14.44,0,0,1,4.63-3.29,5.73,5.73,0,0,1,5.48.63,3.85,3.85,0,0,1,1.44,2.42,6.94,6.94,0,0,1-.14,2.73,39.19,39.19,0,0,1-1.62,5,49.58,49.58,0,0,1-10.07,15.91l-.12-.36a3.89,3.89,0,0,1,1.59.78,6.39,6.39,0,0,1,1.2,1.18,3,3,0,0,1,.69,1.56,7.52,7.52,0,0,1-.17,1.59,11.43,11.43,0,0,1-3,5,49.39,49.39,0,0,1-7.19,6.11,53.27,53.27,0,0,0-4.67,3.78c-.51.46-.89.84-1.14,1.09a3.12,3.12,0,0,1-.39.37,16.46,16.46,0,0,1,1.44-1.56,51.73,51.73,0,0,1,4.61-3.88,50.08,50.08,0,0,0,7.08-6.14,11,11,0,0,0,2.89-4.86,6.88,6.88,0,0,0,.15-1.5,2.56,2.56,0,0,0-.61-1.32,6.2,6.2,0,0,0-1.13-1.1,3.67,3.67,0,0,0-1.4-.69l-.39-.07.26-.28A49.65,49.65,0,0,0,383,137a40.62,40.62,0,0,0,1.59-4.9,6.61,6.61,0,0,0,.13-2.54,3.37,3.37,0,0,0-1.26-2.11,5.21,5.21,0,0,0-5-.54A13.87,13.87,0,0,0,374,130l-.39.37-.38-.35a49,49,0,0,0,8-13.79,13.39,13.39,0,0,0,.85-3.63,5.68,5.68,0,0,0-.73-3.42,4.21,4.21,0,0,0-2.83-1.72,2.59,2.59,0,0,0-2.78,1.15l-.38-.27a82.54,82.54,0,0,0,9.09-13,7.88,7.88,0,0,0,1-3.19,3.21,3.21,0,0,0-1.18-2.69,3.92,3.92,0,0,0-2.7-.68,7.48,7.48,0,0,0-2.54.72,13.43,13.43,0,0,0-3.54,2.83,20.52,20.52,0,0,1-2.55,2.26,7.1,7.1,0,0,1-1.87,1A4.19,4.19,0,0,1,370.3,95.84Z" style="fill: rgb(38, 50, 56); transform-origin: 372.968px 131.367px;" id="elndfa6ojy7gp" class="animable"></path><path d="M398.42,166.49s-.19.29-.59.74-1,1.09-1.83,1.83a38.78,38.78,0,0,1-6.89,5,38.37,38.37,0,0,1-7.82,3.37c-1.05.31-1.9.53-2.5.64a3,3,0,0,1-.94.13c0-.08,1.28-.41,3.33-1.12a47.44,47.44,0,0,0,7.68-3.48,46.37,46.37,0,0,0,6.9-4.84C397.41,167.39,398.36,166.43,398.42,166.49Z" style="fill: rgb(38, 50, 56); transform-origin: 388.135px 172.344px;" id="elocyjjsqoxcq" class="animable"></path><path d="M404,145.07a5,5,0,0,1-.75.91l-2.15,2.35a92,92,0,0,1-7.4,7.5,30.83,30.83,0,0,1-4.75,3.39,23.63,23.63,0,0,1-4.35,1.94,21.08,21.08,0,0,1-3.11.78,5.81,5.81,0,0,1-1.16.14c0-.11,1.63-.37,4.15-1.27a26.22,26.22,0,0,0,4.23-2,33.27,33.27,0,0,0,4.65-3.37c3.08-2.68,5.57-5.46,7.47-7.36.95-1,1.72-1.73,2.28-2.24A5.26,5.26,0,0,1,404,145.07Z" style="fill: rgb(38, 50, 56); transform-origin: 392.165px 153.575px;" id="elyimhktuksug" class="animable"></path><path d="M414.83,110.14a8.44,8.44,0,0,1-.82,1.23c-.55.78-1.38,1.88-2.42,3.22-2.1,2.67-5.12,6.27-8.69,10s-7,7-9.58,9.21c-1.28,1.11-2.33,2-3.08,2.59a9.51,9.51,0,0,1-1.18.88,7,7,0,0,1,1.05-1l3-2.71c2.49-2.3,5.88-5.54,9.44-9.29s6.62-7.3,8.78-9.92l2.55-3.1A7.46,7.46,0,0,1,414.83,110.14Z" style="fill: rgb(38, 50, 56); transform-origin: 401.945px 123.705px;" id="elk0p9u5vufns" class="animable"></path><path d="M421.21,87.58A2,2,0,0,1,421,88l-.77,1.11c-.33.49-.75,1.06-1.27,1.72s-1.09,1.41-1.78,2.21c-1.32,1.63-3,3.46-5,5.45s-4.18,4.07-6.6,6.16a132.58,132.58,0,0,1-13.08,9.9c-1.75,1.16-3.19,2-4.2,2.64l-1.17.68c-.27.15-.42.22-.43.2a2.1,2.1,0,0,1,.37-.29l1.12-.76c1-.64,2.39-1.58,4.11-2.78a160.77,160.77,0,0,0,12.94-10c2.41-2.09,4.63-4.17,6.6-6.1s3.67-3.77,5-5.36c.7-.78,1.3-1.51,1.83-2.15s1-1.19,1.34-1.66l.84-1.06C421.08,87.69,421.19,87.57,421.21,87.58Z" style="fill: rgb(38, 50, 56); transform-origin: 403.955px 102.826px;" id="el4309d4amwjn" class="animable"></path><path d="M419,74.91a7,7,0,0,1-1,1c-.64.61-1.58,1.5-2.76,2.57-2.35,2.15-5.65,5.07-9.42,8.15s-7.33,5.69-10,7.44c-1.33.88-2.43,1.56-3.21,2a6.66,6.66,0,0,1-1.24.63,8.55,8.55,0,0,1,1.13-.8c.75-.49,1.81-1.21,3.11-2.12,2.61-1.83,6.12-4.47,9.88-7.54s7.09-5.95,9.5-8l2.87-2.46A7.23,7.23,0,0,1,419,74.91Z" style="fill: rgb(38, 50, 56); transform-origin: 405.185px 85.805px;" id="el6qe2nnnrex3" class="animable"></path><path d="M345.14,122.09a2.91,2.91,0,0,1-.41.61c-.28.39-.71,1-1.2,1.72a31.45,31.45,0,0,0-5.15,18,29.4,29.4,0,0,0,.93,6.62c.57,2.25,1.47,4.5,2.3,6.85a27.79,27.79,0,0,1,1.69,7.1,18,18,0,0,1-.87,6.75,27.9,27.9,0,0,1-5.89,9.82A66.26,66.26,0,0,1,331,185l-1.6,1.37a4.58,4.58,0,0,1-.58.45,3.76,3.76,0,0,1,.51-.53l1.53-1.44a73.71,73.71,0,0,0,5.39-5.49,27.82,27.82,0,0,0,5.71-9.71,17.6,17.6,0,0,0,.82-6.57,27.4,27.4,0,0,0-1.67-7c-.82-2.34-1.73-4.6-2.3-6.9a29.18,29.18,0,0,1-.92-6.73,31.48,31.48,0,0,1,1.89-11.3,29.67,29.67,0,0,1,3.58-6.85,17.94,17.94,0,0,1,1.28-1.66A4.77,4.77,0,0,1,345.14,122.09Z" style="fill: rgb(38, 50, 56); transform-origin: 336.98px 154.455px;" id="elh8hr8yzoimk" class="animable"></path><path d="M361.23,193.72a1.09,1.09,0,0,1-.19.2,6.47,6.47,0,0,1-.62.5,11.84,11.84,0,0,1-2.68,1.4,28.41,28.41,0,0,1-10.62,1.64l0-.44,7.43,1,4.09.55,2.11.29a3.51,3.51,0,0,1,2.13.92,1.38,1.38,0,0,1,0,1.78,5.24,5.24,0,0,1-1.26,1c-.86.59-1.74,1.12-2.61,1.63a39.14,39.14,0,0,1-5.27,2.43,38.31,38.31,0,0,1-9.55,2.23,33.88,33.88,0,0,1-6.61,0c-.78-.05-1.37-.16-1.78-.21a2.3,2.3,0,0,1-.61-.12s.86.05,2.41.13a37.9,37.9,0,0,0,6.55-.21,39.48,39.48,0,0,0,9.42-2.3,40.25,40.25,0,0,0,5.19-2.44c.85-.5,1.72-1,2.56-1.61a4.42,4.42,0,0,0,1.14-.92.85.85,0,0,0,0-1.13,3.1,3.1,0,0,0-1.81-.75l-2.11-.29-4.09-.57-7.42-1,0-.44a29.67,29.67,0,0,0,10.52-1.44A14.57,14.57,0,0,0,361.23,193.72Z" style="fill: rgb(38, 50, 56); transform-origin: 349.198px 201.366px;" id="elagj37j5y3cb" class="animable"></path><path d="M360.56,173.87a3.25,3.25,0,0,1,.49-.37l1.46-1a46.23,46.23,0,0,1,5.62-3.18,10.73,10.73,0,0,1,4.32-1.26,2.86,2.86,0,0,1,2.36,1.06,3.33,3.33,0,0,1,.45,2.7,13.51,13.51,0,0,1-7.6,8.7,13.67,13.67,0,0,1-3.24,1V181a11.11,11.11,0,0,1,2.73.81,3.85,3.85,0,0,1,1.95,2,2.69,2.69,0,0,1-.44,2.67,7.85,7.85,0,0,1-1.92,1.66,25.8,25.8,0,0,1-13.34,4.44c-.66,0-1.18,0-1.53,0a2.72,2.72,0,0,1-.53,0s.73,0,2-.14a27.8,27.8,0,0,0,5.53-1,26.23,26.23,0,0,0,7.56-3.6,7.32,7.32,0,0,0,1.8-1.57,2.19,2.19,0,0,0,.35-2.2,3.39,3.39,0,0,0-1.71-1.75,10.61,10.61,0,0,0-2.6-.75l-1.38-.28,1.39-.23a13.33,13.33,0,0,0,10.45-9.27,2.87,2.87,0,0,0-.35-2.33,2.42,2.42,0,0,0-2-.9,10.63,10.63,0,0,0-4.16,1.17,55,55,0,0,0-5.66,3l-1.51.89A2.32,2.32,0,0,1,360.56,173.87Z" style="fill: rgb(38, 50, 56); transform-origin: 363.355px 180.325px;" id="eluil5f3g7cfh" class="animable"></path><path d="M379.5,190.26a8.36,8.36,0,0,1-2,1,44.11,44.11,0,0,1-5,1.69,41.89,41.89,0,0,1-5.18,1.06,8.29,8.29,0,0,1-2.18.16c0-.16,3.27-.65,7.22-1.72S379.44,190.11,379.5,190.26Z" style="fill: rgb(38, 50, 56); transform-origin: 372.32px 192.216px;" id="elsys1bzyg8dn" class="animable"></path><path d="M326.93,129.8a11.23,11.23,0,0,0-9.48-9,10.35,10.35,0,0,0,3.75-9.45,7.69,7.69,0,0,0-9.61-5.74c5-6.9.39-13.42-4.43-15.44A13.69,13.69,0,0,0,292.63,93c-.16-5.69-5-10.53-10.5-12a19.75,19.75,0,0,0-14.81,1.37,10.81,10.81,0,0,0-4.86,4.36c-1,1.42-1.78,4.7-1,6.28-6.19-3.52-13.2-4.05-17.58-1.12s-6.27,4.37-8.48,9.67a28.45,28.45,0,0,0-1.69,8.26c-.12,4.65,2.12,8.11,4.42,12.14a21.21,21.21,0,0,0-7.85,16.76c0,6,7.3,12.19,12.78,14.56l47.67,6.14a14.19,14.19,0,0,0,28.17-2.53c5.11-3.09,6.18-11.17,2.06-15.49A11.22,11.22,0,0,0,326.93,129.8Z" style="fill: #D9374B; transform-origin: 278.663px 125.667px;" id="elcy9om5ro0f" class="animable"></path><path d="M241.56,129.63C242,118,254.17,106.05,265.77,107l37.73,6.12.05,6.25-.21,77.44h0s-2.54,25-23.64,24.19c-18.95-.76-18.45-20.78-18.46-20.79l.19-14.6s-15.3-.2-18.91-19.47C240.73,156.51,241.1,142.55,241.56,129.63Z" style="fill: rgb(255, 214, 190); transform-origin: 272.366px 163.983px;" id="elrttkuuehjmb" class="animable"></path><path d="M246.42,144.08a2.47,2.47,0,0,0,2.46,2.44,2.37,2.37,0,0,0,2.5-2.3,2.49,2.49,0,0,0-2.46-2.45A2.38,2.38,0,0,0,246.42,144.08Z" style="fill: rgb(38, 50, 56); transform-origin: 248.9px 144.145px;" id="elouixsb77vy8" class="animable"></path><path d="M245.24,138.46c.31.32,2.16-1.12,4.83-1.19s4.67,1.22,5,.88c.14-.15-.19-.72-1.07-1.32a6.77,6.77,0,0,0-4-1.11,6.58,6.58,0,0,0-3.83,1.36C245.34,137.73,245.08,138.32,245.24,138.46Z" style="fill: rgb(38, 50, 56); transform-origin: 250.148px 137.11px;" id="elhmfudvgr19n" class="animable"></path><path d="M271.43,145.06c.32.32,2.16-1.13,4.83-1.19s4.67,1.21,4.95.88c.14-.15-.19-.73-1.06-1.32a6.81,6.81,0,0,0-4-1.11,6.58,6.58,0,0,0-3.84,1.35C271.54,144.33,271.28,144.92,271.43,145.06Z" style="fill: rgb(38, 50, 56); transform-origin: 276.315px 143.71px;" id="elmlf6343jyco" class="animable"></path><path d="M262.32,157.64a20.53,20.53,0,0,0-4.36-.58c-.68,0-1.33-.14-1.46-.54s.09-1,.39-1.72c.6-1.41,1.21-2.89,1.87-4.44,2.57-6.32,4.42-11.52,4.12-11.61s-2.64,5-5.22,11.3l-1.78,4.46a2.91,2.91,0,0,0-.27,2.28,1.68,1.68,0,0,0,1.15.82,5.72,5.72,0,0,0,1.17.11A20.34,20.34,0,0,0,262.32,157.64Z" style="fill: rgb(38, 50, 56); transform-origin: 259.201px 148.276px;" id="elc6s1a8d6igv" class="animable"></path><path d="M261.43,185.57A48.16,48.16,0,0,0,287,178.06s-6.25,14-25.68,12.72Z" style="fill: rgb(255, 179, 148); transform-origin: 274.16px 184.461px;" id="elxwg5rqcoxc" class="animable"></path><path d="M269.53,156.82c-.44,0-.37,2.88-2.79,5s-5.52,1.89-5.53,2.3c0,.18.7.54,2,.54a7.22,7.22,0,0,0,4.63-1.75,6.31,6.31,0,0,0,2.15-4.2C270.07,157.51,269.72,156.8,269.53,156.82Z" style="fill: rgb(38, 50, 56); transform-origin: 265.606px 160.74px;" id="elxrba4k13wv" class="animable"></path><path d="M270.18,132.75c.38.93,3,.16,6.15.29s5.82,1,6.13.05c.14-.43-.41-1.28-1.53-2.09a8.78,8.78,0,0,0-4.73-1.56,7.85,7.85,0,0,0-4.63,1.3C270.5,131.48,270,132.31,270.18,132.75Z" style="fill: #D9374B; transform-origin: 276.313px 131.481px;" id="elohfiqzj1gig" class="animable"></path><path d="M245.08,132.76c.57.92,3,.1,5.9.19s5.3.85,5.9-.06c.27-.44-.07-1.35-1.1-2.25a7.75,7.75,0,0,0-9.51-.1C245.21,131.41,244.83,132.31,245.08,132.76Z" style="fill: #D9374B; transform-origin: 250.987px 131.146px;" id="el69qcujpkqc" class="animable"></path><path d="M302.43,141.94c.37-.16,14.75-4.23,14.16,10.4s-15.16,11-15.17,10.59S302.43,141.94,302.43,141.94Z" style="fill: rgb(255, 214, 190); transform-origin: 309.014px 152.462px;" id="el5hs48c33uyb" class="animable"></path><path d="M304.83,157.56c.06,0,.25.19.67.4a2.56,2.56,0,0,0,1.9.12c1.57-.51,3-2.91,3.15-5.54a8.44,8.44,0,0,0-.57-3.68,2.92,2.92,0,0,0-1.84-2,1.3,1.3,0,0,0-1.53.64c-.21.4-.13.69-.21.72s-.3-.26-.16-.86a1.6,1.6,0,0,1,.61-.89,1.9,1.9,0,0,1,1.43-.32,3.59,3.59,0,0,1,2.57,2.38,8.58,8.58,0,0,1,.71,4.11c-.21,2.94-1.83,5.64-4,6.17a2.72,2.72,0,0,1-2.31-.49C304.84,157.91,304.78,157.58,304.83,157.56Z" style="fill: rgb(255, 179, 148); transform-origin: 308.199px 152.504px;" id="elk5tlgibh3ea" class="animable"></path><path d="M266.86,175.07s-.47.13-.91-.46a1.35,1.35,0,0,1-.17-1.24,1.92,1.92,0,0,1,1.21-1.13,3.14,3.14,0,0,1,2,.08,2.71,2.71,0,0,1,1.78,1.46,2.65,2.65,0,0,1-.37,2.52,4,4,0,0,1-2.3,1.44,4.66,4.66,0,0,1-4.76-1.56,3.91,3.91,0,0,1-.51-4.07A3.55,3.55,0,0,1,265,170.3a1.7,1.7,0,0,1,1-.07c0,.05-.37,0-1,.26a3.47,3.47,0,0,0-1.87,1.77,3.61,3.61,0,0,0,.55,3.63,4.25,4.25,0,0,0,4.27,1.34,3.49,3.49,0,0,0,2-1.23,2.16,2.16,0,0,0,.33-2.05,2.35,2.35,0,0,0-1.47-1.23,2.9,2.9,0,0,0-1.75-.13,1.67,1.67,0,0,0-1.05.89,1.12,1.12,0,0,0,.07,1A1.3,1.3,0,0,0,266.86,175.07Z" style="fill: rgb(255, 179, 148); transform-origin: 266.707px 174.036px;" id="elzhmkeq8js09" class="animable"></path><path d="M245.26,99.8c-5.9,2-9,9.78-6,15.24s11.21,7.09,16.06,3.2a5.71,5.71,0,0,0,10.83.91c-.21,2.83,3.53,4.67,6.14,3.54s4-4,4.39-6.86a7.66,7.66,0,0,0,11.7,6.24c-2.9,2.92-4.42,7.47-2.89,11.29s6.64,6,10.11,3.84a6.12,6.12,0,0,0,2.22,11.3,6.09,6.09,0,0,0-2.51,11c-1.9-.8-1.6-3.8-.1-5.22s3.63-1.93,5.36-3.05a8.88,8.88,0,0,0,3.62-9.56,18.86,18.86,0,0,0,4.14-14.26c-.65-5.05-.65-16.8-4.79-19.77" style="fill: #D9374B; transform-origin: 273.284px 129.65px;" id="elzrv6tkf7ji" class="animable"></path><path d="M249.58,112.6a1.08,1.08,0,0,1,.42-.34,2,2,0,0,1,1.55,0,2.45,2.45,0,0,1,1.63,1.82,3.2,3.2,0,0,1-1.32,3,4,4,0,0,1-3.87.56,5.56,5.56,0,0,1-3.26-3.14,5.66,5.66,0,0,1,.51-5,7.41,7.41,0,0,1,4.2-3.34,10.69,10.69,0,0,1,7.58.71l-.35.24a7.71,7.71,0,0,1,3.32-6.63,7.15,7.15,0,0,1,5.81-1,7.49,7.49,0,0,1,3.42,1.88,5.56,5.56,0,0,1,.69.8,1.09,1.09,0,0,1,.18.31s-.31-.39-1-1a7.62,7.62,0,0,0-3.38-1.7,6.9,6.9,0,0,0-5.5,1.06,7.31,7.31,0,0,0-3.06,6.25l0,.41-.38-.17a10.32,10.32,0,0,0-7.21-.67,7,7,0,0,0-3.92,3.1,5.23,5.23,0,0,0-.51,4.52,5.13,5.13,0,0,0,3,2.91,3.65,3.65,0,0,0,3.51-.44,2.91,2.91,0,0,0,1.25-2.62,2.24,2.24,0,0,0-1.41-1.67,2,2,0,0,0-1.44-.07C249.73,112.48,249.6,112.62,249.58,112.6Z" style="fill: rgb(255, 255, 255); transform-origin: 257.23px 108.578px;" id="eliqjbp0u2gb" class="animable"></path><path d="M273.81,84.81c0,.1-.88.07-2.2.5a7.94,7.94,0,0,0-5.54,8.24c.1,1.38.46,2.19.37,2.23a4.57,4.57,0,0,1-.73-2.19,7.78,7.78,0,0,1,5.8-8.63A4.45,4.45,0,0,1,273.81,84.81Z" style="fill: rgb(255, 255, 255); transform-origin: 269.722px 90.252px;" id="elawabuxkq43e" class="animable"></path><path d="M300.27,122.55s-.13-.16-.43-.38a2.53,2.53,0,0,0-1.53-.45,2.77,2.77,0,0,0-2.17,1.1,2.94,2.94,0,0,0,.06,3.14,3.31,3.31,0,0,0,1.39,1.28,3.8,3.8,0,0,0,2.05.31,4.9,4.9,0,0,0,3.67-2.57,8.37,8.37,0,0,0-1.72-9.92,6.53,6.53,0,0,0-7.2-1l-.5.27.14-.56a4.71,4.71,0,0,0-.85-3.88,5.37,5.37,0,0,0-3.09-2.06,7.77,7.77,0,0,0-6.08,1.23,12.64,12.64,0,0,0-3,3c-.59.8-.86,1.27-.89,1.25s0-.13.16-.36a10.75,10.75,0,0,1,.59-1,11.9,11.9,0,0,1,3-3.13,8,8,0,0,1,6.36-1.38,5.76,5.76,0,0,1,3.37,2.19,5.19,5.19,0,0,1,.95,4.29l-.36-.28a7,7,0,0,1,7.78,1,8.84,8.84,0,0,1,1.8,10.55,5.33,5.33,0,0,1-4.05,2.76,4.2,4.2,0,0,1-2.26-.37,3.75,3.75,0,0,1-1.54-1.46,3.25,3.25,0,0,1,0-3.5,3,3,0,0,1,2.41-1.13,2.46,2.46,0,0,1,1.59.57A1.26,1.26,0,0,1,300.27,122.55Z" style="fill: rgb(255, 255, 255); transform-origin: 292.442px 117.625px;" id="elh7w4nj4wnmi" class="animable"></path><path d="M305.07,100.42a5.41,5.41,0,0,0-1.5-2.48,5.6,5.6,0,0,0-2.8-1.33A7.76,7.76,0,0,0,297,97c-2.6,1-4.74,2.56-5.58,4.16a6.32,6.32,0,0,0-.69,2.83,1.72,1.72,0,0,1-.15-.8,4.94,4.94,0,0,1,.52-2.2c.82-1.77,3-3.49,5.73-4.48a8,8,0,0,1,4.06-.42,5.74,5.74,0,0,1,3,1.55A4.26,4.26,0,0,1,305,99.6,1.62,1.62,0,0,1,305.07,100.42Z" style="fill: rgb(255, 255, 255); transform-origin: 297.836px 99.9921px;" id="el5h7h2t4luo5" class="animable"></path><path d="M247.54,98.32s.48-.24,1.18.24a1.82,1.82,0,0,1,.72,1.27,2.57,2.57,0,0,1-.54,1.85,3.6,3.6,0,0,1-4.66.71,4.73,4.73,0,0,1-1.68-5.55,7.22,7.22,0,0,1,4.23-4.18,6.51,6.51,0,0,1,4.86,0,5.62,5.62,0,0,1,2.56,2.07,3.56,3.56,0,0,1,.41.8c.07.19.1.29.08.3s-.19-.39-.66-1A5.72,5.72,0,0,0,251.52,93a6.27,6.27,0,0,0-4.56.12,6.82,6.82,0,0,0-3.91,3.9,4.26,4.26,0,0,0,1.45,5,3.2,3.2,0,0,0,4.11-.53,2.26,2.26,0,0,0,.54-1.59,1.64,1.64,0,0,0-.56-1.14A1.85,1.85,0,0,0,247.54,98.32Z" style="fill: rgb(255, 255, 255); transform-origin: 248.476px 97.5671px;" id="el6t49dqhrfdh" class="animable"></path><path d="M319.85,135a8.78,8.78,0,0,0-1.31-.52,3.23,3.23,0,0,0-1.61,0,2.61,2.61,0,0,0-1.6,1.26,2.09,2.09,0,0,0,.12,2.33,2.87,2.87,0,0,0,2.54,1,6.41,6.41,0,0,0,4.95-4.22,6.91,6.91,0,0,0-5.64-9.25,7.61,7.61,0,0,0-3.75.55c-.84.37-1.25.69-1.28.65s.09-.1.28-.26a6.54,6.54,0,0,1,.91-.57,7.39,7.39,0,0,1,3.88-.73,7.06,7.06,0,0,1,5.07,2.83,7.41,7.41,0,0,1,1.4,3.22,7,7,0,0,1-.38,3.75,6.81,6.81,0,0,1-5.4,4.5,3.28,3.28,0,0,1-2.93-1.27,2.48,2.48,0,0,1-.09-2.76,2.87,2.87,0,0,1,1.85-1.36,3.36,3.36,0,0,1,1.73.08,3.49,3.49,0,0,1,1,.47A1,1,0,0,1,319.85,135Z" style="fill: rgb(255, 255, 255); transform-origin: 318.089px 132.385px;" id="eln8lufkgsb5t" class="animable"></path><path d="M234.3,145.11a2.86,2.86,0,0,1-.55-.68,11.92,11.92,0,0,1-1.11-2.09,13.26,13.26,0,0,1,3-14.55,11.49,11.49,0,0,1,1.85-1.49,2.91,2.91,0,0,1,.77-.4c.06.08-1,.71-2.36,2.14A13.68,13.68,0,0,0,233,142.2C233.65,144.05,234.38,145.05,234.3,145.11Z" style="fill: rgb(255, 255, 255); transform-origin: 234.95px 135.505px;" id="elw0ahtvol1ur" class="animable"></path><path d="M282.93,150a19.72,19.72,0,0,0-2.06-1.48,8.49,8.49,0,0,0-5.84-.88,8.4,8.4,0,0,0-4.87,3.34,21.18,21.18,0,0,0-1.21,2.22s0-.25.11-.69a7.12,7.12,0,0,1,.8-1.74,8,8,0,0,1,11.19-2.56,7.08,7.08,0,0,1,1.48,1.21C282.83,149.79,283,150,282.93,150Z" style="fill: rgb(255, 179, 148); transform-origin: 275.948px 150.061px;" id="el9cjycrjv31g" class="animable"></path><path d="M130.7,177.39s4.25,4.29,7.52,5.64l11.6,10-7.54,17.48-21.07-1.92s-4.91,0-3.5-5.53c0,0-6.08-1-5.94-4.65s1-4.73,1-4.73a3.25,3.25,0,0,1-1.18-4.37c1.25-2.95,2.57-2.06,2.57-2.06s-2.6-2-1.05-4.59c2.18-3.58,4.49-2.56,4.49-2.56L129,183.72Z" style="fill: rgb(255, 214, 190); transform-origin: 130.501px 193.95px;" id="elb73ielfd3b" class="animable"></path><path d="M133.56,180.32l-4.89-6.08a1.92,1.92,0,0,0-.66-.61c-.85-.4-1.75.54-2,1.43-.81,2.54.42,5.24,1.75,7.54s2.81,4.77,2.53,7.42Z" style="fill: rgb(255, 214, 190); transform-origin: 129.655px 181.778px;" id="el7reknra53aw" class="animable"></path><path d="M140.79,210.14s36.87,19.37,49.16,21.5,51.23,6,51.23,6L230.1,202.29c.14-.53-39.34,1.7-40.9,1.33s-39.88-10.71-39.88-10.71l-4.27,7.4Z" style="fill: rgb(255, 214, 190); transform-origin: 190.985px 215.275px;" id="el15lb30vbx42" class="animable"></path><path d="M188.43,226.23a8.54,8.54,0,0,1-.76-2.19,41.07,41.07,0,0,1-1.09-5.49,42.71,42.71,0,0,1-.36-5.58,8.81,8.81,0,0,1,.18-2.31c.16,0,.13,3.53.7,7.82S188.58,226.19,188.43,226.23Z" style="fill: rgb(255, 179, 148); transform-origin: 187.327px 218.445px;" id="eld2pax1jzwrh" class="animable"></path><path d="M270.5,346.52c.29,1.07,9.76,49.24,16.54,64.4,6.68,14.91,11.73,22.21,24.76,23.47,13.88,1.34,52.25-2.78,52.25-2.78l.11-25.78-38.06-6.24L319,347.31Z" style="fill: rgb(255, 214, 190); transform-origin: 317.33px 390.589px;" id="elqcwz1lvhyr" class="animable"></path><path d="M327.2,410.4a23.17,23.17,0,0,1-1.28-6,22.86,22.86,0,0,1-.14-6.17c.15,0,.26,2.75.66,6.11S327.35,410.36,327.2,410.4Z" style="fill: rgb(255, 179, 148); transform-origin: 326.431px 404.315px;" id="el6pi7kltfab3" class="animable"></path><path d="M362.91,405.67l7.76.56a6.34,6.34,0,0,1,5.89,6.44c-.21,11.49-.85,32.89-1.68,33.31-3.27,1.65-10.83-14.37-10.83-14.37Z" style="fill: rgb(255, 214, 190); transform-origin: 369.736px 425.885px;" id="el8valnm9hudy" class="animable"></path><path d="M347.93,432.74a6,6,0,0,1,.19-1.17c.17-.85.39-1.9.64-3.15.54-2.66,1.2-6.35,1.91-10.44s1.43-7.78,2.06-10.42c.32-1.33.59-2.39.81-3.12a6.2,6.2,0,0,1,.38-1.12,4.85,4.85,0,0,1-.18,1.17c-.18.85-.39,1.9-.65,3.15-.54,2.66-1.19,6.35-1.91,10.43s-1.42,7.78-2.06,10.43c-.31,1.32-.59,2.39-.8,3.12A4.94,4.94,0,0,1,347.93,432.74Z" style="fill: rgb(38, 50, 56); transform-origin: 350.925px 418.03px;" id="elw60upg165u" class="animable"></path><path d="M359.37,431.5a4.24,4.24,0,0,1-.13-1.08c0-.81-.1-1.78-.16-2.93-.14-2.48-.35-5.9-.72-9.66s-.81-7.16-1.15-9.62c-.16-1.14-.29-2.11-.41-2.91a3.83,3.83,0,0,1-.08-1.08,4.91,4.91,0,0,1,.28,1c.16.67.35,1.66.57,2.88.44,2.45.94,5.85,1.31,9.63s.52,7.21.57,9.69c0,1.25,0,2.25,0,2.95A5,5,0,0,1,359.37,431.5Z" style="fill: rgb(38, 50, 56); transform-origin: 358.083px 417.86px;" id="elbeobsz0vnua" class="animable"></path><path d="M364.05,431.61c-.07,0,.33-1.39.9-3.62s1.25-5.33,1.78-8.79a80.18,80.18,0,0,0,.82-8.93c.08-2.29,0-3.72.11-3.72a3.32,3.32,0,0,1,.15,1c.06.65.1,1.58.11,2.74a59.75,59.75,0,0,1-.68,9,67.39,67.39,0,0,1-1.94,8.82c-.33,1.1-.62,2-.85,2.6A3.36,3.36,0,0,1,364.05,431.61Z" style="fill: rgb(38, 50, 56); transform-origin: 365.981px 419.08px;" id="el84kqdjkodv5" class="animable"></path><path d="M375.06,445.55a6.77,6.77,0,0,1,0-1.33c.06-1,.13-2.16.22-3.61.2-3,.45-7.25.62-11.9s.25-8.86.32-11.91c0-1.45.08-2.66.1-3.62a6.4,6.4,0,0,1,.11-1.32,6.08,6.08,0,0,1,.1,1.32c0,.86.05,2.09.06,3.62,0,3.05,0,7.27-.17,11.93s-.48,8.87-.77,11.91c-.14,1.52-.28,2.75-.39,3.6A6.33,6.33,0,0,1,375.06,445.55Z" style="fill: rgb(38, 50, 56); transform-origin: 375.809px 428.705px;" id="elze3rb5i368" class="animable"></path><path d="M365.76,436.1a23.69,23.69,0,0,1,4.8-3.82,22.81,22.81,0,0,1,5.41-2.9c.07.13-2.31,1.48-5.12,3.33S365.86,436.22,365.76,436.1Z" style="fill: rgb(38, 50, 56); transform-origin: 370.866px 432.743px;" id="elieesijy4dj" class="animable"></path><path d="M376.79,422.79a8,8,0,0,1-1.6-1.47,52.11,52.11,0,0,1-6.41-8.31,8.74,8.74,0,0,1-1-1.93c.14-.08,1.93,2.7,4.43,5.93S376.9,422.68,376.79,422.79Z" style="fill: rgb(38, 50, 56); transform-origin: 372.287px 416.934px;" id="elkltb456y9lr" class="animable"></path><path d="M350.68,415.33a2.19,2.19,0,0,1-.79-.21,13.39,13.39,0,0,1-2-.91,17.24,17.24,0,0,1-2.7-1.87,17.41,17.41,0,0,1-1.4-1.34c-.23-.25-.45-.5-.68-.79a1.69,1.69,0,0,1-.29-.53.78.78,0,0,1,.11-.74.76.76,0,0,1,.69-.27,1.77,1.77,0,0,1,.59.17c.32.16.62.32.91.49a18.23,18.23,0,0,1,1.62,1.08,15.89,15.89,0,0,1,2.38,2.26,13.1,13.1,0,0,1,1.3,1.79c.27.44.38.71.35.73s-.67-.94-1.92-2.27a17.48,17.48,0,0,0-2.4-2.12,18.72,18.72,0,0,0-1.58-1c-.29-.16-.59-.32-.88-.46s-.59-.17-.65-.05,0,.41.18.64.43.51.65.75A16.76,16.76,0,0,0,345.5,412a18.4,18.4,0,0,0,2.57,1.91C349.63,414.85,350.71,415.24,350.68,415.33Z" style="fill: rgb(38, 50, 56); transform-origin: 346.773px 411.996px;" id="el3yfvtiw5df8" class="animable"></path><path d="M350.71,415.1a3.33,3.33,0,0,1-.64.6c-.43.36-1.07.87-1.89,1.46a19.91,19.91,0,0,1-3.07,1.82,13.27,13.27,0,0,1-2,.74,4.06,4.06,0,0,1-1.15.21,1.24,1.24,0,0,1-1.19-.64A1.31,1.31,0,0,1,341,418a4.33,4.33,0,0,1,.92-.74,13.18,13.18,0,0,1,1.87-1,12.51,12.51,0,0,1,3.44-1,10.92,10.92,0,0,1,2.4-.09,2.42,2.42,0,0,1,.87.14c0,.1-1.25,0-3.21.31a14.36,14.36,0,0,0-3.31,1.05,13.39,13.39,0,0,0-1.78,1,3.16,3.16,0,0,0-.79.64.8.8,0,0,0-.18.79.74.74,0,0,0,.72.33,3.78,3.78,0,0,0,1-.18,12.43,12.43,0,0,0,1.92-.69,22.22,22.22,0,0,0,3.06-1.69A27.71,27.71,0,0,1,350.71,415.1Z" style="fill: rgb(38, 50, 56); transform-origin: 345.701px 417.517px;" id="el0ictcaqn9mhr" class="animable"></path><path d="M315.47,429.39s-.08.11-.26.29a6.46,6.46,0,0,1-.88.67,7.55,7.55,0,0,1-3.9,1.15,7.63,7.63,0,0,1-5.53-2.31,7,7,0,0,1-1.77-7,5.13,5.13,0,0,1,6.11-3.41,4.12,4.12,0,0,1,2.82,5,3.7,3.7,0,0,1-3.16,2.41,2.92,2.92,0,0,1-1.12-.16,1.36,1.36,0,0,1-.34-.18,4.3,4.3,0,0,0,1.44.14,3.61,3.61,0,0,0,1.54-.61,3.34,3.34,0,0,0,1.29-1.72,3.25,3.25,0,0,0-.33-2.53,4,4,0,0,0-2.28-1.86,4.67,4.67,0,0,0-5.48,3.12,6.19,6.19,0,0,0-.06,3.59,6.86,6.86,0,0,0,1.69,2.92,7.33,7.33,0,0,0,5.18,2.28,7.63,7.63,0,0,0,3.79-1C315.05,429.72,315.43,429.35,315.47,429.39Z" style="fill: rgb(255, 179, 148); transform-origin: 309.15px 425.066px;" id="elvuc1fenlu" class="animable"></path><path d="M337.39,340.68s27.41,34.82,46.26,36.44S415,361.86,415,361.86l26-35.75L419,312.3,399.3,331.06l-17.47-23.54Z" style="fill: rgb(255, 214, 190); transform-origin: 389.195px 342.375px;" id="elx3hjfswmnfq" class="animable"></path><path d="M404.14,355c-.08,0-.08-1.27-.2-3.3a52.06,52.06,0,0,0-1.09-7.85,53.28,53.28,0,0,0-2.32-7.59,30.51,30.51,0,0,1-1.21-3.07,2.93,2.93,0,0,1,.48.75c.28.5.65,1.25,1.07,2.18a40.64,40.64,0,0,1,3.44,15.57c0,1,0,1.85-.05,2.42A3.72,3.72,0,0,1,404.14,355Z" style="fill: rgb(255, 179, 148); transform-origin: 401.815px 344.095px;" id="elsca5ixg4fw" class="animable"></path><path d="M419,312.3l4.87-6.07a6.34,6.34,0,0,1,8.65-1.18c9.33,6.71,26.56,19.42,26.44,20.33-.5,3.64-18,.73-18,.73Z" style="fill: rgb(255, 214, 190); transform-origin: 438.98px 315.534px;" id="eli21rissk32e" class="animable"></path><path d="M430.52,339.87c-.11.1-4.36-4.65-9.49-10.59s-9.21-10.85-9.1-10.94,4.36,4.65,9.49,10.6S430.63,339.78,430.52,339.87Z" style="fill: rgb(38, 50, 56); transform-origin: 421.225px 329.105px;" id="elbuq76lho9ev" class="animable"></path><path d="M438.2,329.9a4.06,4.06,0,0,1-.95-.51l-2.51-1.53c-2.11-1.3-5.05-3.07-8.35-4.91s-6.35-3.41-8.57-4.52l-2.62-1.33a4.87,4.87,0,0,1-.94-.54,3.63,3.63,0,0,1,1,.36c.64.26,1.56.66,2.69,1.17,2.26,1,5.35,2.56,8.66,4.4s6.23,3.68,8.3,5.06c1,.69,1.86,1.26,2.42,1.67A4.33,4.33,0,0,1,438.2,329.9Z" style="fill: rgb(38, 50, 56); transform-origin: 426.23px 323.23px;" id="elnzjvz7o8nl" class="animable"></path><path d="M441,326.11a35.89,35.89,0,0,1-2.47-2.79c-1.51-1.74-3.66-4.07-6.21-6.47a77.81,77.81,0,0,0-6.88-5.76c-1.84-1.37-3-2.14-3-2.21a4.12,4.12,0,0,1,.9.45c.56.31,1.35.81,2.31,1.46a60.18,60.18,0,0,1,7,5.68,66.22,66.22,0,0,1,6.14,6.61c.73.9,1.29,1.64,1.66,2.18A3.71,3.71,0,0,1,441,326.11Z" style="fill: rgb(38, 50, 56); transform-origin: 431.72px 317.495px;" id="el3vvbmq92sp9" class="animable"></path><path d="M458.69,325a6,6,0,0,1-1.08-.77L454.77,322c-2.4-1.89-5.71-4.49-9.44-7.28s-7.15-5.25-9.61-7l-2.92-2.14a7.24,7.24,0,0,1-1-.84,6.42,6.42,0,0,1,1.15.67c.72.46,1.75,1.15,3,2,2.52,1.71,6,4.13,9.71,6.93s7,5.44,9.36,7.41c1.17,1,2.1,1.79,2.74,2.36A6.65,6.65,0,0,1,458.69,325Z" style="fill: rgb(38, 50, 56); transform-origin: 445.245px 314.87px;" id="el3wv3frr6v1d" class="animable"></path><path d="M445.63,327.26a23.06,23.06,0,0,1-.42-6.12,24.08,24.08,0,0,1,.69-6.1c.15,0-.1,2.74-.17,6.11S445.78,327.25,445.63,327.26Z" style="fill: rgb(38, 50, 56); transform-origin: 445.554px 321.15px;" id="elz6ryvnlnvra" class="animable"></path><path d="M441,310.62a9.07,9.07,0,0,1-2.13.48,49.9,49.9,0,0,1-5.22.53,51.14,51.14,0,0,1-5.26,0,8.91,8.91,0,0,1-2.16-.26c0-.16,3.32-.05,7.39-.27S440.93,310.46,441,310.62Z" style="fill: rgb(38, 50, 56); transform-origin: 433.615px 311.141px;" id="elklld3jn4w7t" class="animable"></path><path d="M420,327.84s-.19.23-.62.53a12.24,12.24,0,0,1-1.89,1.13,16.23,16.23,0,0,1-3.07,1.16,17.71,17.71,0,0,1-1.9.39c-.34.05-.67.09-1,.12a2.13,2.13,0,0,1-.6-.07.78.78,0,0,1-.54-.51.77.77,0,0,1,.16-.73,1.87,1.87,0,0,1,.48-.38c.32-.18.61-.33.92-.47a14.7,14.7,0,0,1,1.81-.71,15.45,15.45,0,0,1,3.21-.68,12.24,12.24,0,0,1,2.21-.05,2.14,2.14,0,0,1,.8.12c0,.09-1.15,0-3,.29a18.44,18.44,0,0,0-3.11.77c-.56.2-1.15.44-1.74.72l-.88.45c-.27.15-.47.39-.41.52s.33.23.63.21.67-.06,1-.1c.65-.09,1.28-.21,1.86-.35a18.38,18.38,0,0,0,3-1C419,328.43,419.91,327.77,420,327.84Z" style="fill: rgb(38, 50, 56); transform-origin: 415.174px 329.356px;" id="elnrsnaidwcr9" class="animable"></path><path d="M419.79,327.69a3,3,0,0,1,.13.86c.05.57.11,1.38.12,2.39a19.42,19.42,0,0,1-.24,3.56,14.13,14.13,0,0,1-.52,2.06,4.35,4.35,0,0,1-.49,1.06,1.23,1.23,0,0,1-1.2.62,1.3,1.3,0,0,1-1-1,4,4,0,0,1-.08-1.17,12.59,12.59,0,0,1,1.38-5.5,11.31,11.31,0,0,1,1.29-2,3.15,3.15,0,0,1,.61-.64c.08.06-.75,1-1.57,2.82a13.72,13.72,0,0,0-1,3.32,13.21,13.21,0,0,0-.19,2,3.42,3.42,0,0,0,.07,1,.82.82,0,0,0,.55.59.74.74,0,0,0,.69-.4,4.27,4.27,0,0,0,.43-.94,13.8,13.8,0,0,0,.52-2,22.48,22.48,0,0,0,.36-3.47A28.47,28.47,0,0,1,419.79,327.69Z" style="fill: rgb(38, 50, 56); transform-origin: 418.272px 332.968px;" id="elh60am04buqq" class="animable"></path><path d="M398.81,371.76a3.86,3.86,0,0,1-.83.83,12.36,12.36,0,0,1-2.7,1.7,13.06,13.06,0,0,1-4.6,1.19,4.62,4.62,0,0,1-2.84-.48,2.16,2.16,0,0,1-.94-1.32A2.79,2.79,0,0,1,387,372a4.16,4.16,0,0,1,2.23-2.14A11.06,11.06,0,0,1,392,369a2.78,2.78,0,0,1,2.52.69,1.83,1.83,0,0,1,.56,1.12,1.59,1.59,0,0,1-.32,1.12,2.37,2.37,0,0,1-1.67.89,3.82,3.82,0,0,1-1.39-.16,3.53,3.53,0,0,1-1.08-.44,9,9,0,0,1,1.13.24,3.9,3.9,0,0,0,1.31.07,2.11,2.11,0,0,0,1.4-.81,1.29,1.29,0,0,0-.24-1.72,2.34,2.34,0,0,0-2.14-.52,11,11,0,0,0-2.55.88,3.68,3.68,0,0,0-2,1.87,1.88,1.88,0,0,0,.6,2.34,4.22,4.22,0,0,0,2.53.43,13.12,13.12,0,0,0,4.48-1.05A21.34,21.34,0,0,0,398.81,371.76Z" style="fill: rgb(255, 179, 148); transform-origin: 392.813px 372.232px;" id="elwitqnsb0wk" class="animable"></path><path d="M307.32,188.16s11-4.87,19.77-3.68,14.33,3.51,21.37,3.26,17.66-3.4,25.05,1.72,12.08,6.31,12.61,14.36S374,222.66,365.67,223.26s-29,.39-29,.39l2.09-15-20.24-1.1Z" style="fill: rgb(255, 214, 190); transform-origin: 346.728px 203.989px;" id="elz389gp0r92" class="animable"></path><path d="M383,199.58s.11.07.28.25a4.11,4.11,0,0,1,.59.87,6.4,6.4,0,0,1,.54,3.82,16.69,16.69,0,0,1-2.06,5.36,5.9,5.9,0,0,1-1,1.35,2.67,2.67,0,0,1-1.68.78,2.91,2.91,0,0,1-2.81-2.33,7.08,7.08,0,0,1,.23-3.7,9.32,9.32,0,0,1,1.59-3,3.28,3.28,0,0,1,1.32-1,1.37,1.37,0,0,1,1.6.28,2,2,0,0,1,.39,1.45,9.58,9.58,0,0,1-.19,1.28,4.25,4.25,0,0,1-.94,2,2.23,2.23,0,0,1-1.53.74,1.61,1.61,0,0,1-1-.26c-.2-.15-.26-.27-.25-.28a1.67,1.67,0,0,0,1.27.34,2.18,2.18,0,0,0,1.34-.73,4.16,4.16,0,0,0,.79-1.92,11.82,11.82,0,0,0,.15-1.23,1.63,1.63,0,0,0-.3-1.14,1,1,0,0,0-1.12-.15,3,3,0,0,0-1.11.89,8.88,8.88,0,0,0-1.48,2.89,6.69,6.69,0,0,0-.22,3.41,2.43,2.43,0,0,0,2.28,2,3.25,3.25,0,0,0,2.33-1.87,17.09,17.09,0,0,0,2.11-5.16,6.6,6.6,0,0,0-.36-3.68A12.94,12.94,0,0,0,383,199.58Z" style="fill: rgb(255, 179, 148); transform-origin: 380.606px 205.795px;" id="el3q1ujt9k677" class="animable"></path><path d="M285.91,202.07s5.65-4.49,11-5.37,24.88-.13,24.88-.13l4.17,6.76-6.05,6H296.25S287,204.91,285.91,202.07Z" style="fill: #D9374B; transform-origin: 305.935px 202.801px;" id="elal0rhbtsb9l" class="animable"></path><g id="elpp0c3cxdb1"><rect x="198.57" y="77.89" width="1" height="242.15" style="fill: rgb(69, 90, 100); transform-origin: 199.07px 198.965px; transform: rotate(-87.94deg);" class="animable" id="elk9ndevhxrri"></rect></g><path d="M109.94,201.36a15.33,15.33,0,0,0-4.94-5,15.65,15.65,0,0,0,4.64-4.31,5.08,5.08,0,0,0,1.16-4c-.5-1.95-2.76-2.86-4.76-3-3.91-.37-7.77.88-11.5,2.11C86,189.93,78,192.47,69.45,195.3l25.11,10.08c3.64,1.47,7.42,3,11.34,2.83,2-.06,4.33-.83,4.95-2.74A5.1,5.1,0,0,0,109.94,201.36Z" style="fill: #D9374B; transform-origin: 90.2047px 196.603px;" id="el4hyo4evu6gp" class="animable"></path><path d="M303,208.91a15.59,15.59,0,0,1-5.19-2.87,45.7,45.7,0,0,1-4.61-3.7c.09-.14,2.32,1.31,4.92,3.28S303,208.78,303,208.91Z" style="fill: rgb(38, 50, 56); transform-origin: 298.1px 205.62px;" id="el6kf6hnp7zg9" class="animable"></path><path d="M310.56,208.83a46.33,46.33,0,0,1-7.58-6.1,22.76,22.76,0,0,1,3.95,2.85A23.19,23.19,0,0,1,310.56,208.83Z" style="fill: rgb(38, 50, 56); transform-origin: 306.77px 205.78px;" id="elcffzq2g91ps" class="animable"></path><path d="M305.68,196.33c.07.14-1.9,1.32-4.18,3s-4,3.19-4.13,3.08a16.66,16.66,0,0,1,3.82-3.5A16.33,16.33,0,0,1,305.68,196.33Z" style="fill: rgb(38, 50, 56); transform-origin: 301.526px 199.373px;" id="elrxajehuif4i" class="animable"></path><path d="M313.69,198.5a26.13,26.13,0,0,1-3,2.28,27.82,27.82,0,0,1-3,2.24,9.6,9.6,0,0,1,2.72-2.66A9.72,9.72,0,0,1,313.69,198.5Z" style="fill: rgb(38, 50, 56); transform-origin: 310.69px 200.76px;" id="elldwgsjfw0zo" class="animable"></path><path d="M105,196.39a8.24,8.24,0,0,1-1.4.08c-.91,0-2.22,0-3.83,0-3.23,0-7.7-.16-12.62-.37l-12.61-.52-3.82-.15a8.38,8.38,0,0,1-1.4-.11,6.53,6.53,0,0,1,1.4-.09c.91,0,2.22,0,3.83,0,3.23,0,7.7.16,12.62.37l12.61.52,3.82.15A6.62,6.62,0,0,1,105,196.39Z" style="fill: rgb(38, 50, 56); transform-origin: 87.16px 195.849px;" id="elyq8t8zvsb9o" class="animable"></path><path d="M101.7,186.44a5.41,5.41,0,0,1-1.08.33l-3,.74c-2.49.63-5.94,1.52-9.7,2.62s-7.16,2.21-9.6,3l-2.89,1a5.47,5.47,0,0,1-1.08.3,3.8,3.8,0,0,1,1-.49c.66-.29,1.63-.67,2.84-1.13,2.41-.91,5.79-2.07,9.57-3.18s7.25-1.94,9.77-2.48c1.26-.26,2.29-.46,3-.58A4.22,4.22,0,0,1,101.7,186.44Z" style="fill: rgb(255, 255, 255); transform-origin: 88.025px 190.434px;" id="elkxhf6mwkld" class="animable"></path><path d="M105.13,205.74a4.58,4.58,0,0,1-1.17-.22c-.74-.17-1.8-.44-3.12-.79-2.63-.7-6.24-1.71-10.21-2.92s-7.55-2.36-10.12-3.23c-1.29-.44-2.33-.81-3-1.07a4.94,4.94,0,0,1-1.09-.47,6.06,6.06,0,0,1,1.15.27l3.09.92,10.16,3.09,10.16,3.06,3.08,1A5.53,5.53,0,0,1,105.13,205.74Z" style="fill: rgb(255, 255, 255); transform-origin: 90.775px 201.39px;" id="elcophmkiebhj" class="animable"></path><path d="M253.87,287.28s14.08,84.08,21,85.51,17.73-16.52,49.34-8.74,72.55-16.61,75.73-26.61S380.17,303,380.17,303L351.3,275.63Z" style="fill: rgb(250, 250, 250); transform-origin: 327.056px 324.251px;" id="elnngk307kwg" class="animable"></path><path d="M253.87,287.28l1.76-.24,5.18-.64L280.55,284l70.72-8.57.1,0,.08.08,17,16.1,9,8.53a84.46,84.46,0,0,1,8.7,9.45,125.45,125.45,0,0,1,7.89,10.62c1.22,1.87,2.39,3.8,3.44,5.81a29.64,29.64,0,0,1,2.52,6.38,11.27,11.27,0,0,1,.37,3.48,6.61,6.61,0,0,1-1.1,3.36,23.78,23.78,0,0,1-4.68,5.23,73.79,73.79,0,0,1-11.61,8.08c-12.14,6.85-25.25,11.44-38.35,12.88a65.35,65.35,0,0,1-9.77.36c-1.62,0-3.22-.22-4.81-.36s-3.17-.45-4.71-.82a91.51,91.51,0,0,0-9.18-1.76,54.53,54.53,0,0,0-9.09-.43,46.49,46.49,0,0,0-8.79,1.16,47.34,47.34,0,0,0-8.17,2.78,83.59,83.59,0,0,0-7.46,3.91c-1.2.68-2.4,1.37-3.65,1.94a7.41,7.41,0,0,1-4,.86,1.49,1.49,0,0,1-.55-.14,3.08,3.08,0,0,1-.46-.31,5.06,5.06,0,0,1-.68-.8,12.21,12.21,0,0,1-1-1.75,39.19,39.19,0,0,1-1.51-3.63c-.88-2.44-1.61-4.88-2.3-7.27-1.35-4.8-2.48-9.44-3.51-13.89-4-17.79-6.67-32.32-8.5-42.35-.87-5-1.55-8.91-2-11.57-.21-1.31-.38-2.32-.49-3s-.15-1-.15-1,.08.34.2,1,.31,1.69.54,3c.49,2.66,1.2,6.55,2.11,11.56,1.89,10,4.56,24.53,8.66,42.3,1,4.44,2.18,9.07,3.54,13.86.69,2.38,1.42,4.81,2.31,7.24a38.3,38.3,0,0,0,1.49,3.59,11.7,11.7,0,0,0,1,1.68c.37.52.8,1,1.4,1.07a6.92,6.92,0,0,0,3.78-.83c1.23-.56,2.42-1.24,3.62-1.93a82.8,82.8,0,0,1,7.49-3.93,44.64,44.64,0,0,1,17.13-4,56.71,56.71,0,0,1,9.18.42c3.08.35,6.14,1.1,9.21,1.76,1.53.37,3.1.57,4.67.81s3.16.33,4.77.35a63.18,63.18,0,0,0,9.7-.36c13-1.43,26.07-6,38.14-12.82a73.83,73.83,0,0,0,11.53-8,23.82,23.82,0,0,0,4.58-5.11c1.31-1.88,1.21-4.29.67-6.45a28.16,28.16,0,0,0-2.48-6.26,65.4,65.4,0,0,0-3.41-5.78,125.3,125.3,0,0,0-7.85-10.57,82.89,82.89,0,0,0-8.66-9.42q-4.59-4.33-9-8.54l-17-16.12.18.06-70.6,8.33-19.8,2.31-5.24.59Z" style="fill: rgb(38, 50, 56); transform-origin: 327.117px 324.259px;" id="elvkkt6l1tmfh" class="animable"></path><g id="el4eb8a00djtg"><g style="opacity: 0.3; transform-origin: 309.85px 313.707px;" class="animable" id="eluxed63zkihm"><path d="M256.28,299.61a51.32,51.32,0,0,0,45.36,20.68c3.05-.28,6.39-.78,9,.89a12.19,12.19,0,0,1,3.51,4.21l5.44,9A13.21,13.21,0,0,0,323,338.6a4,4,0,0,0,6.47-4.54,13.25,13.25,0,0,0-2.76-4.58l-6-7.48a4.09,4.09,0,0,1-1.27-3c.24-1.66,2.23-2.3,3.86-2.69a50.7,50.7,0,0,0,23.7-13.1,15.33,15.33,0,0,0,13.55,6.32,3.39,3.39,0,0,0,2.49-1c.92-1.19.05-3.05-1.29-3.73s-3.57-1-5-1.56c-2.89-1.16-4.5-3.13-4-3.89a7,7,0,0,0,2-2.14c1.32-1.78,1.54-3,3.32-4.28s3.47-3.13,3.58-5.34c-14.4,10.36-29.51,20.31-46.55,25.28s-36.47,4.37-51.3-5.38" id="elc0j7s38wmxh" class="animable" style="transform-origin: 309.85px 313.707px;"></path></g></g><path d="M229.58,201.06s7.22,46.64,16.84,78.42,35,40,58.07,38.55c30.26-2,59.67-31.91,59.67-31.91L341,265.92s-28.71.2-48.69-10.41c-20.19-10.71-38.42-58.59-38.42-58.59S237.5,193,229.58,201.06Z" style="fill: rgb(250, 250, 250); transform-origin: 296.87px 257.077px;" id="eloqsw39rn6k" class="animable"></path><path d="M229.58,201.06s.41-.39,1.26-1.15a15.21,15.21,0,0,1,1.71-1.19,8.81,8.81,0,0,1,1.19-.63,10.86,10.86,0,0,1,1.41-.62c4-1.62,10.69-2.32,18.75-.68l.06,0,0,.06c2.35,6,5.38,12.85,9.19,20.45a162.89,162.89,0,0,0,14.57,24.14,59.85,59.85,0,0,0,11,11.53l1.7,1.19,1.8,1.06c1.25.63,2.53,1.24,3.81,1.86l4,1.64,4.14,1.43a114.47,114.47,0,0,0,17.73,4,142.15,142.15,0,0,0,19,1.54h.1l.07.06,23.19,20.19.21.18-.2.2A145.56,145.56,0,0,1,346,301.43a116.59,116.59,0,0,1-17.83,10.34,71.34,71.34,0,0,1-19.09,6c-1.63.27-3.27.41-4.89.54s-3.25.17-4.87.13a68.74,68.74,0,0,1-9.56-.67,55.86,55.86,0,0,1-17.68-5.44,47.44,47.44,0,0,1-13.92-10.74,56.12,56.12,0,0,1-5.1-6.75c-.68-1.21-1.37-2.41-2-3.6-.17-.3-.35-.59-.5-.89l-.42-.93c-.28-.62-.55-1.24-.83-1.85a67.47,67.47,0,0,1-2.81-7.4c-.79-2.47-1.46-4.92-2.14-7.31q-2-7.2-3.54-13.87c-4.21-17.74-6.84-32.26-8.64-42.3-.88-5-1.52-8.92-1.94-11.57-.2-1.32-.36-2.33-.46-3s-.14-1-.14-1l2.74,15.59c1.86,10,4.55,24.53,8.8,42.25q1.59,6.64,3.57,13.84c.68,2.39,1.36,4.84,2.14,7.3a69.61,69.61,0,0,0,2.81,7.35c.28.6.56,1.21.83,1.83l.42.92c.15.3.33.59.5.88l2,3.57a53.41,53.41,0,0,0,5.07,6.68,47,47,0,0,0,13.79,10.63,55.66,55.66,0,0,0,17.53,5.37,67.84,67.84,0,0,0,9.49.65c1.61,0,3.22-.09,4.84-.13s3.23-.26,4.84-.53a70.81,70.81,0,0,0,18.95-6A116.64,116.64,0,0,0,345.69,301,144.48,144.48,0,0,0,364,285.93l0,.38-23.18-20.2.17.06a141.28,141.28,0,0,1-19.1-1.56,114.24,114.24,0,0,1-17.8-4l-4.16-1.44-4-1.66c-1.29-.63-2.58-1.24-3.85-1.88l-1.82-1.08-1.72-1.21a60.38,60.38,0,0,1-11.09-11.63,163,163,0,0,1-14.54-24.24c-3.79-7.62-6.8-14.53-9.13-20.51l.09.08c-8-1.67-14.61-1-18.65.55a11.33,11.33,0,0,0-1.4.61,7.78,7.78,0,0,0-1.19.61,15.87,15.87,0,0,0-1.72,1.15C230,200.69,229.58,201.06,229.58,201.06Z" style="fill: rgb(38, 50, 56); transform-origin: 297.025px 257.155px;" id="elhyuf0kcgb7c" class="animable"></path><path d="M347.89,279.74a1.73,1.73,0,0,1-.37.14l-1.1.38c-1,.33-2.4.79-4.25,1.35a111.17,111.17,0,0,1-16,3.53,64.71,64.71,0,0,1-24.26-1,46.72,46.72,0,0,1-13.32-5.47,44.19,44.19,0,0,1-6.13-4.55,52.32,52.32,0,0,1-5.44-5.68,81.5,81.5,0,0,1-8.53-12.9c-2.39-4.39-4.45-8.75-6.38-12.91-3.84-8.32-7-16-9.44-22.45s-4.28-11.79-5.47-15.48c-.6-1.84-1-3.28-1.34-4.26l-.33-1.11a1.74,1.74,0,0,1-.09-.39l.14.37c.1.27.22.64.38,1.1.34,1,.82,2.41,1.43,4.23,1.25,3.66,3.12,9,5.62,15.41s5.67,14.08,9.54,22.38c1.94,4.15,4,8.49,6.39,12.87a81.36,81.36,0,0,0,8.48,12.81,52.15,52.15,0,0,0,5.38,5.62,44.7,44.7,0,0,0,6.06,4.51A46.76,46.76,0,0,0,302,283.67a64.87,64.87,0,0,0,24.1,1.1,114.13,114.13,0,0,0,16-3.36l4.28-1.25,1.12-.33A1.88,1.88,0,0,1,347.89,279.74Z" style="fill: rgb(38, 50, 56); transform-origin: 296.665px 242.392px;" id="elrk7cqy8sa7c" class="animable"></path><path d="M357.5,280.59a2.28,2.28,0,0,1-.31.31l-.94.89c-.42.39-.94.86-1.6,1.37s-1.39,1.13-2.3,1.73a57.17,57.17,0,0,1-16.52,7.77,109.16,109.16,0,0,1-12.31,2.9c-4.48.8-9.28,1.55-14.38,2a56.53,56.53,0,0,1-16-.58,32.92,32.92,0,0,1-8.06-2.73,30.91,30.91,0,0,1-7.22-5,61.69,61.69,0,0,1-10.6-13.57c-2.88-4.77-5.5-9.44-7.94-13.94a209,209,0,0,1-11.45-24.6,131.6,131.6,0,0,1-5.38-17.49c-.24-1-.44-2-.62-2.81s-.28-1.5-.38-2.07-.17-1-.23-1.27a2.44,2.44,0,0,1-.06-.44,2.42,2.42,0,0,1,.11.43c.07.31.16.73.28,1.26s.26,1.26.43,2.06.41,1.75.66,2.79a140,140,0,0,0,5.54,17.4,213.31,213.31,0,0,0,11.53,24.52c2.43,4.48,5.07,9.15,7.95,13.89a61.19,61.19,0,0,0,10.51,13.45,30.46,30.46,0,0,0,7.1,4.91,32,32,0,0,0,7.94,2.69,56.55,56.55,0,0,0,15.88.61c5.07-.44,9.87-1.18,14.34-1.95a110.82,110.82,0,0,0,12.28-2.83,58.42,58.42,0,0,0,16.52-7.58c.9-.59,1.65-1.18,2.31-1.69s1.2-1,1.63-1.33l1-.84Z" style="fill: rgb(38, 50, 56); transform-origin: 299.35px 255.468px;" id="el1mz35cak1ke" class="animable"></path><path d="M330.44,303.43a3.1,3.1,0,0,1-.5.24l-1.45.62c-.63.27-1.4.58-2.33.88s-2,.7-3.15,1-2.47.69-3.89,1-2.93.56-4.53.82a69.85,69.85,0,0,1-10.52.6,69,69,0,0,1-10.48-1.14c-1.58-.34-3.09-.64-4.48-1.05s-2.67-.77-3.83-1.17-2.19-.8-3.1-1.15-1.67-.7-2.28-1l-1.42-.69a2,2,0,0,1-.48-.27,1.68,1.68,0,0,1,.52.18l1.46.59c.62.28,1.39.6,2.31.91s1.93.75,3.1,1.09,2.44.77,3.83,1.1,2.89.66,4.46,1a66.31,66.31,0,0,0,20.85.53c1.59-.24,3.11-.44,4.5-.76s2.7-.6,3.88-.91,2.23-.64,3.16-.92,1.71-.55,2.35-.79l1.49-.52A1.74,1.74,0,0,1,330.44,303.43Z" style="fill: rgb(38, 50, 56); transform-origin: 304.22px 305.361px;" id="eld65k7a2ced" class="animable"></path><path d="M325.81,345.9c-.13.07-3.3-6-7.08-13.56s-6.74-13.74-6.61-13.81,3.3,6,7.08,13.57S325.94,345.84,325.81,345.9Z" style="fill: rgb(38, 50, 56); transform-origin: 318.965px 332.215px;" id="elj0xgy0e12e" class="animable"></path><path d="M350.45,351.34s-.16-.07-.43-.25l-1.17-.81c-1-.71-2.45-1.78-4.18-3.14a129.65,129.65,0,0,1-23.9-24.81c-1.3-1.79-2.31-3.26-3-4.3l-.76-1.2c-.17-.28-.26-.43-.24-.44a2.18,2.18,0,0,1,.32.38l.85,1.14c.71,1,1.77,2.44,3.11,4.19a147.42,147.42,0,0,0,23.83,24.75c1.7,1.4,3.09,2.51,4.07,3.27l1.11.88A2.25,2.25,0,0,1,350.45,351.34Z" style="fill: rgb(38, 50, 56); transform-origin: 333.609px 333.865px;" id="el3i0ac9xvkca" class="animable"></path><path d="M371.72,321.29a5.88,5.88,0,0,1-1.1-.58c-.69-.39-1.68-1-2.89-1.75-2.41-1.51-5.69-3.69-9.2-6.25s-6.59-5-8.77-6.85c-1.09-.92-2-1.68-2.55-2.21a5.66,5.66,0,0,1-.88-.88,6.47,6.47,0,0,1,1,.72l2.65,2.08c2.24,1.76,5.34,4.16,8.85,6.72s6.74,4.78,9.1,6.37l2.79,1.88A5.72,5.72,0,0,1,371.72,321.29Z" style="fill: rgb(38, 50, 56); transform-origin: 359.025px 312.03px;" id="ely3nn6p4k4cj" class="animable"></path><path d="M369.28,306.38a12.93,12.93,0,0,1-3-.3,50.5,50.5,0,0,1-7.1-1.72,49.38,49.38,0,0,1-6.77-2.74,14.28,14.28,0,0,1-2.62-1.5,23.36,23.36,0,0,1,2.78,1.17,72.39,72.39,0,0,0,6.77,2.57c2.7.87,5.19,1.47,7,1.86A22.6,22.6,0,0,1,369.28,306.38Z" style="fill: rgb(38, 50, 56); transform-origin: 359.535px 303.251px;" id="elg0nz1tfmbi" class="animable"></path><path d="M277.33,336.17c-.14,0-1.7-5.42-3.49-12.19s-3.12-12.28-3-12.32,1.7,5.42,3.49,12.19S277.46,336.14,277.33,336.17Z" style="fill: rgb(38, 50, 56); transform-origin: 274.086px 323.915px;" id="elpz4my8nncck" class="animable"></path><g id="elnkv7p6vkjt"><g style="opacity: 0.3; transform-origin: 296.31px 281.903px;" class="animable" id="elygzgj5nk41r"><path d="M258.55,259.87c3.33,8.74,6.51,19,12,26.54s13.12,13.9,22.15,16.35c7,1.89,14.46,1.35,21.45-.53s13.55-5.88,19.95-9.26c-11.08,1.65-28,6.8-41.62,3.59-7.72-1.82-14.28-7.05-19.17-13.28a144.21,144.21,0,0,1-14.79-23.41" id="el3r7jfzc1f1r" class="animable" style="transform-origin: 296.31px 281.903px;"></path></g></g><g id="el89x46mi20b9"><g style="opacity: 0.3; transform-origin: 309.685px 283.839px;" class="animable" id="elvxho0575sm"><path d="M331.43,284.22A38.47,38.47,0,0,1,287.94,279s14,6.28,23.05,6.4A192.72,192.72,0,0,0,331.43,284.22Z" id="elxlzgty05ebq" class="animable" style="transform-origin: 309.685px 283.839px;"></path></g></g><path d="M373.74,196.68a21.93,21.93,0,0,0-5.23-.54,24.44,24.44,0,0,0-5.62.91,67.81,67.81,0,0,0-6.63,2.35,110,110,0,0,1-12.21,3.94,34.58,34.58,0,0,1-3.83.75,6.4,6.4,0,0,1-1.43.09,9.55,9.55,0,0,1,1.4-.29c.9-.17,2.19-.47,3.76-.9,3.16-.86,7.45-2.31,12.13-4.08a61.45,61.45,0,0,1,6.68-2.32,22.89,22.89,0,0,1,5.74-.82,15,15,0,0,1,3.89.45,8,8,0,0,1,1,.31A1.79,1.79,0,0,1,373.74,196.68Z" style="fill: rgb(255, 179, 148); transform-origin: 356.265px 199.978px;" id="elgm4d0od2s8h" class="animable"></path><path d="M338.19,223.68s-18.27,4.63-19.9,4.91-6.36.75-7.13-1.24l-.35-1.3s-4.93-.29-5.15-2l-.22-1.68s-8.11.8-9-.7-.91-2.53.08-3.14,13.79-2.45,13.79-2.45,2.42-1.34,1.41-1.65-15.42-.58-15.51-.91-2.2-3.45.74-4.13,15.22-.16,16.8-.71a19.24,19.24,0,0,0,3.27-1.57l3-3.82s-4-3.56-4.77-4.38-5.88-2.12-3.67-5.49c0,0,12.26,3.87,14.69,5.18a66.6,66.6,0,0,1,7,5l5.45.5" style="fill: rgb(255, 214, 190); transform-origin: 317.057px 211.134px;" id="el8bwpiexhr8d" class="animable"></path><path d="M338.79,204.18a1.33,1.33,0,0,1-.35,0l-1-.07-4.07-.32h0l0,0c-1-.78-2.14-1.67-3.48-2.65-.67-.49-1.39-1-2.16-1.5a13.23,13.23,0,0,0-2.56-1.36c-3.79-1.49-8.38-3-13.51-4.59l.23-.09a3,3,0,0,0-.5,1.42,2.08,2.08,0,0,0,.52,1.39,9.32,9.32,0,0,0,2.81,1.87,4.34,4.34,0,0,1,.8.52l.67.61,1.35,1.23,2.77,2.54.17.15-.14.17-3,3.83,0,0,0,0a19.59,19.59,0,0,1-3.12,1.52,6.53,6.53,0,0,1-1.78.28l-1.77.07-7.22.08c-1.23,0-2.46,0-3.7.11-.62,0-1.24.08-1.85.15a3.13,3.13,0,0,0-1.62.55,1.47,1.47,0,0,0-.38,1.5,6.82,6.82,0,0,0,.69,1.71l.06.15s0-.12-.09-.13h0a1,1,0,0,0,.21,0l.46.05,1,.07,1.94.1,7.29.3c1.2.06,2.39.11,3.58.19.3,0,.57.05.92.11a1.75,1.75,0,0,1,.29.13,1.19,1.19,0,0,1,.15.18.73.73,0,0,1,0,.25,1.07,1.07,0,0,1-.3.52,7.45,7.45,0,0,1-1.48,1.06l0,0h-.05c-2.4.34-4.77.7-7.08,1.07l-3.42.59-1.67.32a8.57,8.57,0,0,0-1.54.42,1.18,1.18,0,0,0-.61,1.18,4.09,4.09,0,0,0,.52,1.45c.16.45.66.57,1.17.71a11.12,11.12,0,0,0,1.55.21,40.16,40.16,0,0,0,6.13-.14h.21l0,.2.12,1a4,4,0,0,0,.16.89,2.39,2.39,0,0,0,1.38.94,14.31,14.31,0,0,0,3.5.66H311l0,.14.34,1.29v0a1.73,1.73,0,0,0,1,.94,6.14,6.14,0,0,0,1.46.37,14.75,14.75,0,0,0,3,0c.48,0,.95-.09,1.41-.17l1.37-.33,2.59-.63,8.61-2.07,5.47-1.29,1.42-.33c.33-.07.5-.09.5-.09l-.48.15-1.42.38-5.44,1.4-8.6,2.17-2.6.65-1.36.34q-.71.12-1.44.18a14.71,14.71,0,0,1-3,0,5.9,5.9,0,0,1-1.57-.38,2.17,2.17,0,0,1-1.27-1.15h0c-.12-.42-.23-.84-.35-1.29l.18.15a15.05,15.05,0,0,1-3.62-.67,2.7,2.7,0,0,1-1.64-1.17,4.13,4.13,0,0,1-.19-1c0-.32-.09-.64-.13-1l.24.19a41,41,0,0,1-6.21.17,11.45,11.45,0,0,1-1.62-.22,3.79,3.79,0,0,1-.82-.28,2,2,0,0,1-.4-.27,1.58,1.58,0,0,1-.26-.4,4.4,4.4,0,0,1-.58-1.63,1.69,1.69,0,0,1,.83-1.63,8.66,8.66,0,0,1,1.7-.49l1.68-.33,3.43-.59q3.48-.57,7.09-1.09l-.09,0a6.81,6.81,0,0,0,1.36-1,.79.79,0,0,0,.16-.22.06.06,0,0,0,.07,0c-.06,0-.08.06-.06,0s-.05,0-.11,0c-.24,0-.55-.07-.84-.09-1.17-.09-2.36-.14-3.56-.19l-7.29-.3L298,214l-1-.07-.49-.06-.27,0s0,0-.11,0-.19-.19-.18-.19l0-.07a7.29,7.29,0,0,1-.73-1.84,2,2,0,0,1,.55-2,3.56,3.56,0,0,1,1.9-.67c.63-.08,1.26-.12,1.88-.16,1.26-.06,2.49-.08,3.72-.1l7.22-.07c.59,0,1.17,0,1.75-.07a5.75,5.75,0,0,0,1.64-.24,18.85,18.85,0,0,0,3-1.47l-.06.05c1-1.32,2.09-2.62,3-3.82l0,.32-2.78-2.56-1.35-1.25-.66-.61a3.83,3.83,0,0,0-.7-.44,9.57,9.57,0,0,1-2.93-2,2.52,2.52,0,0,1-.61-1.68,3.43,3.43,0,0,1,.58-1.62l.08-.13.15.05c5.14,1.66,9.71,3.16,13.51,4.69a13.59,13.59,0,0,1,2.59,1.41c.78.52,1.49,1,2.16,1.53,1.34,1,2.48,1.92,3.45,2.71l0,0,4.06.42,1,.11A1.35,1.35,0,0,1,338.79,204.18Z" style="fill: rgb(255, 179, 148); transform-origin: 316.967px 211.103px;" id="eltns5xkuflu" class="animable"></path><path d="M316,220.18a16.71,16.71,0,0,1-5.14,1.67,16.33,16.33,0,0,1-5.39.44c0-.15,2.39-.36,5.28-.95S316,220,316,220.18Z" style="fill: rgb(255, 179, 148); transform-origin: 310.735px 221.251px;" id="elcaijsauqidw" class="animable"></path><path d="M319.29,224a13.37,13.37,0,0,1-8.3,2.21c0-.15,1.92-.31,4.2-.93S319.22,223.86,319.29,224Z" style="fill: rgb(255, 179, 148); transform-origin: 315.14px 225.112px;" id="el6qca64f8q8o" class="animable"></path><path d="M184.82,289.12s.17-.17.54-.47l1.62-1.32,6.26-5.05,23.17-18.56,77.14-61.54v.39l-4.73-4.35-75.74-69.8-22.91-21.2L184,101.44c-.7-.66-1.24-1.16-1.61-1.52l-.54-.52.58.49,1.64,1.47c1.44,1.32,3.56,3.24,6.28,5.71l23,21.08c19.42,17.84,46.23,42.47,75.84,69.69l4.73,4.35.23.2-.24.19L216.64,264l-23.27,18.43-6.33,5-1.65,1.28Z" style="fill: rgb(38, 50, 56); transform-origin: 238px 194.26px;" id="elie7zzg5od4" class="animable"></path><path d="M158.41,75.21c2.72-3.07,7.58-2.25,10.84-.45,4.47,2.47,6.92,7.63,8.32,12.33,3.18,10.68-1.38,22.23-6.93,31.34a65.56,65.56,0,0,1-9.9,12.08,132.5,132.5,0,0,1-15.1,13.21c-9.06,6.7-19.77,12.86-25.82,22.71-6.81,11.08-3.18,24.67,5.88,33.37a4.65,4.65,0,0,0,6.46,0c1.93-1.92,1.52-4.5,0-6.46a47.17,47.17,0,0,1-5.48-8,16.15,16.15,0,0,1-1.62-6.14c-.14-3.92,1.31-7.27,4-10.74,2.92-3.82,8-7.88,12.21-11.08,5.53-4.16,11.23-8.1,16.4-12.7,9.34-8.31,17.76-17.29,22.72-28.91,2.55-6,4.74-12.18,5.22-18.72a34.22,34.22,0,0,0-3.23-16.63c-2.59-5.76-6.69-10.6-12.79-12.67-5.53-1.88-11.94-.72-15.56,4-1.94,2.53,2.31,5.78,4.41,3.41Z" style="fill: rgb(69, 90, 100); transform-origin: 150.979px 133.999px;" id="elg9pqxhxyav" class="animable"></path><path d="M163.15,313a14.17,14.17,0,0,0,15.17-1.49c4.53-3.44,7.16-8.79,8.56-14.19A47.51,47.51,0,0,0,182.94,264c-5.37-10.33-14.95-17.23-24.9-22.74s-20.52-10.11-28.16-18.66a17,17,0,0,1-4.56-11.68c.1-4.3,2.18-7.65,5.92-10.42,2-1.47,3-4,1.64-6.26a4.66,4.66,0,0,0-6.26-1.63c-8.85,4.64-11.86,15.69-9.37,24.87,2.75,10.18,11.91,17.21,20.56,22.38,9.3,5.55,19.54,9.54,28.22,16.13a37.72,37.72,0,0,1,15.15,26.87,36.26,36.26,0,0,1-2.44,17.37c-2,4.57-7.11,10.36-12.75,7.92-3.23-1.4-6.12,3.13-2.84,4.86Z" style="fill: rgb(69, 90, 100); transform-origin: 152.343px 253.274px;" id="eluv3552bn87" class="animable"></path><path d="M153.19,139.59a4.24,4.24,0,0,1-.51.5c-.34.32-.86.77-1.54,1.34-1.36,1.14-3.39,2.7-6,4.53s-5.71,3.93-9.09,6.39a64.48,64.48,0,0,0-10.17,8.92,31.4,31.4,0,0,0-6.81,11.54,22.91,22.91,0,0,0-.63,10.88,18.15,18.15,0,0,0,2.8,6.83l.7.94c.2.26.41.47.55.65a4,4,0,0,1,.45.55,3.13,3.13,0,0,1-.52-.48c-.16-.17-.38-.36-.6-.62l-.74-.93a17.46,17.46,0,0,1-3-6.87,22.9,22.9,0,0,1,.53-11.09,31.42,31.42,0,0,1,6.88-11.75,63.32,63.32,0,0,1,10.28-9c3.4-2.45,6.56-4.5,9.16-6.3s4.67-3.3,6.06-4.39l1.6-1.26A3.5,3.5,0,0,1,153.19,139.59Z" style="fill: rgb(38, 50, 56); transform-origin: 135.413px 166.125px;" id="el2f13k64tree" class="animable"></path><path d="M173.67,116.69a3.93,3.93,0,0,1-.34.93c-.24.58-.64,1.41-1.17,2.41a46.61,46.61,0,0,1-4.92,7.36A47.19,47.19,0,0,1,161,133.7c-.88.72-1.61,1.28-2.13,1.63a3.27,3.27,0,0,1-.84.52c-.05-.07,1-.93,2.73-2.43a56.21,56.21,0,0,0,11.06-13.57C173,117.91,173.6,116.65,173.67,116.69Z" style="fill: rgb(38, 50, 56); transform-origin: 165.849px 126.27px;" id="el6o2douury6l" class="animable"></path><path d="M179.24,103.83a8.19,8.19,0,0,1-.89,3.48,8.11,8.11,0,0,1-1.89,3.06,27.82,27.82,0,0,1,1.41-3.27A25.85,25.85,0,0,1,179.24,103.83Z" style="fill: rgb(38, 50, 56); transform-origin: 177.85px 107.1px;" id="elpojpjlgcuf9" class="animable"></path><path d="M124.47,226.94a4.85,4.85,0,0,1-.77-.85,10.78,10.78,0,0,1-.81-1.08,16.74,16.74,0,0,1-1-1.51,24.46,24.46,0,0,1-1.94-4.23A25.92,25.92,0,0,1,118.72,208a24.62,24.62,0,0,1,.94-4.56,17.67,17.67,0,0,1,.6-1.68,8.85,8.85,0,0,1,.55-1.24,4.78,4.78,0,0,1,.56-1c.1.05-.66,1.5-1.35,4a26.12,26.12,0,0,0-.82,4.51,27.1,27.1,0,0,0,1.25,11.07,26.18,26.18,0,0,0,1.8,4.21C123.5,225.62,124.55,226.88,124.47,226.94Z" style="fill: rgb(38, 50, 56); transform-origin: 121.516px 213.23px;" id="ellx1x6ln70z" class="animable"></path><path d="M145.86,242.27a53.23,53.23,0,0,1-6.38-3.63,53.16,53.16,0,0,1-6.1-4.08,53.23,53.23,0,0,1,6.38,3.63A53.16,53.16,0,0,1,145.86,242.27Z" style="fill: rgb(38, 50, 56); transform-origin: 139.62px 238.415px;" id="elesz2be90x5v" class="animable"></path><path d="M182.53,283.5c-.09,0-.23-1.68-.75-4.34a49.84,49.84,0,0,0-3.15-10.09,49.11,49.11,0,0,0-5.27-9.17c-1.6-2.19-2.73-3.44-2.66-3.5a5.32,5.32,0,0,1,.86.82,31.58,31.58,0,0,1,2.1,2.46,43.18,43.18,0,0,1,8.48,19.41,31.36,31.36,0,0,1,.38,3.22A5,5,0,0,1,182.53,283.5Z" style="fill: rgb(38, 50, 56); transform-origin: 176.629px 269.95px;" id="elvugl0zfk4jn" class="animable"></path><path d="M164,67.74c0,.08-.74.07-1.9.26a12.59,12.59,0,0,0-4.25,1.53A7,7,0,0,0,156,71.08a3.76,3.76,0,0,0-.83,1.76,4.28,4.28,0,0,0,.19,1.83c0,.06-.65-.59-.55-1.87a3.81,3.81,0,0,1,.81-2,6.88,6.88,0,0,1,2-1.7,10.73,10.73,0,0,1,4.47-1.44A4.18,4.18,0,0,1,164,67.74Z" style="fill: rgb(255, 255, 255); transform-origin: 159.4px 71.1297px;" id="elj392sas1ra" class="animable"></path><path d="M168.51,68.27c0,.14-.7.11-1.51-.07s-1.42-.44-1.39-.58.71-.11,1.51.07S168.55,68.13,168.51,68.27Z" style="fill: rgb(255, 255, 255); transform-origin: 167.06px 67.945px;" id="el9tcgirpm78" class="animable"></path><path d="M126,194.24a16.25,16.25,0,0,1-6.26-10.06,55.1,55.1,0,0,0,2.62,5.35A53.39,53.39,0,0,0,126,194.24Z" style="fill: rgb(255, 255, 255); transform-origin: 122.87px 189.21px;" id="elkqg2rkhnqb" class="animable"></path><path d="M127,224.41a5,5,0,0,1-1.45-1.21,15.77,15.77,0,0,1-2.64-3.73,16,16,0,0,1-1.47-4.32,4.84,4.84,0,0,1-.12-1.89,32.27,32.27,0,0,0,2.06,6A31.88,31.88,0,0,0,127,224.41Z" style="fill: rgb(255, 255, 255); transform-origin: 124.138px 218.835px;" id="el5j98nby5nkn" class="animable"></path><path d="M182.93,286.29a8,8,0,0,1,.06,1.46c0,.94,0,2.31-.14,4a34.38,34.38,0,0,1-.9,5.87,19.29,19.29,0,0,1-3,6.66,15.33,15.33,0,0,1-5.5,4.79,10.93,10.93,0,0,1-5.84,1.14,12.42,12.42,0,0,0-3.92-.12,4.86,4.86,0,0,0-1.3.59s.08-.11.27-.28a2.72,2.72,0,0,1,1-.51,11.5,11.5,0,0,1,4-.05,10.84,10.84,0,0,0,5.6-1.2,15.17,15.17,0,0,0,5.29-4.66,19.32,19.32,0,0,0,2.91-6.48,36.23,36.23,0,0,0,1-5.78c.17-1.67.24-3,.3-4A8.37,8.37,0,0,1,182.93,286.29Z" style="fill: rgb(255, 255, 255); transform-origin: 172.695px 298.485px;" id="eljj0a97j5n7" class="animable"></path><path d="M112.93,200.47a16.56,16.56,0,0,0,3.71,2.14,5.65,5.65,0,0,0,4.2,0,3.45,3.45,0,0,0,2.12-3.42c-.2-1.54-1.61-2.62-3-3.33s-2.93-1.28-3.89-2.51a18.2,18.2,0,0,0,6.51,3.18c1,.18,2.16.1,2.67-.74s0-2-.63-2.85a19.53,19.53,0,0,0-7.24-6,6.81,6.81,0,0,0,2.48,1.14,2.32,2.32,0,0,0,2.39-1,2.9,2.9,0,0,0-.5-2.88,6.56,6.56,0,0,0-3.71-2.84,4.21,4.21,0,0,0-4.31,1.34,3.12,3.12,0,0,0,.48,4.26,3.89,3.89,0,0,0-1,6.73,5.73,5.73,0,0,0-.78,6.16" style="fill: rgb(255, 214, 190); transform-origin: 118.572px 192.114px;" id="eleyyj620ea1t" class="animable"></path></g><g id="freepik--Hearts--inject-95" class="animable" style="transform-origin: 108.183px 211.38px;"><path d="M50.6,157.65c-2.69-.89-6.08.12-7.31,2.68a6.2,6.2,0,0,0,0,4.89A11.21,11.21,0,0,0,44,166.8a11.53,11.53,0,0,0-1.73.1,6.22,6.22,0,0,0-4.33,2.27c-1.7,2.27-1,5.76,1,7.72a10,10,0,0,0,7.92,2.31,16,16,0,0,0,10.21-4.75c1-3.09.29-8.22-.76-10.85A10,10,0,0,0,50.6,157.65Z" style="fill: #D9374B; transform-origin: 47.2658px 168.316px;" id="elvo160on8bbf" class="animable"></path><path d="M176.83,150.22a4.31,4.31,0,0,0-5.53.15,4.4,4.4,0,0,0-1.11,3.29,7.36,7.36,0,0,0,.12,1.22,8.49,8.49,0,0,0-1.19-.32,4.43,4.43,0,0,0-3.43.54,4.33,4.33,0,0,0-1.06,5.43,7.08,7.08,0,0,0,4.8,3.35,11.3,11.3,0,0,0,7.95-.89c1.39-1.84,2.07-5.46,2-7.47A7,7,0,0,0,176.83,150.22Z" style="fill: #D9374B; transform-origin: 171.742px 156.761px;" id="el0429g4c6vjut" class="animable"></path><path d="M94.66,263.31a4.32,4.32,0,0,0-4.35-3.42,4.41,4.41,0,0,0-3,1.81,10.26,10.26,0,0,0-.69,1,8.22,8.22,0,0,0-.7-1,4.42,4.42,0,0,0-3-1.77,4.32,4.32,0,0,0-4.29,3.49,7.05,7.05,0,0,0,1.55,5.65,11.31,11.31,0,0,0,6.68,4.4c2.24-.53,5.08-2.88,6.28-4.5A7.07,7.07,0,0,0,94.66,263.31Z" style="fill: #D9374B; transform-origin: 86.6476px 266.679px;" id="el7w1xkv4wmi" class="animable"></path></g><defs>     <filter id="active" height="200%">         <feMorphology in="SourceAlpha" result="DILATED" operator="dilate" radius="2"></feMorphology>                <feFlood flood-color="#32DFEC" flood-opacity="1" result="PINK"></feFlood>        <feComposite in="PINK" in2="DILATED" operator="in" result="OUTLINE"></feComposite>        <feMerge>            <feMergeNode in="OUTLINE"></feMergeNode>            <feMergeNode in="SourceGraphic"></feMergeNode>        </feMerge>    </filter>    <filter id="hover" height="200%">        <feMorphology in="SourceAlpha" result="DILATED" operator="dilate" radius="2"></feMorphology>                <feFlood flood-color="#ff0000" flood-opacity="0.5" result="PINK"></feFlood>        <feComposite in="PINK" in2="DILATED" operator="in" result="OUTLINE"></feComposite>        <feMerge>            <feMergeNode in="OUTLINE"></feMergeNode>            <feMergeNode in="SourceGraphic"></feMergeNode>        </feMerge>            <feColorMatrix type="matrix" values="0   0   0   0   0                0   1   0   0   0                0   0   0   0   0                0   0   0   1   0 "></feColorMatrix>    </filter></defs></svg>