<svg width="748" height="557" viewBox="0 0 748 557" fill="none" xmlns="http://www.w3.org/2000/svg">
<path d="M215.387 513.399C235.162 493.887 235.273 463.905 229.92 437.89C229.018 433.549 228.713 428.862 225.981 425.409C223.25 421.956 217.952 420.139 214.36 422.636C211.379 424.716 210.602 428.737 209.326 432.163C207.611 436.737 204.64 440.736 200.756 443.7C198.219 445.614 194.932 447.084 191.923 446.044C187.762 444.657 186.459 439.485 185.752 435.13L181.758 410.82C181.268 406.43 180.079 402.146 178.235 398.131C176.183 394.249 172.536 390.92 168.209 390.477C163.882 390.033 159.181 393.25 159.029 397.674C159.173 399.502 159.441 401.318 159.833 403.11C160.013 404.94 159.514 407.076 157.892 407.867C156.269 408.657 154.3 407.742 152.774 406.688C147.546 403.068 143.539 397.937 139.739 392.82C135.939 387.703 132.181 382.406 127.258 378.315C122.335 374.224 116.164 371.381 109.813 372.116C103.461 372.851 97.5676 377.788 97.0406 384.167C96.5137 390.546 101.201 396.162 105.874 400.461C112.916 406.819 120.838 412.129 129.394 416.229C131.016 416.794 132.416 417.863 133.388 419.28C134.774 422.053 132.583 425.367 129.879 426.796C126.828 428.432 123.264 428.696 119.936 429.68C116.608 430.665 113.21 432.773 112.475 436.198C111.449 440.941 115.956 444.962 120.13 447.375C128.493 452.236 137.632 455.618 147.144 457.374C150.542 457.998 154.078 458.442 157.032 460.244C159.986 462.047 162.218 465.694 161.192 469.023C160.166 472.351 156.325 474.015 152.872 473.959C149.419 473.904 146.104 472.573 142.72 471.949C136.355 470.714 128.728 472.448 125.774 478.258C124.912 480.235 124.52 482.384 124.628 484.537C124.736 486.691 125.342 488.79 126.398 490.67C128.519 494.402 131.367 497.67 134.774 500.28C146.181 510.024 159.967 516.57 174.727 519.251C189.385 521.678 202.462 520.79 215.345 513.399" fill="#F6B5CC"/>
<path d="M102.338 367.108C102.487 367.241 102.65 367.357 102.823 367.455L104.307 368.384C105.625 369.188 107.552 370.395 109.993 372.003C116.918 376.525 123.492 381.564 129.657 387.077C133.568 390.544 137.714 394.524 142.138 398.893C146.562 403.261 151.124 407.948 155.811 413.065C160.731 418.392 165.36 423.98 169.679 429.803C171.912 432.84 174.006 436.058 176.127 439.344L182.576 449.329C190.835 461.973 198.377 475.071 205.166 488.56C210.679 499.585 215.141 511.104 218.493 522.966C220.733 530.971 222.273 539.156 223.097 547.428C223.36 550.354 223.527 552.643 223.582 554.196C223.582 554.931 223.652 555.513 223.679 555.957C223.665 556.155 223.665 556.355 223.679 556.553C223.7 556.355 223.7 556.155 223.679 555.957C223.679 555.513 223.679 554.931 223.679 554.182C223.679 552.629 223.555 550.341 223.347 547.401C222.638 539.09 221.176 530.86 218.978 522.813C215.691 510.888 211.265 499.306 205.762 488.228C198.984 474.713 191.432 461.6 183.144 448.955L176.696 438.97C174.56 435.697 172.453 432.452 170.192 429.401C165.88 423.53 161.236 417.909 156.283 412.566C151.582 407.435 146.922 402.748 142.54 398.421C138.158 394.094 133.984 390.101 130.059 386.648C123.833 381.159 117.183 376.17 110.173 371.726C107.691 370.159 105.736 368.953 104.39 368.245L102.879 367.386C102.706 367.279 102.525 367.186 102.338 367.108Z" fill="white"/>
<path d="M170.04 429.332C170.139 428.699 170.172 428.058 170.137 427.418C170.137 426.17 170.137 424.381 170.137 422.162C170.012 417.739 169.637 411.623 169.194 404.883C168.75 398.144 168.445 392.042 168.389 387.618C168.389 385.413 168.389 383.624 168.389 382.39C168.432 381.747 168.404 381.1 168.306 380.463C168.157 381.09 168.078 381.732 168.07 382.376C167.959 383.611 167.89 385.4 167.848 387.618C167.765 392.056 167.959 398.185 168.417 404.939C168.875 411.692 169.277 417.586 169.596 422.19C169.734 424.27 169.832 426.018 169.929 427.418C169.88 428.058 169.917 428.702 170.04 429.332Z" fill="white"/>
<path d="M112.392 428.445C113.152 428.479 113.913 428.442 114.666 428.334C116.053 428.209 118.23 428.029 120.837 427.89C126.052 427.571 133.318 427.377 141.223 427.516C149.127 427.654 156.394 428.098 161.608 428.569C164.201 428.791 166.309 429.027 167.765 429.18C168.517 429.302 169.278 429.353 170.04 429.332C169.311 429.107 168.564 428.949 167.807 428.861C166.42 428.611 164.257 428.292 161.664 428.001C156.449 427.377 149.183 426.836 141.237 426.697C134.417 426.551 127.595 426.755 120.796 427.308C118.189 427.529 116.081 427.793 114.639 428.015C113.878 428.087 113.126 428.231 112.392 428.445Z" fill="white"/>
<path d="M204.972 487.243C205.092 487.006 205.181 486.754 205.236 486.494C205.402 485.912 205.596 485.191 205.846 484.317C206.373 482.417 207.052 479.644 207.843 476.218C209.451 469.354 211.365 459.813 213.39 449.26C215.414 438.707 217.176 429.138 218.632 422.26C219.353 418.918 219.949 416.158 220.379 414.119C220.573 413.232 220.726 412.497 220.85 411.887C220.923 411.634 220.956 411.372 220.947 411.11C220.835 411.35 220.747 411.601 220.684 411.859C220.518 412.441 220.323 413.163 220.074 414.036C219.561 415.936 218.881 418.696 218.077 422.135C216.468 428.985 214.555 438.54 212.53 449.093C210.505 459.647 208.744 469.146 207.288 476.08C206.567 479.422 205.984 482.181 205.541 484.22L205.083 486.439C205.011 486.701 204.974 486.971 204.972 487.243Z" fill="white"/>
<path d="M126.662 476.08C126.918 476.169 127.183 476.229 127.452 476.26L129.726 476.607L138.047 477.827C145.133 478.853 154.896 480.392 165.685 482.098C176.474 483.804 186.265 485.26 193.42 486.134C196.97 486.577 199.841 486.91 201.838 487.09L204.112 487.174C204.379 487.213 204.65 487.213 204.917 487.174C204.661 487.085 204.395 487.024 204.126 486.993L201.852 486.647L193.531 485.426C186.445 484.4 176.682 482.861 165.893 481.155C155.104 479.449 145.314 477.993 138.158 477.106C134.594 476.676 131.723 476.343 129.726 476.149L127.466 476.08C127.199 476.041 126.928 476.041 126.662 476.08Z" fill="white"/>
<path d="M640.91 250.471C640.91 250.471 626.752 243.537 614.798 276.819C602.844 310.102 599.1 328.851 599.1 328.851C599.1 328.851 595.73 335.923 590.682 332.22C585.634 328.518 577.952 317.16 570.588 320.308C562.947 323.581 561.463 332.789 564.625 345.561C567.787 358.333 573.68 386.664 574.207 389.23C574.734 391.795 573.736 395.665 569.895 393.695C566.053 391.726 542.894 371.687 534.047 383.253C525.199 394.819 539.857 429.016 541.397 432.802C542.936 436.588 542.367 438.349 540.634 439.542C538.901 440.734 531.759 433.273 524.936 427.851C518.113 422.429 509.238 417.326 504.703 424.426C500.168 431.526 501.819 458.388 532.674 498.451L548.122 516.007L571.323 511.75C620.4 499.602 638.428 479.619 639.274 471.229C640.12 462.839 630.024 461.314 621.316 461.314C612.607 461.314 602.345 462.7 601.735 460.69C601.124 458.679 601.804 456.945 605.34 454.948C608.876 452.952 641.673 435.298 641.95 420.737C642.228 406.176 611.622 407.438 607.392 406.592C603.163 405.746 604.827 402.071 606.796 400.421C608.765 398.771 631.037 380.258 641.465 372.201C651.894 364.144 656.456 356.045 652.559 348.737C648.759 341.678 635.668 345.769 629.428 345.533C623.188 345.297 624.935 337.656 624.935 337.656C624.935 337.656 633.699 320.641 645.043 287.165C656.387 253.688 640.564 250.346 640.564 250.346" fill="#93C1F9"/>
<path d="M630.149 280.231C630.149 280.231 630.149 280.48 629.941 280.938C629.733 281.396 629.567 282.131 629.275 283.018C628.679 284.849 627.792 287.525 626.655 290.95C624.38 297.884 620.997 307.772 616.781 320.072C608.349 344.618 596.409 378.427 583.124 415.759C569.839 453.09 557.83 486.775 549.26 511.279C545.002 523.51 541.549 533.467 539.164 540.303L536.39 548.194C536.071 549.068 535.836 549.747 535.655 550.233C535.475 550.718 535.392 550.926 535.392 550.926C535.392 550.926 535.392 550.676 535.586 550.219C535.78 549.761 535.974 549.026 536.252 548.139C536.862 546.294 537.749 543.632 538.873 540.206C541.161 533.273 544.531 523.385 548.76 511.084C557.192 486.539 569.118 452.73 582.417 415.398C595.716 378.067 607.725 344.327 616.282 319.823C620.539 307.591 623.978 297.635 626.377 290.798C627.57 287.4 628.485 284.738 629.151 282.907C629.47 282.033 629.719 281.354 629.886 280.869C630.052 280.383 630.149 280.231 630.149 280.231Z" fill="white"/>
<path d="M580.711 336.561C581.04 337.022 581.306 337.526 581.502 338.058C581.973 339.043 582.611 340.499 583.374 342.219C584.899 345.81 586.882 350.816 588.921 356.391L594.218 370.675C594.856 372.38 595.411 373.823 595.841 374.988C596.078 375.503 596.259 376.042 596.381 376.596C596.061 376.127 595.791 375.625 595.577 375.099C595.12 374.114 594.482 372.658 593.733 370.855C592.235 367.249 590.321 362.216 588.186 356.641C586.05 351.066 584.234 346.199 582.791 342.413L581.141 338.1C580.951 337.601 580.807 337.086 580.711 336.561Z" fill="white"/>
<path d="M598.628 376.805C598.545 376.624 608.696 372.076 621.302 366.653C633.907 361.231 644.183 356.946 644.266 357.182C644.35 357.418 634.199 361.911 621.593 367.333C608.987 372.755 598.711 376.985 598.628 376.805Z" fill="white"/>
<path d="M575.622 433.162C576.179 433.009 576.751 432.912 577.328 432.871L582.015 432.289C585.953 431.803 591.403 431.096 597.38 430.098C603.357 429.099 608.751 428.045 612.634 427.227L617.252 426.27C617.811 426.123 618.382 426.031 618.958 425.993C618.438 426.245 617.888 426.432 617.322 426.548C616.24 426.853 614.687 427.269 612.745 427.726C608.876 428.669 603.496 429.834 597.491 430.819C591.486 431.803 586.023 432.441 582.043 432.802C580.059 432.982 578.451 433.107 577.341 433.149C576.771 433.218 576.194 433.223 575.622 433.162Z" fill="white"/>
<path d="M551.409 400.324C551.811 400.682 552.173 401.082 552.491 401.516L555.264 404.914C557.539 407.812 559.743 412.985 564.029 416.299C567.412 420.778 570.449 424.856 572.613 427.823L575.15 431.373C575.49 431.797 575.775 432.263 575.996 432.76C575.597 432.403 575.239 432.003 574.928 431.567C574.18 430.638 573.278 429.501 572.155 428.17C569.881 425.272 566.788 421.236 563.404 416.771C560.021 412.305 556.97 408.228 554.807 405.261L552.283 401.683C551.938 401.266 551.645 400.81 551.409 400.324Z" fill="white"/>
<path d="M524.783 447.501C525.286 447.976 525.75 448.491 526.17 449.041L529.678 453.381C532.605 457.07 536.612 462.201 541.022 467.887C545.432 473.572 549.343 478.759 552.186 482.531L555.514 487.024C555.942 487.558 556.322 488.129 556.651 488.73C556.138 488.264 555.674 487.748 555.264 487.19L551.756 482.905C548.816 479.216 544.822 474.085 540.412 468.386C536.002 462.686 532.091 457.527 529.235 453.755L525.934 449.207C525.495 448.678 525.109 448.107 524.783 447.501Z" fill="white"/>
<path d="M557.138 488.523C557.843 488.328 558.561 488.185 559.287 488.093L565.195 487.15C570.173 486.346 577.052 485.209 584.61 483.739C592.167 482.269 598.976 480.785 603.899 479.662L609.738 478.345C610.44 478.144 611.16 478.009 611.887 477.942C611.211 478.218 610.515 478.445 609.807 478.622C608.42 479.01 606.465 479.551 604.024 480.161C599.129 481.409 592.32 483.004 584.748 484.46C577.176 485.916 570.284 486.984 565.334 487.663C562.824 487.996 560.799 488.232 559.384 488.385C558.642 488.503 557.889 488.549 557.138 488.523Z" fill="white"/>
<path d="M726.732 548.51C726.732 548.76 564.208 548.944 363.758 548.944C163.308 548.944 0.75 548.777 0.75 548.51C0.75 548.243 163.258 548.076 363.775 548.076C564.292 548.076 726.732 548.293 726.732 548.51Z" fill="white"/>
<path d="M307.282 521.895L305.128 534.169L306.948 534.57C315.098 536.24 348.481 542.77 354.226 541.951C360.639 541.033 336.224 531.43 336.224 531.43L336.992 526.237L307.282 521.895Z" fill="#FF9C07"/>
<g opacity="0.5">
<path opacity="0.5" d="M315.95 535.538C315.901 532.958 314.895 530.488 313.128 528.608C311.398 526.713 309.007 525.553 306.447 525.368L305.145 533.718L315.95 535.538Z" fill="white"/>
</g>
<g opacity="0.5">
<path opacity="0.5" d="M348.031 536.557C348.031 536.557 356.497 540.498 355.178 541.784C353.859 543.07 319.858 537.81 305.078 534.169L305.228 533.518L344.807 539.997C344.807 539.997 346.361 536.373 348.031 536.557Z" fill="white"/>
</g>
<path d="M304.811 533.417C304.971 533.485 305.139 533.53 305.312 533.551L306.765 533.868L312.142 534.937C316.685 535.822 322.981 536.941 329.944 538.027C336.908 539.112 343.304 539.947 347.864 540.498L353.308 541.116L354.794 541.266H355.312L354.794 541.166L353.324 540.966L347.897 540.231C343.304 539.613 336.975 538.728 330.011 537.643C323.047 536.557 316.651 535.472 312.192 534.67L306.798 533.718L305.329 533.468L304.811 533.417Z" fill="#263238"/>
<path d="M344.774 540.448C345.159 539.593 345.635 538.781 346.194 538.027C346.842 537.352 347.565 536.752 348.348 536.24C347.37 536.435 346.5 536.989 345.91 537.793C345.225 538.513 344.822 539.456 344.774 540.448Z" fill="#263238"/>
<path d="M336.691 534.637C336.691 534.637 337.259 534.253 337.81 533.635C338.361 533.017 338.712 532.466 338.645 532.399C338.578 532.332 338.061 532.783 337.526 533.401C336.992 534.019 336.608 534.57 336.691 534.637Z" fill="#263238"/>
<path d="M334.47 532.983C334.47 532.983 335.055 532.833 335.639 532.449C336.224 532.065 336.641 531.698 336.591 531.614C336.541 531.531 336.023 531.764 335.439 532.148C334.854 532.533 334.42 532.9 334.47 532.983Z" fill="#263238"/>
<path d="M333.167 527.873C333.631 528.299 334.214 528.573 334.837 528.658C335.435 528.848 336.077 528.848 336.674 528.658C336.129 528.482 335.571 528.348 335.004 528.257C334.404 528.077 333.79 527.949 333.167 527.873Z" fill="#263238"/>
<path d="M338.094 532.198C338.716 532.392 339.363 532.488 340.014 532.482C340.718 532.499 341.422 532.454 342.119 532.349C342.54 532.292 342.954 532.192 343.354 532.048C343.601 531.952 343.804 531.767 343.922 531.53C343.976 531.393 343.989 531.242 343.96 531.097C343.93 530.951 343.859 530.818 343.755 530.712C343.081 530.243 342.265 530.022 341.447 530.086C340.628 530.149 339.856 530.495 339.263 531.063C338.907 531.398 338.623 531.801 338.428 532.249C338.311 532.566 338.278 532.75 338.311 532.766C338.591 532.203 338.97 531.694 339.43 531.263C339.943 530.831 340.569 530.552 341.234 530.462C341.624 530.389 342.025 530.395 342.412 530.481C342.8 530.568 343.166 530.731 343.488 530.963C343.755 531.23 343.488 531.581 343.204 531.714C342.838 531.857 342.457 531.958 342.069 532.015C341.391 532.139 340.704 532.206 340.014 532.215C338.845 532.198 338.111 532.198 338.094 532.198Z" fill="#263238"/>
<path d="M338.578 532.366C338.578 532.366 338.962 531.948 339.013 531.08C339.028 530.566 338.919 530.056 338.695 529.593C338.579 529.285 338.387 529.011 338.135 528.797C337.884 528.584 337.582 528.438 337.259 528.374C337.16 528.379 337.063 528.402 336.974 528.444C336.884 528.486 336.804 528.545 336.737 528.618C336.67 528.691 336.619 528.776 336.585 528.869C336.551 528.962 336.536 529.06 336.541 529.159C336.537 529.475 336.6 529.788 336.725 530.078C336.911 530.534 337.152 530.966 337.443 531.364C337.96 532.048 338.395 532.349 338.428 532.316C338.461 532.282 338.094 531.915 337.66 531.23C337.411 530.823 337.204 530.392 337.042 529.944C336.842 529.51 336.775 528.758 337.259 528.742C337.743 528.725 338.161 529.326 338.395 529.744C338.603 530.16 338.723 530.615 338.745 531.08C338.732 531.513 338.676 531.944 338.578 532.366Z" fill="#263238"/>
<path d="M306.681 525.368C306.681 525.368 307.533 525.368 308.869 525.786C310.588 526.264 312.142 527.206 313.361 528.508C314.553 529.837 315.361 531.465 315.699 533.217C315.95 534.553 315.866 535.422 315.933 535.422C315.998 535.228 316.032 535.025 316.033 534.821C316.058 534.263 316.03 533.703 315.95 533.151C315.682 531.32 314.873 529.61 313.628 528.241C312.359 526.892 310.722 525.945 308.919 525.519C308.371 525.393 307.811 525.325 307.249 525.318C307.058 525.302 306.866 525.319 306.681 525.368Z" fill="#263238"/>
<path d="M320.141 533.284C321.517 533.823 322.952 534.193 324.417 534.386C325.866 534.687 327.348 534.794 328.825 534.704C328.825 534.603 326.872 534.42 324.483 534.019C322.095 533.618 320.175 533.184 320.141 533.284Z" fill="#263238"/>
<path d="M314.313 532.365C314.23 532.365 314.413 532.8 314.53 533.284C314.647 533.768 314.714 534.169 314.814 534.186C314.914 534.202 315.048 533.735 314.814 533.184C314.58 532.633 314.38 532.299 314.313 532.365Z" fill="#263238"/>
<path d="M312.543 529.293C312.543 529.293 312.543 529.693 312.86 530.044C313.178 530.395 313.395 530.645 313.478 530.595C313.562 530.545 313.478 530.194 313.161 529.827C312.844 529.46 312.626 529.226 312.543 529.293Z" fill="#263238"/>
<path d="M309.62 527.556C309.62 527.656 310.021 527.706 310.439 527.94C310.856 528.174 311.123 528.441 311.207 528.391C311.29 528.341 311.207 527.873 310.606 527.606C310.005 527.339 309.62 527.456 309.62 527.556Z" fill="#263238"/>
<path d="M307.433 526.621C307.433 526.621 307.533 526.888 307.767 527.022C308.001 527.155 308.234 527.189 308.285 527.105C308.335 527.022 308.184 526.838 307.951 526.704C307.717 526.571 307.483 526.521 307.433 526.621Z" fill="#263238"/>
<path d="M463.928 532.382L465.047 544.807L466.918 544.724C475.268 544.256 509.135 541.784 514.479 539.496C520.425 536.941 494.439 534.052 494.439 534.052L493.821 528.842L463.928 532.382Z" fill="#FF9C07"/>
<g opacity="0.5">
<path opacity="0.5" d="M475.869 543.371C475.148 540.893 473.536 538.769 471.343 537.409C469.188 536.05 466.602 535.549 464.096 536.006L465.031 544.356L475.869 543.371Z" fill="white"/>
</g>
<g opacity="0.5">
<path opacity="0.5" d="M507.148 535.906C507.148 535.906 516.35 537.476 515.398 539.079C514.446 540.682 480.328 544.456 465.047 544.807V544.139L505.01 540.047C505.01 540.047 505.411 536.173 507.148 535.906Z" fill="white"/>
</g>
<path d="M464.547 544.172H465.064L466.551 544.089L472.028 543.722C476.637 543.371 483 542.82 490.031 542.052C497.061 541.283 503.391 540.382 507.967 539.764L513.361 538.879L514.83 538.628C514.999 538.605 515.166 538.572 515.331 538.528H514.813L513.361 538.879L507.916 539.597C503.341 540.198 496.995 540.999 489.981 541.768C482.967 542.536 476.621 543.137 471.995 543.555L466.601 543.889L465.114 544.022L464.547 544.172Z" fill="#263238"/>
<path d="M505.011 540.548C505.141 539.621 505.382 538.713 505.729 537.843C506.199 537.021 506.759 536.253 507.399 535.555C506.51 536.008 505.816 536.768 505.445 537.693C504.941 538.554 504.785 539.576 505.011 540.548Z" fill="#263238"/>
<path d="M495.642 537.025C495.725 537.025 496.093 536.507 496.46 535.756C496.725 535.33 496.89 534.851 496.944 534.353C496.944 534.353 496.494 534.871 496.126 535.605C495.759 536.34 495.542 536.975 495.642 537.025Z" fill="#263238"/>
<path d="M493.07 536.006C493.154 536.006 493.588 535.705 494.055 535.188C494.523 534.67 494.823 534.186 494.757 534.119C494.69 534.052 494.239 534.42 493.771 534.937C493.304 535.455 493.003 535.939 493.07 536.006Z" fill="#263238"/>
<path d="M491.233 533.351C491.754 533.478 492.298 533.478 492.819 533.351C493.35 533.358 493.876 533.244 494.356 533.017C493.808 532.876 493.234 532.876 492.686 533.017C492.183 533.022 491.688 533.136 491.233 533.351Z" fill="#263238"/>
<path d="M490.481 531.414C491.036 531.702 491.666 531.813 492.285 531.731C492.908 531.773 493.528 531.615 494.055 531.28C493.458 531.255 492.86 531.283 492.268 531.364C491.672 531.325 491.074 531.342 490.481 531.414Z" fill="#263238"/>
<path d="M496.36 534.286C497.008 534.33 497.659 534.257 498.28 534.069C498.97 533.908 499.641 533.679 500.284 533.384C500.679 533.226 501.054 533.025 501.403 532.783C501.619 532.626 501.768 532.393 501.821 532.132C501.831 531.983 501.801 531.835 501.733 531.703C501.665 531.57 501.563 531.459 501.437 531.38C500.663 531.108 499.818 531.111 499.046 531.387C498.274 531.664 497.62 532.198 497.195 532.9C496.932 533.308 496.766 533.77 496.711 534.253C496.668 534.428 496.668 534.611 496.711 534.787C496.849 534.195 497.086 533.63 497.412 533.117C497.781 532.556 498.311 532.12 498.932 531.864C499.29 531.696 499.678 531.6 500.074 531.583C500.47 531.566 500.865 531.628 501.236 531.764C501.57 531.948 501.487 532.332 501.236 532.566C500.918 532.796 500.577 532.992 500.218 533.15C499.592 533.446 498.944 533.692 498.28 533.885C497.095 534.152 496.36 534.236 496.36 534.286Z" fill="#263238"/>
<path d="M496.878 534.336C497.044 533.895 497.044 533.408 496.878 532.967C496.77 532.469 496.534 532.009 496.193 531.631C496.007 531.365 495.756 531.151 495.463 531.011C495.17 530.87 494.847 530.808 494.523 530.829C494.334 530.894 494.177 531.029 494.084 531.206C493.991 531.383 493.968 531.588 494.022 531.781C494.108 532.081 494.256 532.36 494.456 532.599C494.754 532.999 495.102 533.358 495.491 533.668C495.829 533.976 496.236 534.2 496.677 534.319C496.677 534.319 496.26 534.019 495.658 533.468C495.31 533.145 494.997 532.787 494.723 532.399C494.406 532.031 494.155 531.313 494.623 531.18C495.091 531.046 495.642 531.497 495.976 531.848C496.286 532.19 496.519 532.594 496.66 533.033C496.77 533.461 496.842 533.896 496.878 534.336Z" fill="#263238"/>
<path d="M464.246 535.906C464.246 535.906 465.098 535.739 466.467 535.739C468.252 535.736 470.002 536.24 471.513 537.192C473.023 538.144 474.233 539.505 475.001 541.116C475.602 542.352 475.735 543.221 475.802 543.204C475.869 543.187 475.802 542.97 475.802 542.586C475.697 542.045 475.529 541.518 475.301 541.016C474.57 539.317 473.341 537.878 471.775 536.892C470.21 535.905 468.383 535.416 466.534 535.489C465.97 535.494 465.41 535.567 464.864 535.706C464.649 535.741 464.441 535.809 464.246 535.906Z" fill="#263238"/>
<path d="M479.309 540.031C480.779 540.216 482.265 540.216 483.735 540.031C485.211 539.931 486.669 539.651 488.077 539.196C488.077 539.079 486.106 539.43 483.701 539.663C481.297 539.897 479.309 539.914 479.309 540.031Z" fill="#263238"/>
<path d="M473.448 540.665C473.448 540.749 473.648 541.066 473.898 541.484C474.149 541.901 474.299 542.302 474.416 542.285C474.533 542.269 474.516 541.801 474.216 541.3C473.915 540.799 473.498 540.548 473.448 540.665Z" fill="#263238"/>
<path d="M470.926 538.16C470.926 538.244 471.093 538.528 471.443 538.812C471.794 539.096 472.112 539.246 472.178 539.179C472.245 539.112 472.011 538.812 471.677 538.528C471.343 538.244 470.993 538.077 470.926 538.16Z" fill="#263238"/>
<path d="M467.636 537.208C467.636 537.309 468.054 537.208 468.521 537.359C468.989 537.509 469.323 537.676 469.39 537.593C469.456 537.509 469.156 537.125 468.588 537.008C468.02 536.891 467.586 537.208 467.636 537.208Z" fill="#263238"/>
<path d="M465.315 536.908C465.315 537.008 465.482 537.142 465.732 537.208C465.983 537.275 466.216 537.208 466.25 537.208C466.283 537.208 466.083 536.975 465.832 536.908C465.582 536.841 465.331 536.808 465.315 536.908Z" fill="#263238"/>
<path d="M472.646 61.2586C470.258 48.4831 456.146 41.3856 450.635 29.5286C448.481 24.9528 447.713 19.7925 445.358 15.3169C442.67 10.5959 438.389 6.98631 433.282 5.13493C428.174 3.28355 422.575 3.31137 417.486 5.21342L416.601 6.5828C422.312 18.5734 428.007 26.8065 433.702 38.7804C435.916 42.8751 437.45 47.3027 438.244 51.8899C438.762 56.5158 437.526 61.5926 433.952 64.5652C431.08 66.9366 427.272 67.6547 424.099 69.7255C421.821 71.433 420.037 73.7152 418.931 76.3386C417.825 78.9619 417.436 81.8321 417.803 84.6553C418.625 90.3262 421.227 95.5894 425.235 99.6853C428.909 103.71 434.72 107.15 439.563 104.695C442.018 103.426 443.538 100.955 445.341 98.8671C449.049 94.6085 454.159 91.9032 458.701 88.5631C467.419 82.2338 474.633 71.8965 472.646 61.2586Z" fill="#263238"/>
<path d="M595.458 120.644C592.251 123.566 574.8 138.229 574.8 138.229L557.482 122.464C557.933 121.178 562.175 113.897 562.659 112.077C563.086 110.506 563.233 108.872 563.093 107.25C563.01 105.229 562.651 103.229 562.024 101.305C561.256 99.6351 562.96 97.8649 564.429 98.6999C565.899 99.5349 568.103 104.177 568.036 110.156C567.97 116.135 591.416 102.407 594.756 105.764L595.458 120.644Z" fill="#FFBE9D"/>
<path d="M446.561 97.1135L504.009 165.867L556.781 118.172L579.793 140.617C579.793 140.617 513.578 213.479 503.474 212.961C493.371 212.444 459.052 189.748 459.052 189.748L446.561 97.1135Z" fill="#FF9C07"/>
<path d="M576.971 86.8763C576.743 86.8 576.494 86.8148 576.276 86.9174C576.058 87.0201 575.888 87.2027 575.802 87.4274L560.121 126.806C559.978 127.159 559.977 127.554 560.116 127.908C560.256 128.262 560.527 128.549 560.872 128.71L579.409 137.561C579.592 137.647 579.79 137.695 579.991 137.702C580.193 137.71 580.394 137.677 580.582 137.605C580.771 137.534 580.943 137.425 581.089 137.285C581.234 137.146 581.35 136.978 581.43 136.793L598.981 95.9778C599.062 95.7888 599.102 95.5854 599.1 95.3801C599.099 95.1749 599.055 94.9721 598.972 94.7843C598.889 94.5966 598.769 94.4278 598.618 94.2884C598.468 94.149 598.29 94.0419 598.096 93.9738L576.971 86.8763Z" fill="#263238"/>
<path d="M576.47 89.7153L562.108 124.852L581.53 133.653L596.243 96.3953L576.47 89.7153Z" fill="#F5F5F5"/>
<path d="M570.875 150.854C569.421 150.026 568.051 149.058 566.784 147.965C564.362 146.045 561.123 143.272 557.733 139.982C554.342 136.693 551.503 133.503 549.516 131.131C548.382 129.91 547.38 128.572 546.527 127.14C547.759 128.257 548.914 129.457 549.984 130.731C552.071 132.985 554.994 136.075 558.334 139.348C561.674 142.621 564.847 145.46 567.168 147.481C568.48 148.518 569.719 149.646 570.875 150.854Z" fill="#263238"/>
<path d="M554.359 124.886C554.476 124.986 553.758 125.554 553.841 126.773C553.862 127.094 553.949 127.408 554.095 127.695C554.242 127.983 554.445 128.237 554.693 128.443C555.025 128.655 555.409 128.773 555.803 128.784C556.198 128.795 556.587 128.698 556.931 128.504C557.274 128.31 557.558 128.026 557.752 127.683C557.947 127.34 558.044 126.95 558.033 126.556C557.986 126.219 557.868 125.896 557.686 125.608C557.505 125.32 557.264 125.074 556.981 124.886C556.4 124.557 555.744 124.384 555.077 124.385C555.077 124.385 555.227 124.184 555.628 124.101C556.197 123.981 556.79 124.07 557.298 124.351C557.692 124.548 558.035 124.832 558.302 125.183C558.568 125.533 558.75 125.94 558.835 126.372C558.887 126.924 558.78 127.479 558.525 127.972C558.27 128.465 557.879 128.874 557.399 129.15C556.918 129.426 556.368 129.559 555.814 129.531C555.26 129.503 554.726 129.317 554.275 128.994C553.94 128.708 553.676 128.348 553.505 127.942C553.334 127.536 553.261 127.095 553.29 126.656C553.308 126.077 553.527 125.522 553.908 125.086C554.108 124.919 554.342 124.852 554.359 124.886Z" fill="#263238"/>
<path d="M501.771 185.957C501.309 185.02 501.021 184.008 500.919 182.968C500.106 178.004 500.684 172.911 502.589 168.255C502.915 167.262 503.425 166.338 504.092 165.533C502.977 168.796 502.144 172.148 501.604 175.553C501.362 179.02 501.418 182.5 501.771 185.957Z" fill="#263238"/>
<path d="M510.021 185.423C509.251 184.686 508.623 183.814 508.167 182.851C505.595 178.388 504.14 173.369 503.925 168.222C503.799 167.162 503.861 166.088 504.109 165.049C504.523 168.586 505.153 172.094 505.996 175.553C507.13 178.924 508.474 182.22 510.021 185.423Z" fill="#263238"/>
<path d="M576.804 96.2617L567.302 119.892L581.53 125.72L591.45 101.572L576.804 96.2617Z" fill="#EBEBEB"/>
<path d="M580.797 119.56L572.384 116.044C571.762 115.784 571.048 116.078 570.789 116.699L570.628 117.084C570.368 117.705 570.661 118.419 571.282 118.679L579.696 122.195C580.317 122.454 581.031 122.161 581.291 121.54L581.451 121.155C581.711 120.534 581.418 119.819 580.797 119.56Z" fill="#FF9C07"/>
<path d="M588.409 104.099L577.86 100.127L577.283 101.659L587.833 105.631L588.409 104.099Z" fill="#455A64"/>
<path d="M586.968 109.426L575.309 105.037L574.173 108.053L585.833 112.442L586.968 109.426Z" fill="#E0E0E0"/>
<path d="M585.036 114.261L573.376 109.872L572.241 112.888L583.9 117.278L585.036 114.261Z" fill="#E0E0E0"/>
<path d="M594.84 105.764C592.151 106.198 588.878 106.466 586.189 106.916C585.42 106.985 584.677 107.231 584.018 107.635C583.708 107.864 583.487 108.195 583.392 108.569C583.298 108.944 583.336 109.339 583.501 109.689C583.918 110.44 584.987 110.507 585.855 110.49L591.784 110.29C589.254 110.404 586.747 110.825 584.319 111.542C583.217 111.91 581.981 112.661 581.948 113.83C581.996 114.337 582.219 114.81 582.578 115.17C582.938 115.53 583.412 115.753 583.918 115.801C584.952 115.866 585.99 115.866 587.024 115.801C587.024 115.801 591.082 115.801 591.249 116.402C588.728 116.402 585.371 116.92 582.899 117.154C582.198 117.154 581.881 118.156 581.714 118.824C581.624 119.158 581.647 119.514 581.78 119.834C581.913 120.154 582.148 120.421 582.449 120.594C582.771 120.702 583.113 120.736 583.451 120.694L593.27 120.393" fill="#FFBE9D"/>
<path d="M426.253 92.9885C426.253 92.9885 438.194 91.5857 446.577 97.0967C454.142 102.107 480.695 178.159 479.66 200.737C478.625 223.315 481.514 263.128 486.156 279.528C490.799 295.927 494.306 438.178 457.766 505.946L389.714 496.394L410.99 313.646L408.819 147.865L426.253 92.9885Z" fill="#FF9C07"/>
<g opacity="0.3">
<path opacity="0.3" d="M422.329 92.9885C422.329 92.9885 434.286 91.5857 442.669 97.0967C450.234 102.107 476.771 178.159 475.752 200.737C474.733 223.315 477.589 263.128 482.248 279.528C486.908 295.927 490.398 438.178 453.858 505.946L391.651 496.394L407.082 313.646L404.81 147.881L422.329 92.9885Z" fill="black"/>
</g>
<path d="M397.312 89.4983C397.312 89.4983 359.888 85.4736 369.891 138.964L379.51 195.243L440.615 232.217C448.865 234.438 441.851 193.807 454.276 175.002C458.935 167.972 459.286 162.711 458.935 159.471C460.121 147.197 450.285 139.548 448.915 127.14C447.379 109.171 447.446 99.2177 439.63 97.197L397.346 89.4983" fill="#455A64"/>
<path d="M449.6 122.865C448.96 125.453 448.96 128.159 449.6 130.747C450.343 133.548 451.467 136.234 452.94 138.73C454.78 141.819 456.377 145.046 457.716 148.382C459.889 154.649 459.977 161.45 457.967 167.771C457.372 169.659 456.577 171.479 455.595 173.199C455.258 173.848 454.843 174.453 454.359 175.002C455.562 172.615 456.573 170.135 457.382 167.587C459.157 161.384 458.988 154.787 456.898 148.683C455.573 145.387 454.016 142.189 452.238 139.114C450.785 136.539 449.716 133.765 449.065 130.881C448.633 128.926 448.599 126.904 448.965 124.936C449.068 124.4 449.219 123.874 449.416 123.366C449.483 123.048 449.566 122.848 449.6 122.865Z" fill="#263238"/>
<path d="M430.862 93.3561C429.977 84.1544 429.192 74.4517 429.192 74.4517C429.192 74.4517 440.882 71.3121 441.784 55.5974C442.669 40.5674 438.144 14.5154 438.144 14.5154V13.1961C420.392 7.91888 399.383 8.18609 388.561 22.9823L396.911 97.6313C397.897 106.299 406.113 112.377 415.382 111.258C424.851 110.14 431.697 102.124 430.862 93.3561Z" fill="#FFBE9D"/>
<path d="M438.21 23.4697C438.264 23.9787 438.121 24.4888 437.81 24.8956C437.5 25.3024 437.046 25.5749 436.54 25.6574C436.29 25.7027 436.033 25.6974 435.785 25.6417C435.537 25.586 435.302 25.4811 435.095 25.3332C434.888 25.1853 434.713 24.9974 434.579 24.7806C434.446 24.5638 434.358 24.3225 434.319 24.0709C434.266 23.562 434.409 23.0518 434.719 22.645C435.03 22.2383 435.484 21.9657 435.989 21.8832C436.24 21.8379 436.497 21.8432 436.745 21.8989C436.993 21.9546 437.228 22.0595 437.435 22.2074C437.642 22.3553 437.817 22.5432 437.951 22.76C438.084 22.9769 438.172 23.2182 438.21 23.4697Z" fill="#263238"/>
<path d="M438.21 21.2819C437.977 21.5658 436.373 20.6139 434.236 20.8143C432.098 21.0147 430.645 22.2672 430.378 22.0167C430.111 21.7662 430.378 21.4322 431.096 20.8644C431.957 20.1294 433.025 19.6801 434.152 19.5785C435.263 19.4645 436.381 19.7103 437.342 20.2799C437.993 20.7141 438.21 21.1984 438.21 21.2819Z" fill="#263238"/>
<path d="M415.966 26.3589C416.02 26.8679 415.877 27.378 415.566 27.7848C415.256 28.1916 414.801 28.4641 414.296 28.5466C414.04 28.5915 413.776 28.5833 413.523 28.5225C413.27 28.4617 413.032 28.3495 412.824 28.193C412.615 28.0365 412.442 27.8389 412.313 27.6125C412.184 27.386 412.103 27.1356 412.075 26.8766C412.021 26.3677 412.165 25.8575 412.475 25.4508C412.786 25.044 413.24 24.7714 413.745 24.6889C414.002 24.644 414.265 24.6522 414.518 24.713C414.771 24.7738 415.009 24.886 415.218 25.0425C415.426 25.1991 415.6 25.3967 415.728 25.6231C415.857 25.8495 415.938 26.1 415.966 26.3589Z" fill="#263238"/>
<path d="M415.949 24.2547C415.732 24.5386 414.112 23.57 411.992 23.7871C409.871 24.0042 408.401 25.2233 408.134 24.9895C407.867 24.7557 408.217 24.3883 408.852 23.8205C409.715 23.0915 410.783 22.6481 411.908 22.5513C413.017 22.4345 414.134 22.6744 415.098 23.236C415.799 23.6869 416.066 24.1211 415.949 24.2547Z" fill="#263238"/>
<path d="M425.268 39.3181C426.338 38.8659 427.46 38.5462 428.608 38.3662C429.142 38.2493 429.643 38.0823 429.693 37.7149C429.698 37.1438 429.517 36.5867 429.176 36.1284L427.155 32.1371C425.318 28.764 423.749 25.2517 422.462 21.6328C424.576 24.8451 426.425 28.2241 427.99 31.7363L429.944 35.761C430.354 36.3815 430.531 37.1267 430.445 37.8652C430.386 38.0659 430.282 38.2504 430.14 38.4039C429.998 38.5575 429.822 38.6761 429.627 38.7503C429.333 38.8685 429.024 38.9417 428.708 38.9674C427.582 39.2374 426.425 39.3554 425.268 39.3181Z" fill="#263238"/>
<path d="M429.226 64.4515C421.953 65.2735 414.595 64.0655 407.967 60.9612C407.967 60.9612 414.029 71.0814 429.376 68.1088L429.226 64.4515Z" fill="#EB996E"/>
<path d="M424.85 44.5786C424.394 44.1072 423.824 43.76 423.196 43.5701C422.568 43.3801 421.901 43.3537 421.26 43.4931C420.792 43.5793 420.346 43.76 419.95 44.0242C419.553 44.2883 419.215 44.6304 418.955 45.0295C418.695 45.4045 418.555 45.8503 418.555 46.3071C418.555 46.7638 418.695 47.2096 418.955 47.5846C419.338 47.9321 419.815 48.1586 420.326 48.2359C420.837 48.3132 421.359 48.2376 421.828 48.0188C422.803 47.5612 423.677 46.914 424.4 46.115C424.623 45.9223 424.81 45.6902 424.951 45.4303C425.016 45.3031 425.043 45.1594 425.029 45.017C425.014 44.8746 424.958 44.7397 424.867 44.6287" fill="#FF9C07"/>
<path d="M419.122 41.4224C419.473 41.4224 419.707 43.6769 421.844 45.1297C423.982 46.5826 426.437 46.0816 426.487 46.3989C426.537 46.7162 425.986 46.9166 424.934 47.0335C423.58 47.1979 422.211 46.8721 421.076 46.115C419.99 45.3783 419.226 44.2557 418.939 42.9754C418.755 42.0235 418.972 41.4224 419.122 41.4224Z" fill="#263238"/>
<path d="M357.566 303.692L333.836 401.488C333.836 401.488 305.546 518.588 304.611 521.677L303.725 525.318L343.588 528.324L412.66 311.107L357.566 303.692Z" fill="#263238"/>
<path d="M429.326 372.346C435.772 403.525 459.386 534.336 459.386 534.336L499.817 530.178L476.821 363.328C476.455 358.974 475.569 354.68 474.182 350.536L436.39 237.226L365.315 192.02C364.614 192.02 353.809 221.228 355.295 241.468C356.079 250.524 359.229 259.214 364.43 266.669C368.956 273.265 375.251 282.467 376.654 284.604C378.909 288.011 429.326 372.346 429.326 372.346Z" fill="#263238"/>
<path d="M348.481 231.298C346.544 238.345 344.924 245.476 343.672 252.674C339.129 278.876 327.573 342.637 320.075 359.554C310.572 380.93 295.142 461.674 299.884 476.454C304.627 491.233 407.95 506.147 407.95 506.147C407.95 506.147 413.879 409.37 419.824 385.038C425.769 360.706 438.194 307.25 439.997 275.787C441.801 244.324 441.183 189.698 431.096 155.864C421.01 122.03 397.797 86.4756 397.797 86.4756C397.797 86.4756 377.957 91.9532 371.193 99.8356C371.193 99.8356 362.944 109.956 362.843 119.592C362.743 129.228 358.268 175.036 355.278 201.655C354.343 209.254 350.986 222.263 348.481 231.298Z" fill="#FF9C07"/>
<path d="M440.098 274.183C440.07 274.023 440.07 273.859 440.098 273.699C440.098 273.332 440.098 272.864 440.098 272.28C440.098 270.977 439.947 269.157 439.83 266.835C439.575 260.124 438.933 253.433 437.91 246.795C437.166 242.229 435.952 237.752 434.286 233.435C432.346 228.521 429.659 223.936 426.32 219.842C422.897 215.45 418.838 211.191 414.897 206.482C412.867 204.111 410.976 201.624 409.236 199.033C407.454 196.341 405.98 193.456 404.844 190.433C402.348 184.476 401.982 177.841 403.809 171.645C404.938 168.841 406.402 166.184 408.167 163.73C408.899 162.533 409.461 161.24 409.837 159.889C410.003 159.24 410.054 158.567 409.988 157.901C409.912 157.261 409.683 156.648 409.32 156.114C408.556 155.049 407.465 154.263 406.213 153.877C404.961 153.409 403.642 153.058 402.389 152.474C401.126 151.913 400.045 151.01 399.266 149.869C398.563 148.747 398.108 147.489 397.93 146.178C397.629 143.75 397.691 141.29 398.114 138.88C398.448 136.592 398.765 134.388 399.066 132.3C400.302 123.95 401.287 117.17 401.988 112.427C402.356 110.123 402.623 108.319 402.823 107.016L403.074 105.63C403.097 105.467 403.131 105.305 403.174 105.146C403.2 105.306 403.2 105.47 403.174 105.63C403.174 105.998 403.174 106.465 403.024 107.05C402.857 108.352 402.64 110.156 402.339 112.461C401.704 117.237 400.803 124.017 399.7 132.384C399.416 134.488 399.116 136.692 398.799 138.98C398.405 141.321 398.354 143.706 398.648 146.061C398.828 147.25 399.254 148.387 399.901 149.401C400.603 150.436 401.589 151.248 402.74 151.739C403.892 152.273 405.195 152.607 406.514 153.092C407.928 153.534 409.159 154.425 410.021 155.63C410.441 156.268 410.709 156.993 410.806 157.751C410.885 158.512 410.828 159.281 410.639 160.022C410.246 161.463 409.638 162.837 408.835 164.097C407.108 166.513 405.673 169.126 404.56 171.879C402.817 177.889 403.189 184.314 405.612 190.082C407.948 195.891 411.295 201.24 415.499 205.88C419.406 210.556 423.464 214.832 426.905 219.24C430.266 223.479 432.952 228.211 434.87 233.268C436.523 237.619 437.715 242.13 438.428 246.729C439.414 253.366 439.972 260.06 440.098 266.769C440.098 269.096 440.131 270.916 440.198 272.23V273.649C440.114 274.016 440.098 274.183 440.098 274.183Z" fill="#263238"/>
<path d="M426.921 287.41C426.921 287.41 427.005 287.143 427.406 286.876C427.994 286.529 428.689 286.41 429.359 286.542C429.883 286.619 430.373 286.846 430.77 287.196C431.167 287.545 431.454 288.003 431.597 288.512C431.803 289.145 431.79 289.828 431.561 290.453C431.332 291.078 430.9 291.608 430.335 291.958C429.769 292.308 429.102 292.458 428.441 292.385C427.78 292.311 427.162 292.018 426.687 291.552C426.297 291.194 426.02 290.73 425.889 290.217C425.759 289.703 425.781 289.163 425.953 288.663C426.159 288.006 426.599 287.448 427.188 287.093C427.606 286.876 427.873 286.876 427.89 286.926C427.244 287.393 426.773 288.063 426.554 288.829C426.452 289.21 426.461 289.612 426.579 289.987C426.697 290.363 426.92 290.697 427.222 290.95C427.573 291.282 428.025 291.487 428.506 291.535C428.986 291.583 429.469 291.47 429.879 291.215C430.289 290.959 430.603 290.575 430.772 290.123C430.941 289.67 430.955 289.174 430.812 288.713C430.722 288.328 430.525 287.978 430.244 287.7C429.964 287.422 429.611 287.229 429.226 287.143C428.448 286.993 427.644 287.087 426.921 287.41Z" fill="#263238"/>
<path d="M415.849 344.958C415.849 344.958 415.949 344.691 416.35 344.441C416.933 344.079 417.632 343.953 418.304 344.09C418.826 344.171 419.314 344.399 419.71 344.749C420.107 345.098 420.395 345.553 420.542 346.06C420.747 346.693 420.735 347.377 420.506 348.001C420.277 348.626 419.845 349.156 419.279 349.506C418.714 349.856 418.047 350.007 417.385 349.933C416.724 349.859 416.107 349.566 415.632 349.1C415.321 348.801 415.083 348.434 414.935 348.029C414.788 347.623 414.736 347.189 414.783 346.76C414.83 346.331 414.974 345.918 415.205 345.554C415.436 345.189 415.748 344.883 416.116 344.658C416.534 344.424 416.818 344.424 416.818 344.474C416.183 344.952 415.716 345.618 415.482 346.378C415.386 346.76 415.399 347.161 415.52 347.536C415.641 347.911 415.865 348.245 416.166 348.499C416.531 348.805 416.979 348.994 417.453 349.041C417.927 349.089 418.403 348.993 418.822 348.766C419.21 348.489 419.506 348.103 419.673 347.657C419.839 347.21 419.869 346.724 419.757 346.261C419.66 345.866 419.451 345.507 419.154 345.229C418.858 344.95 418.487 344.763 418.087 344.691C417.331 344.561 416.553 344.654 415.849 344.958Z" fill="#263238"/>
<path d="M415.498 272.964C415.526 273.147 415.526 273.333 415.498 273.515C415.498 273.939 415.448 274.495 415.348 275.185C415.198 276.672 414.964 278.776 414.663 281.465C414.029 286.926 412.993 294.825 411.607 304.544C410.873 309.404 409.937 314.714 408.818 320.376C408.271 323.335 407.467 326.241 406.414 329.06C406.265 329.438 406.092 329.806 405.896 330.162C405.668 330.52 405.386 330.841 405.061 331.114C404.437 331.654 403.74 332.104 402.99 332.45C401.508 333.125 399.965 333.656 398.381 334.036C391.703 335.424 384.91 336.184 378.09 336.308C370.788 336.606 363.474 336.522 356.18 336.057L355.245 335.94C355.033 335.908 354.832 335.827 354.657 335.702C354.483 335.577 354.341 335.413 354.243 335.222C353.951 334.626 353.776 333.98 353.725 333.318C353.6 332.103 353.567 330.881 353.625 329.661C353.625 327.256 353.926 324.901 354.193 322.58C354.744 317.921 355.462 313.395 356.213 309.003C357.716 300.219 359.37 291.952 361.006 284.387V284.103H361.39C374.738 282.944 387.962 280.648 400.919 277.24C405.612 276.004 409.269 274.885 411.758 274.133L414.647 273.248C414.953 273.139 415.265 273.05 415.582 272.981L415.331 273.081L414.597 273.348C413.945 273.599 413.06 273.933 411.824 274.35C409.37 275.185 405.712 276.354 401.036 277.69C388.063 281.262 374.794 283.654 361.39 284.838L361.724 284.538C360.054 292.103 358.501 300.369 357.015 309.137C356.28 313.529 355.579 318.054 355.044 322.68C354.777 324.985 354.543 327.34 354.477 329.694C354.418 330.87 354.452 332.048 354.577 333.218C354.624 333.76 354.76 334.29 354.978 334.788C355.128 334.988 355.178 335.055 355.362 335.088L356.247 335.189C363.507 335.659 370.787 335.749 378.057 335.456C384.792 335.34 391.501 334.596 398.097 333.235C399.635 332.877 401.135 332.368 402.573 331.715C403.267 331.465 403.899 331.069 404.426 330.553C404.953 330.037 405.363 329.414 405.629 328.726C406.675 325.962 407.48 323.112 408.034 320.209C409.236 314.581 410.138 309.27 410.906 304.427C412.459 294.724 413.511 286.859 414.246 281.415C414.613 278.726 414.897 276.622 415.098 275.135C415.198 274.467 415.265 273.916 415.331 273.465C415.398 273.014 415.498 272.964 415.498 272.964Z" fill="#263238"/>
<path d="M414.43 285.139C413.808 285.557 413.141 285.904 412.442 286.174C411.14 286.792 409.203 287.594 406.798 288.495C394.139 293.169 380.708 295.396 367.219 295.059C364.63 295.059 362.543 294.841 361.123 294.674C360.375 294.638 359.631 294.531 358.902 294.357C359.646 294.274 360.396 294.274 361.14 294.357C362.576 294.357 364.647 294.457 367.219 294.457C380.61 294.452 393.909 292.24 406.581 287.911C409.019 287.076 410.973 286.358 412.309 285.84C412.991 285.537 413.701 285.302 414.43 285.139Z" fill="#263238"/>
<path d="M320.709 238.045L320.86 237.26C320.977 236.692 321.144 235.94 321.361 234.955C321.845 232.918 322.546 229.945 323.431 226.171C325.268 218.556 328.057 207.567 331.681 194.04L337.677 171.929C339.848 163.98 342.135 155.48 344.858 146.612C347.644 137.311 351.087 128.22 355.161 119.408C357.349 114.758 359.82 110.246 362.56 105.897C363.925 103.633 365.472 101.482 367.185 99.468C368.915 97.3807 371.059 95.6748 373.481 94.458C375.993 93.2122 378.889 92.9848 381.564 93.8234C384.129 94.7334 386.371 96.3768 388.01 98.5495C391.35 102.858 392.185 108.269 392.67 113.229C393.521 123.249 394.34 132.968 395.125 142.203C396.661 160.657 398.047 177.273 399.216 191.234C400.385 205.196 401.27 216.451 401.905 224.3C402.205 228.175 402.439 231.198 402.589 233.302C402.589 234.304 402.706 235.072 402.756 235.64C402.771 235.907 402.771 236.174 402.756 236.441C402.756 236.441 402.756 236.174 402.64 235.656C402.523 235.139 402.506 234.304 402.406 233.318L401.554 224.334C400.853 216.485 399.884 205.212 398.598 191.285C397.312 177.357 395.926 160.707 394.306 142.27C393.505 133.035 392.636 123.349 391.801 113.312C391.317 108.386 390.482 103.125 387.326 99.0839C385.79 97.0526 383.695 95.5143 381.297 94.6584C378.838 93.8779 376.172 94.0876 373.865 95.2429C371.545 96.4262 369.493 98.0748 367.837 100.086C366.153 102.045 364.634 104.14 363.294 106.348C360.571 110.648 358.111 115.11 355.93 119.708C351.865 128.479 348.422 137.525 345.626 146.779C342.887 155.613 340.616 164.114 338.378 172.046C336.14 179.979 334.136 187.377 332.282 194.124C328.575 207.634 325.703 218.606 323.765 226.188C322.797 229.962 322.095 232.868 321.544 234.938C321.277 235.907 321.093 236.608 320.943 237.21C320.793 237.811 320.709 238.045 320.709 238.045Z" fill="#455A64"/>
<path d="M316.618 232.283C315.966 234.888 303.826 303.976 303.826 303.976L394.156 306.899L406.597 235.256L316.618 232.283Z" fill="#263238"/>
<path d="M405.662 236.609C405.41 236.84 405.136 237.047 404.844 237.227C404.31 237.611 403.475 238.145 402.406 238.897C400.285 240.266 397.145 242.237 393.204 244.424C389.263 246.612 384.503 249.234 379.076 251.806C376.354 253.075 373.531 254.428 370.409 255.546C367.176 256.599 363.788 257.096 360.389 257.016C353.764 256.708 347.278 255.013 341.351 252.039C336.576 249.644 332.094 246.708 327.991 243.289C324.467 240.416 321.795 237.895 319.975 236.141C319.073 235.256 318.305 234.555 317.904 234.07C317.659 233.834 317.435 233.577 317.236 233.302C317.524 233.486 317.792 233.698 318.037 233.937C318.588 234.454 319.323 235.089 320.208 235.891C322.095 237.561 324.818 240.015 328.375 242.804C332.5 246.109 336.981 248.943 341.735 251.255C347.536 254.086 353.856 255.7 360.305 255.997C363.628 256.083 366.942 255.608 370.108 254.595C373.114 253.509 376.003 252.173 378.708 250.937C384.119 248.399 388.895 245.927 392.87 243.74C396.845 241.552 400.018 239.731 402.205 238.462L404.727 236.993C405.019 236.822 405.334 236.693 405.662 236.609Z" fill="#455A64"/>
<path d="M400.134 239.648C400.368 239.648 397.947 254.678 394.724 273.265C391.501 291.852 388.695 306.749 388.461 306.749C388.227 306.749 390.649 291.719 393.872 273.148C397.095 254.578 399.901 239.615 400.134 239.648Z" fill="#455A64"/>
<path d="M357.65 254.21C357.399 256.448 357.165 258.703 356.915 260.89C356.79 261.592 356.79 262.31 356.915 263.011C356.994 263.362 357.166 263.685 357.413 263.947C357.659 264.208 357.972 264.398 358.318 264.498C358.73 264.538 359.145 264.449 359.505 264.243C359.864 264.036 360.15 263.722 360.322 263.345C360.652 262.581 360.817 261.756 360.806 260.924C360.923 258.519 361.057 256.114 361.19 253.726H358.251" fill="#455A64"/>
<path d="M376.254 95.5938C383.602 93.1222 389.73 102.641 390.565 110.34C391.454 119.218 391.622 128.154 391.066 137.06C389.747 163.379 377.84 188.546 377.84 188.546L453.391 199.869L450.619 228.927L355.078 218.673C351.757 218.32 348.556 217.236 345.703 215.501C342.85 213.765 340.416 211.42 338.576 208.633C336.736 205.847 335.535 202.688 335.059 199.382C334.583 196.077 334.844 192.707 335.823 189.515C344.357 161.676 358.301 121.646 361.391 115.016C365.666 106.081 366.15 98.9672 376.254 95.5938Z" fill="#FF9C07"/>
<path d="M351.471 217.905H351.972L353.408 218.105L358.936 218.94C363.779 219.608 370.809 220.61 379.644 221.629C397.312 223.716 422.128 226.188 450.635 228.309L450.184 228.693C451.07 219.458 452.005 209.705 452.957 199.685L453.324 200.152L377.79 188.78H377.372L377.506 188.396C382.416 173.199 386.173 160.624 388.411 151.773C389.547 147.364 390.332 143.873 390.816 141.502L391.367 138.797C391.501 138.195 391.584 137.878 391.584 137.878C391.584 137.878 391.584 138.195 391.484 138.813C391.384 139.431 391.25 140.35 391.016 141.552C390.599 143.94 389.864 147.431 388.795 151.873C386.674 160.757 383.017 173.382 378.174 188.613L377.873 188.162L453.458 199.368H453.858V199.785C452.907 209.805 451.971 219.541 451.086 228.793V229.21H450.685C422.162 226.973 397.346 224.384 379.677 222.146C370.859 221.044 363.829 219.975 359.002 219.207L353.375 218.239L351.955 217.971L351.471 217.905Z" fill="#263238"/>
<path d="M435.739 227.624C435.76 222.6 436.078 217.581 436.691 212.594C437.004 207.552 437.617 202.533 438.528 197.564C438.486 202.588 438.163 207.606 437.559 212.594C437.239 217.635 436.632 222.653 435.739 227.624Z" fill="#263238"/>
<path d="M445.341 202.49C445.341 202.49 445.542 202.373 445.909 202.49C446.441 202.607 446.907 202.924 447.212 203.375C447.466 203.717 447.613 204.125 447.637 204.549C447.661 204.974 447.559 205.396 447.345 205.764C447.086 206.219 446.691 206.581 446.215 206.8C445.739 207.019 445.207 207.083 444.692 206.984C444.178 206.884 443.708 206.626 443.348 206.245C442.988 205.865 442.757 205.381 442.686 204.862C442.614 204.453 442.648 204.032 442.786 203.64C442.923 203.248 443.159 202.898 443.471 202.624C444.557 201.705 445.508 202.023 445.458 202.106C445.408 202.19 444.64 202.24 443.905 203.058C443.7 203.279 443.553 203.547 443.478 203.838C443.402 204.13 443.4 204.436 443.471 204.728C443.548 205.072 443.718 205.387 443.963 205.64C444.207 205.894 444.517 206.075 444.857 206.164C445.203 206.212 445.555 206.162 445.873 206.021C446.192 205.879 446.465 205.651 446.661 205.363C446.807 205.109 446.884 204.821 446.884 204.528C446.884 204.235 446.807 203.947 446.661 203.693C446.16 202.674 445.325 202.624 445.341 202.49Z" fill="#263238"/>
<path d="M469.673 191.302L473.114 227.09H490.565L494.74 191.302H469.673Z" fill="#EBEBEB"/>
<path d="M469.673 186.676C468.59 188.012 468 189.681 468.003 191.402H496.393C496.53 190.537 496.449 189.652 496.157 188.827C495.866 188.002 495.373 187.262 494.723 186.676H469.673Z" fill="#455A64"/>
<path d="M472.896 183.386L471.945 186.926L493.337 187.093L491.918 183.352L472.896 183.386Z" fill="#455A64"/>
<path d="M469.306 200.253C469.306 200.587 471.393 218.272 471.393 218.272H492.719L494.74 200.253H469.306Z" fill="#455A64"/>
<path d="M470.642 197.096L470.091 203.092L490.732 203.576C490.732 203.576 490.732 210.54 488.645 212.627C488.645 212.627 490.732 216.802 488.411 219.124C486.089 221.445 484.703 220.794 484.703 220.794C484.703 220.794 485.639 225.436 483.317 226.605C480.996 227.774 450.886 225.971 450.886 225.971L452.739 206.549L459.419 205.964C459.703 199.535 466.35 196.345 470.642 197.096Z" fill="#FFBE9D"/>
<path d="M444.506 14.6656C443.382 11.1898 441.055 8.2291 437.943 6.31555C435.822 5.10771 433.372 4.6048 430.946 4.87935V4.37835C428.708 0.353644 424.266 -0.514757 419.69 0.253443C415.114 1.02164 410.605 4.36163 406.531 6.53263C401.02 9.47183 395.759 12.8285 390.482 16.1852C386.106 18.9741 381.631 21.8799 378.608 26.0883C377.031 28.3188 375.914 30.8405 375.32 33.5068C374.727 36.173 374.669 38.9307 375.151 41.6194C376.237 47.4811 379.844 53.4096 377.706 58.9707C376.27 62.6614 372.696 64.9827 370.258 68.1557C368.403 70.6444 367.375 73.6519 367.318 76.7552C367.261 79.8586 368.179 82.9018 369.941 85.4569C372.379 88.7969 376.103 90.7007 379.51 92.9385C384.904 96.4956 389.73 100.971 395.542 103.827C401.354 106.683 408.718 107.601 414.062 103.96C419.406 100.32 421.343 92.688 420.358 86.0914C419.373 79.4949 416.2 73.483 413.678 67.3207C410.351 59.2907 408.045 50.8749 406.814 42.2707C406.33 38.8305 406.063 35.1564 407.683 32.1003C409.152 29.3615 411.908 27.608 414.363 25.7376C420.214 21.3265 425.092 15.7549 428.691 9.37163C429.934 12.4621 431.898 15.2105 434.42 17.3876C437.796 20.5249 441.576 23.1982 445.659 25.3369C446.021 21.7383 445.629 18.1037 444.506 14.6656Z" fill="#263238"/>
<path d="M700.931 517.064C699.812 512.655 702.734 508.229 705.941 505.04C709.147 501.85 713.105 499.011 714.825 494.786C717.597 487.939 713.974 479.021 718.666 473.326C721.438 469.986 726.365 468.884 728.82 465.294C729.954 463.306 730.712 461.126 731.058 458.864C733.718 447.478 739.387 437.016 747.474 428.57C747.961 438.734 745.699 448.842 740.927 457.829C739.024 461.419 736.686 464.91 736.034 468.934C734.982 475.447 738.573 482.194 736.936 488.59C735.066 495.905 726.816 500.765 726.382 508.296C726.014 514.676 731.542 520.304 731.091 526.666C730.74 529.376 729.75 531.963 728.202 534.215C723.192 542.381 715.961 547.992 704.972 547.742L691.529 548.142L700.931 517.064Z" fill="#F6B5CC"/>
<g opacity="0.3">
<path opacity="0.3" d="M700.931 517.064C699.812 512.655 702.734 508.229 705.941 505.04C709.147 501.85 713.105 499.011 714.825 494.786C717.597 487.939 713.974 479.021 718.666 473.326C721.438 469.986 726.365 468.884 728.82 465.294C729.954 463.306 730.712 461.126 731.058 458.864C733.718 447.478 739.387 437.016 747.474 428.57C747.961 438.734 745.699 448.842 740.927 457.829C739.024 461.419 736.686 464.91 736.034 468.934C734.982 475.447 738.573 482.194 736.936 488.59C735.066 495.905 726.816 500.765 726.382 508.296C726.014 514.676 731.542 520.304 731.091 526.666C730.74 529.376 729.75 531.963 728.202 534.215C723.192 542.381 715.961 547.992 704.972 547.742L691.529 548.142L700.931 517.064Z" fill="black"/>
</g>
<path d="M688.79 548.51C687.557 548.686 686.304 548.652 685.083 548.41C683.597 548.178 682.137 547.804 680.724 547.291C678.778 546.599 676.961 545.589 675.346 544.301C674.373 543.512 673.614 542.49 673.142 541.329C672.738 540.025 672.53 538.669 672.524 537.304C672.511 535.853 672.416 534.403 672.24 532.962C671.967 531.421 671.4 529.947 670.57 528.62C669 525.831 666.379 523.176 665.56 519.385C664.742 515.594 665.343 511.636 665.978 507.612C666.612 503.587 667.264 499.178 665.744 494.97C664.224 490.761 661.402 486.954 659.949 482.194C658.496 477.435 659.214 472.258 658.947 467.164C658.875 464.586 658.308 462.046 657.277 459.682C656.208 457.294 654.705 455.04 653.553 452.535C651.182 447.525 650.797 441.713 650.213 436.069C649.912 433.246 649.612 430.374 649.294 427.485C649.111 424.571 648.629 421.684 647.858 418.868C646.961 416.026 645.901 413.238 644.685 410.518C644.046 409.113 643.532 407.654 643.149 406.159C642.898 404.573 642.832 403.086 642.731 401.533C642.604 398.426 642.743 395.314 643.149 392.231C643.533 389.125 644.117 386.052 644.468 382.946V382.412L644.552 381.794L645.103 382.061C647.972 383.511 650.465 385.61 652.384 388.19C654.24 390.703 655.725 393.47 656.793 396.406C658.677 402.152 660.046 408.053 660.884 414.041C661.691 419.753 663.531 425.27 666.312 430.324C667.765 432.729 669.535 434.933 671.088 437.271C672.751 439.556 673.891 442.179 674.428 444.953C675.196 450.648 672.023 455.624 672.658 460.668C672.956 463.144 673.776 465.529 675.063 467.665C676.282 469.819 677.701 471.823 679.054 473.827C680.433 475.79 681.629 477.875 682.628 480.057C683.572 482.168 684.137 484.429 684.298 486.737C684.615 491.279 683.947 495.571 684.298 499.629C684.672 503.503 685.807 507.266 687.638 510.701C689.308 514.041 690.978 517.014 692.531 519.936C693.282 521.389 693.984 522.808 694.552 524.228C695.086 525.602 695.472 527.03 695.704 528.487C696.079 531.028 696.079 533.61 695.704 536.152C695.338 539.706 693.991 543.089 691.813 545.921C691.484 546.346 691.115 546.737 690.71 547.09C690.444 547.372 690.147 547.624 689.825 547.842C689.324 548.209 689.057 548.376 689.057 548.376C690.014 547.614 690.892 546.758 691.679 545.821C693.76 542.978 695.035 539.626 695.37 536.118C695.687 533.604 695.648 531.057 695.253 528.553C695.001 527.132 694.61 525.739 694.084 524.395C693.477 522.948 692.797 521.532 692.047 520.153C690.544 517.264 688.707 514.275 687.037 510.935C685.201 507.436 684.067 503.613 683.697 499.679C683.379 495.521 684.014 491.212 683.697 486.787C683.562 484.535 683.03 482.324 682.127 480.257C681.137 478.12 679.952 476.08 678.586 474.161C677.234 472.157 675.797 470.153 674.545 467.949C673.201 465.733 672.342 463.257 672.023 460.685C671.405 455.307 674.545 450.297 673.693 445.003C673.183 442.349 672.094 439.84 670.503 437.655C668.984 435.351 667.163 433.163 665.694 430.691C662.856 425.55 660.972 419.937 660.133 414.125C659.031 408.313 658.262 402.318 656.075 396.64C655.04 393.783 653.6 391.089 651.799 388.641C649.981 386.174 647.622 384.157 644.902 382.746L645.52 382.395C645.52 382.579 645.52 382.762 645.52 382.946C645.169 386.086 644.585 389.175 644.218 392.231C643.771 395.316 643.597 398.434 643.7 401.55C643.783 403.053 643.867 404.623 644.084 406.042C644.472 407.475 644.969 408.876 645.57 410.234C646.803 412.98 647.874 415.796 648.777 418.667C649.568 421.525 650.055 424.458 650.23 427.418C650.53 430.307 650.848 433.18 651.131 436.019C651.749 441.68 652.133 447.325 654.471 452.234C655.59 454.673 657.093 456.927 658.196 459.399C659.245 461.85 659.812 464.481 659.866 467.147C660.133 472.341 659.431 477.401 660.801 482.01C662.17 486.62 665.093 490.36 666.546 494.769C667.998 499.178 667.431 503.704 666.763 507.712C666.095 511.72 665.41 515.694 666.262 519.285C667.113 522.875 669.602 525.531 671.155 528.403C671.998 529.778 672.565 531.304 672.825 532.895C672.987 534.359 673.071 535.831 673.075 537.304C673.071 538.626 673.257 539.942 673.626 541.212C674.07 542.315 674.782 543.291 675.697 544.051C677.267 545.336 679.039 546.351 680.941 547.057C682.337 547.591 683.779 547.994 685.25 548.259C686.148 548.422 687.059 548.511 687.972 548.527L688.79 548.51Z" fill="white"/>
<path d="M647.274 389.86C647.321 389.997 647.36 390.136 647.391 390.277L647.691 391.48C647.942 392.549 648.242 394.135 648.743 396.139C649.244 398.143 650.413 400.398 651.499 403.186C652.707 406.315 653.755 409.504 654.638 412.739C655.64 416.329 656.526 420.321 657.461 424.579C658.246 429.142 659.668 433.572 661.686 437.739C662.771 439.926 664.007 442.148 665.026 444.569C665.985 447.055 666.619 449.653 666.913 452.301C667.566 457.774 668.502 463.208 669.719 468.584L677.1 499.662C679.438 509.198 681.559 517.799 683.329 525.046C685.099 532.294 686.469 538.056 687.454 542.164C687.905 544.134 688.272 545.704 688.54 546.84L688.79 548.059C688.805 548.198 688.805 548.338 688.79 548.476C688.721 548.351 688.671 548.216 688.64 548.076L688.289 546.873C687.988 545.754 687.588 544.201 687.053 542.247C686.001 538.156 684.515 532.344 682.661 525.197C680.807 518.049 678.67 509.382 676.265 499.863C673.86 490.344 671.422 479.823 668.767 468.734C667.534 463.339 666.597 457.882 665.961 452.385C665.667 449.809 665.056 447.279 664.141 444.853C663.206 442.482 661.986 440.277 660.901 438.073C658.883 433.837 657.466 429.34 656.693 424.713C655.791 420.421 654.939 416.446 653.987 412.872C653.035 409.299 652 406.092 650.981 403.32C649.962 400.548 648.844 398.31 648.359 396.189C647.875 394.068 647.658 392.565 647.441 391.48L647.24 390.261C647.235 390.126 647.247 389.992 647.274 389.86Z" fill="white"/>
<path d="M686.485 548.51C677.718 543.233 675.296 527.368 679.021 517.849C682.745 508.33 689.191 499.662 690.243 489.459C691.044 481.66 688.573 473.61 690.393 465.978C692.915 455.691 703.018 447.759 702.968 437.154C702.968 431.209 699.628 425.598 699.879 419.653C700.263 412.371 705.891 406.627 709.381 400.214C714.742 390.428 715.159 378.804 717.03 367.799C718.9 356.794 723.175 345.02 732.978 339.66C734.364 349.028 736.786 355.441 735.934 368.05C735.633 372.592 730.306 381.276 729.521 391.246C729.054 397.208 728.736 403.17 728.336 409.132C727.935 415.094 727.534 420.822 725.43 426.266C723.76 430.424 721.221 434.182 720.019 438.474C717.731 446.54 720.62 455.324 718.766 463.524C717.213 470.454 712.37 476.383 711.352 483.43C709.915 493.3 716.261 503.604 712.921 513.022C711.251 517.682 707.41 521.372 706.241 526.249C705.373 529.99 706.241 533.964 705.473 537.722C704.204 543.784 692.614 548.443 686.435 548.026" fill="#F6B5CC"/>
<path d="M730.54 348.962C730.559 349.139 730.559 349.318 730.54 349.496L730.34 351.032C730.122 352.385 729.889 354.372 729.421 356.927C728.953 359.483 727.567 362.405 726.482 365.895C725.396 369.386 724.211 373.394 723.142 377.903C722.073 382.412 721.255 387.388 720.336 392.749C719.59 398.502 718.044 404.123 715.744 409.449C714.491 412.238 713.089 415.043 712.036 418.033C711.011 421.103 710.371 424.29 710.133 427.518C709.611 434.376 708.713 441.2 707.444 447.959C704.672 461.803 702.033 474.98 699.645 486.987C697.257 498.994 694.835 509.716 692.965 518.717C691.095 527.718 689.458 535.016 688.372 540.126C687.827 542.62 687.393 544.557 687.07 545.938C686.92 546.573 686.803 547.074 686.719 547.458C686.679 547.628 686.629 547.795 686.569 547.959C686.547 547.787 686.547 547.613 686.569 547.441C686.652 547.04 686.736 546.539 686.853 545.905L687.988 540.06L692.314 518.583C694.184 509.515 696.388 498.727 698.86 486.753C701.332 474.779 703.87 461.57 706.592 447.742C707.846 441.003 708.743 434.202 709.281 427.368C709.54 424.071 710.202 420.818 711.252 417.682C712.337 414.643 713.757 411.82 715.009 409.048C717.307 403.76 718.864 398.179 719.635 392.465C720.57 387.121 721.472 382.128 722.541 377.619C723.48 373.556 724.623 369.543 725.964 365.595C727.1 362.088 728.486 359.215 729.037 356.694C729.588 354.172 729.839 352.185 730.106 350.849C730.223 350.214 730.323 349.713 730.406 349.329C730.49 348.945 730.54 348.962 730.54 348.962Z" fill="white"/>
</svg>
