<svg width="299" height="75" viewBox="0 0 299 75" fill="none" xmlns="http://www.w3.org/2000/svg">
<path d="M42.9939 40.9856C41.1413 47.1897 34.61 50.7174 28.4059 48.8648C22.2017 47.0122 18.6741 40.4809 20.5267 34.2767C22.3793 28.0726 28.9106 24.5449 35.1147 26.3975C41.3189 28.2501 44.8465 34.7814 42.9939 40.9856Z" fill="#EC5766"/>
<path fill-rule="evenodd" clip-rule="evenodd" d="M14.6771 0C6.57116 0 0 6.57116 0 14.6771V41.5362C0 46.908 2.88585 51.6058 7.19178 54.1637V60.3229C7.19178 68.4288 13.7629 75 21.8689 75H48.728C56.8339 75 63.4051 68.4288 63.4051 60.3229V33.4638C63.4051 28.092 60.5192 23.3942 56.2133 20.8363V14.6771C56.2133 6.57116 49.6421 0 41.5362 0H14.6771ZM56.2133 20.8363C54.0217 19.5343 51.4621 18.7867 48.728 18.7867H21.8689C13.7629 18.7867 7.19178 25.3579 7.19178 33.4638V54.1637C9.38342 55.4657 11.943 56.2133 14.6771 56.2133H41.5362C49.6421 56.2133 56.2133 49.6421 56.2133 41.5362V20.8363Z" fill="#EC5766"/>
<path d="M78.7116 55.7448C77.8553 55.7448 77.1351 55.4725 76.5513 54.9281C76.0063 54.3447 75.7338 53.6253 75.7338 52.7697V26.8109C75.7338 25.9164 76.0063 25.1969 76.5513 24.6525C77.1351 24.108 77.8553 23.8358 78.7116 23.8358C79.6069 23.8358 80.327 24.108 80.872 24.6525C81.4169 25.1969 81.6894 25.8775 81.6894 26.6942C82.7015 25.6831 83.9081 24.9053 85.3095 24.3608C86.7108 23.7775 88.2289 23.4858 89.8637 23.4858C93.9509 23.4858 97.026 25.0219 99.089 28.0942C100.218 26.6553 101.658 25.5275 103.41 24.7108C105.161 23.8941 107.127 23.4858 109.307 23.4858C112.655 23.4858 115.379 24.5747 117.481 26.7525C119.583 28.9303 120.634 32.0415 120.634 36.086V52.7697C120.634 53.6253 120.362 54.3447 119.817 54.9281C119.272 55.4725 118.552 55.7448 117.656 55.7448C116.8 55.7448 116.08 55.4725 115.496 54.9281C114.951 54.3447 114.679 53.6253 114.679 52.7697V36.086C114.679 33.636 114.075 31.8276 112.869 30.6609C111.662 29.4554 110.085 28.8526 108.139 28.8526C106.115 28.8526 104.441 29.5526 103.118 30.9526C101.833 32.3526 101.191 34.1416 101.191 36.3194V52.7697C101.191 53.6253 100.919 54.3447 100.374 54.9281C99.8286 55.4725 99.1085 55.7448 98.2132 55.7448C97.3569 55.7448 96.6367 55.4725 96.0529 54.9281C95.5079 54.3447 95.2354 53.6253 95.2354 52.7697V36.086C95.2354 33.636 94.6321 31.8276 93.4254 30.6609C92.2187 29.4554 90.6422 28.8526 88.696 28.8526C86.6718 28.8526 84.9981 29.5526 83.6746 30.9526C82.3511 32.3526 81.6894 34.1416 81.6894 36.3194V52.7697C81.6894 53.6253 81.4169 54.3447 80.872 54.9281C80.327 55.4725 79.6069 55.7448 78.7116 55.7448Z" fill="#EC5766"/>
<path d="M143.842 55.9198C141.001 55.9198 138.451 55.2197 136.193 53.8197C133.936 52.3808 132.145 50.4558 130.822 48.0446C129.537 45.5946 128.895 42.8334 128.895 39.7611C128.895 36.6888 129.595 33.9277 130.997 31.4776C132.437 29.0276 134.364 27.1025 136.777 25.7025C139.229 24.2636 141.974 23.5441 145.01 23.5441C148.046 23.5441 150.771 24.2636 153.184 25.7025C155.598 27.1025 157.505 29.0276 158.906 31.4776C160.346 33.9277 161.067 36.6888 161.067 39.7611V52.7697C161.067 53.6253 160.775 54.3447 160.191 54.9281C159.646 55.4725 158.945 55.7448 158.089 55.7448C157.232 55.7448 156.512 55.4725 155.928 54.9281C155.383 54.3447 155.111 53.6253 155.111 52.7697V50.6113C153.749 52.2447 152.094 53.5475 150.148 54.5197C148.241 55.4531 146.139 55.9198 143.842 55.9198ZM145.01 50.6697C146.995 50.6697 148.766 50.203 150.323 49.2696C151.88 48.2974 153.106 46.9946 154.002 45.3612C154.897 43.689 155.345 41.8223 155.345 39.7611C155.345 37.6611 154.897 35.7944 154.002 34.161C153.106 32.4887 151.88 31.1859 150.323 30.2526C148.766 29.2804 146.995 28.7942 145.01 28.7942C143.064 28.7942 141.292 29.2804 139.697 30.2526C138.14 31.1859 136.894 32.4887 135.96 34.161C135.064 35.7944 134.617 37.6611 134.617 39.7611C134.617 41.8223 135.064 43.689 135.96 45.3612C136.894 46.9946 138.14 48.2974 139.697 49.2696C141.292 50.203 143.064 50.6697 145.01 50.6697Z" fill="#EC5766"/>
<path d="M181.549 55.6864C179.603 55.6864 177.851 55.2003 176.294 54.2281C174.737 53.2169 173.511 51.8558 172.616 50.1447C171.721 48.4335 171.273 46.5085 171.273 44.3695V29.9609H168.587C167.77 29.9609 167.108 29.7276 166.602 29.2609C166.096 28.7942 165.843 28.2109 165.843 27.5109C165.843 26.7331 166.096 26.1108 166.602 25.6442C167.108 25.1775 167.77 24.9442 168.587 24.9442H171.273V16.544C171.273 15.6884 171.546 14.9884 172.09 14.4439C172.635 13.8995 173.336 13.6273 174.192 13.6273C175.049 13.6273 175.749 13.8995 176.294 14.4439C176.839 14.9884 177.112 15.6884 177.112 16.544V24.9442H182.075C182.892 24.9442 183.554 25.1775 184.06 25.6442C184.566 26.1108 184.819 26.7331 184.819 27.5109C184.819 28.2109 184.566 28.7942 184.06 29.2609C183.554 29.7276 182.892 29.9609 182.075 29.9609H177.112V44.3695C177.112 45.9251 177.54 47.2279 178.396 48.278C179.253 49.328 180.304 49.853 181.549 49.853H183.535C184.235 49.853 184.819 50.1252 185.286 50.6697C185.792 51.2141 186.045 51.9141 186.045 52.7697C186.045 53.6253 185.714 54.3253 185.053 54.8697C184.43 55.4142 183.612 55.6864 182.6 55.6864H181.549Z" fill="#EC5766"/>
<path d="M207.845 55.9198C204.731 55.9198 201.948 55.2197 199.496 53.8197C197.083 52.3808 195.175 50.4558 193.774 48.0446C192.411 45.5946 191.73 42.8334 191.73 39.7611C191.73 36.6111 192.411 33.811 193.774 31.3609C195.136 28.9109 197.005 27.0053 199.379 25.6442C201.754 24.2441 204.478 23.5441 207.553 23.5441C212.147 23.5441 215.961 25.2942 218.998 28.7942C219.542 29.4165 219.737 30.0581 219.581 30.7193C219.426 31.3804 218.997 31.9637 218.297 32.4693C217.752 32.8582 217.149 32.9943 216.487 32.8776C215.825 32.7221 215.222 32.3721 214.677 31.8276C212.769 29.8054 210.395 28.7942 207.553 28.7942C204.556 28.7942 202.123 29.8054 200.255 31.8276C198.387 33.811 197.452 36.4555 197.452 39.7611C197.452 41.8612 197.881 43.7279 198.737 45.3612C199.632 46.9946 200.858 48.2974 202.415 49.2696C203.972 50.203 205.782 50.6697 207.845 50.6697C210.492 50.6697 212.633 49.9891 214.268 48.628C214.891 48.1224 215.533 47.8502 216.195 47.8113C216.857 47.7335 217.441 47.9085 217.947 48.3363C218.608 48.8807 218.978 49.503 219.056 50.203C219.134 50.8641 218.9 51.4669 218.355 52.0114C215.553 54.617 212.049 55.9198 207.845 55.9198Z" fill="#EC5766"/>
<path d="M231.41 55.7448C230.554 55.7448 229.834 55.4725 229.25 54.9281C228.705 54.3447 228.432 53.6253 228.432 52.7697V26.7525C228.432 25.8581 228.705 25.1386 229.25 24.5941C229.834 24.0497 230.554 23.7775 231.41 23.7775C232.305 23.7775 233.025 24.0497 233.57 24.5941C234.115 25.1386 234.388 25.8581 234.388 26.7525V27.3942C235.594 26.1886 237.054 25.2358 238.767 24.5358C240.48 23.8358 242.329 23.4858 244.314 23.4858C247 23.4858 249.393 24.0691 251.495 25.2358C253.636 26.3636 255.31 28.0359 256.517 30.2526C257.762 32.4693 258.385 35.1916 258.385 38.4194V52.7697C258.385 53.6253 258.093 54.3447 257.509 54.9281C256.964 55.4725 256.264 55.7448 255.407 55.7448C254.551 55.7448 253.831 55.4725 253.247 54.9281C252.702 54.3447 252.43 53.6253 252.43 52.7697V38.4194C252.43 35.1138 251.534 32.7026 249.744 31.1859C247.992 29.6304 245.793 28.8526 243.146 28.8526C241.511 28.8526 240.032 29.1831 238.708 29.8443C237.385 30.5054 236.334 31.3998 235.556 32.5276C234.777 33.6166 234.388 34.8805 234.388 36.3194V52.7697C234.388 53.6253 234.115 54.3447 233.57 54.9281C233.025 55.4725 232.305 55.7448 231.41 55.7448ZM231.41 44.0779C230.554 44.0779 229.834 43.8056 229.25 43.2612C228.705 42.6778 228.432 41.9584 228.432 41.1028V13.1023C228.432 12.2078 228.705 11.4883 229.25 10.9439C229.834 10.3994 230.554 10.1272 231.41 10.1272C232.305 10.1272 233.025 10.3994 233.57 10.9439C234.115 11.4883 234.388 12.2078 234.388 13.1023V41.1028C234.388 41.9584 234.115 42.6778 233.57 43.2612C233.025 43.8056 232.305 44.0779 231.41 44.0779Z" fill="#EC5766"/>
<path d="M281.601 55.9198C278.76 55.9198 276.21 55.2197 273.952 53.8197C271.695 52.3808 269.904 50.4558 268.581 48.0446C267.296 45.5946 266.654 42.8334 266.654 39.7611C266.654 36.6888 267.355 33.9277 268.756 31.4776C270.196 29.0276 272.123 27.1025 274.536 25.7025C276.989 24.2636 279.733 23.5441 282.769 23.5441C285.805 23.5441 288.53 24.2636 290.943 25.7025C293.357 27.1025 295.264 29.0276 296.665 31.4776C298.106 33.9277 298.826 36.6888 298.826 39.7611V52.7697C298.826 53.6253 298.534 54.3447 297.95 54.9281C297.405 55.4725 296.704 55.7448 295.848 55.7448C294.992 55.7448 294.272 55.4725 293.688 54.9281C293.143 54.3447 292.87 53.6253 292.87 52.7697V50.6113C291.508 52.2447 289.854 53.5475 287.907 54.5197C286 55.4531 283.898 55.9198 281.601 55.9198ZM282.769 50.6697C284.754 50.6697 286.525 50.203 288.082 49.2696C289.639 48.2974 290.866 46.9946 291.761 45.3612C292.656 43.689 293.104 41.8223 293.104 39.7611C293.104 37.6611 292.656 35.7944 291.761 34.161C290.866 32.4887 289.639 31.1859 288.082 30.2526C286.525 29.2804 284.754 28.7942 282.769 28.7942C280.823 28.7942 279.052 29.2804 277.456 30.2526C275.899 31.1859 274.653 32.4887 273.719 34.161C272.824 35.7944 272.376 37.6611 272.376 39.7611C272.376 41.8223 272.824 43.689 273.719 45.3612C274.653 46.9946 275.899 48.2974 277.456 49.2696C279.052 50.203 280.823 50.6697 282.769 50.6697Z" fill="#EC5766"/>
</svg>
