<svg width="808" height="636" viewBox="0 0 808 636" fill="none" xmlns="http://www.w3.org/2000/svg">
<path d="M677.197 583.055C703.024 571.559 728.946 559.262 748.885 541.537C768.823 523.812 782.224 499.633 778.109 475.734C774.326 453.757 756.576 434.806 751.864 412.951C743.778 375.445 775.025 340.233 782.317 302.617C787.8 274.331 778.942 244.352 758.284 221.282C739.452 200.252 711.731 185.165 694.732 163.105C671.824 133.378 670.641 93.8972 642.666 67.2591C622.404 47.9643 591.632 38.8971 562.222 30.8097C510.099 16.4774 456.905 2.65343 401.979 1.01484C347.053 -0.623757 289.345 11.3425 249.685 42.6145C237.359 52.3343 226.852 63.961 221.537 77.3037C208.969 108.853 226.962 142.327 238.243 174.203C240.449 180.439 242.416 187.019 240.749 193.366C239.107 199.619 234.125 204.901 228.875 209.623C204.412 231.628 171.854 246.156 140.437 261.047C109.019 275.938 77.2719 292.224 56.0962 316.421C34.9197 340.618 26.6093 374.737 45.0142 400.42C52.1547 410.384 63.047 418.963 65.9396 430.279C71.0533 450.283 49.8373 467.385 37.3604 485.067C16.6449 514.427 20.4684 554.178 46.5397 580.498C72.611 606.818 119.201 617.96 158.387 607.247L677.197 583.055Z" fill="#F0FAFF"/>
<path d="M135.435 567.593C135.435 567.593 134.426 569.881 130.07 570.597C129.19 570.745 128.173 570.825 127 570.805C122.18 570.745 114.714 569.052 103.259 563.512C75.2593 549.957 74.7304 494.805 90.2403 476.124C121.838 482.487 144.293 533.223 135.435 567.593Z" fill="#EC5766"/>
<path d="M130.07 570.597C129.19 570.745 128.173 570.825 127 570.805C126.984 570.651 126.96 570.504 126.943 570.35C125.917 562.642 124.378 554.955 122.506 547.327C120.642 539.693 118.427 532.113 115.789 524.633C114.463 520.893 113.022 517.173 111.36 513.526C110.928 512.623 110.521 511.706 110.057 510.809L109.374 509.458L108.641 508.133C107.623 506.38 106.565 504.621 105.14 503.055C106.63 504.58 107.77 506.306 108.869 508.039L109.666 509.351L110.408 510.682C110.913 511.572 111.36 512.476 111.832 513.372C113.656 516.985 115.268 520.672 116.758 524.378C119.729 531.811 122.286 539.352 124.5 546.966C126.715 554.58 128.587 562.261 129.972 570.036C130.005 570.222 130.037 570.41 130.07 570.597Z" fill="#EC5766"/>
<path d="M263.924 567.99C263.924 567.99 263.038 569.996 259.221 570.623C258.45 570.752 257.558 570.823 256.531 570.805C252.306 570.752 245.763 569.268 235.723 564.412C211.182 552.532 210.718 504.192 224.312 487.819C252.007 493.396 271.687 537.865 263.924 567.99Z" fill="#BE3341"/>
<path opacity="0.5" d="M259.221 570.623C258.45 570.752 257.558 570.823 256.531 570.805C256.517 570.67 256.495 570.541 256.481 570.406C255.582 563.65 254.233 556.912 252.592 550.227C250.958 543.536 249.016 536.892 246.705 530.336C245.541 527.058 244.278 523.797 242.823 520.601C242.445 519.809 242.088 519.006 241.681 518.22L241.082 517.035L240.44 515.874C239.548 514.338 238.62 512.795 237.371 511.423C238.677 512.76 239.676 514.273 240.64 515.792L241.339 516.941L241.988 518.108C242.431 518.888 242.824 519.68 243.237 520.466C244.836 523.633 246.249 526.864 247.555 530.113C250.159 536.628 252.4 543.237 254.341 549.91C256.282 556.584 257.923 563.316 259.137 570.13C259.164 570.295 259.193 570.459 259.221 570.623Z" fill="#BE3341"/>
<path d="M592.885 581.451C595.538 542.198 560.157 489.249 523.891 486.648C510.623 509.488 533.513 569.915 567.294 580.973C601.076 592.03 592.885 581.451 592.885 581.451Z" fill="#EC5766"/>
<path d="M571.939 572.306C571.766 569.358 571.077 566.241 570.246 563.172C569.404 560.093 568.388 557.019 567.289 553.962C565.087 547.845 562.538 541.786 559.785 535.791C557.024 529.796 554.049 523.861 550.793 518.029C549.156 515.117 547.448 512.231 545.596 509.407C544.654 508.003 543.703 506.6 542.65 505.251C541.603 503.9 540.51 502.559 539.128 501.417C540.592 502.491 541.789 503.787 542.936 505.091C544.092 506.396 545.147 507.756 546.193 509.122C548.256 511.867 550.178 514.68 552.031 517.524C555.718 523.218 559.133 529.032 562.34 534.926C565.542 540.822 568.546 546.797 571.228 552.9C572.567 555.953 573.829 559.036 574.932 562.186C576.019 565.345 576.997 568.539 577.455 572.005L571.939 572.306Z" fill="#EC5766"/>
<path d="M577.739 568.485C578.933 549.592 599.185 525.757 616.7 526.05C621.615 537.54 606.87 565.482 590.013 569.341C573.156 573.199 577.739 568.485 577.739 568.485Z" fill="#BE3341"/>
<path d="M588.335 564.997C588.602 563.593 589.128 562.132 589.718 560.699C590.315 559.261 590.994 557.834 591.711 556.418C593.148 553.584 594.748 550.793 596.442 548.042C598.139 545.291 599.935 542.577 601.859 539.924C602.825 538.601 603.824 537.292 604.887 536.019C605.426 535.387 605.969 534.756 606.557 534.156C607.143 533.554 607.75 532.959 608.483 532.471C607.715 532.922 607.061 533.492 606.43 534.067C605.795 534.643 605.205 535.249 604.619 535.858C603.46 537.084 602.363 538.348 601.299 539.63C599.177 542.198 597.179 544.835 595.274 547.519C593.372 550.205 591.559 552.937 589.892 555.743C589.06 557.146 588.263 558.568 587.538 560.029C586.819 561.494 586.15 562.981 585.714 564.62L588.335 564.997Z" fill="#BE3341"/>
<path d="M245.955 568.485C247.148 549.592 267.401 525.757 284.916 526.05C289.831 537.54 275.086 565.482 258.229 569.341C241.371 573.199 245.955 568.485 245.955 568.485Z" fill="#EC5766"/>
<path d="M256.55 564.997C256.818 563.593 257.344 562.132 257.934 560.699C258.53 559.261 259.209 557.834 259.926 556.418C261.364 553.584 262.963 550.793 264.657 548.042C266.355 545.291 268.151 542.577 270.074 539.924C271.04 538.601 272.039 537.292 273.102 536.019C273.641 535.387 274.184 534.756 274.773 534.156C275.358 533.554 275.965 532.959 276.699 532.471C275.931 532.922 275.276 533.492 274.646 534.067C274.011 534.643 273.421 535.249 272.834 535.858C271.675 537.084 270.579 538.348 269.514 539.63C267.392 542.198 265.394 544.835 263.489 547.519C261.587 550.205 259.775 552.937 258.108 555.743C257.276 557.146 256.479 558.568 255.753 560.029C255.034 561.494 254.366 562.981 253.93 564.62L256.55 564.997Z" fill="#EC5766"/>
<path d="M671.042 567.593C671.042 567.593 672.051 569.881 676.407 570.597C677.286 570.745 678.304 570.825 679.477 570.805C684.297 570.745 691.762 569.052 703.218 563.512C731.217 549.957 731.746 494.805 716.236 476.124C684.638 482.487 662.184 533.223 671.042 567.593Z" fill="#BE3341"/>
<path d="M676.407 570.597C677.286 570.745 678.304 570.825 679.477 570.805C679.493 570.651 679.517 570.504 679.533 570.35C680.559 562.642 682.098 554.955 683.97 547.327C685.835 539.693 688.049 532.113 690.687 524.633C692.014 520.893 693.455 517.173 695.117 513.526C695.548 512.623 695.955 511.706 696.42 510.809L697.103 509.458L697.836 508.133C698.853 506.38 699.912 504.621 701.337 503.055C699.847 504.58 698.707 506.306 697.608 508.039L696.81 509.351L696.069 510.682C695.564 511.572 695.117 512.476 694.644 513.372C692.821 516.985 691.209 520.672 689.719 524.378C686.747 531.811 684.191 539.352 681.976 546.966C679.762 554.58 677.889 562.261 676.505 570.036C676.472 570.222 676.44 570.41 676.407 570.597Z" fill="#BE3341"/>
<path d="M797.337 635.671H10.637C5.09966 635.671 0.56868 631.948 0.56868 627.397V569.679C0.56868 565.128 5.09966 561.405 10.637 561.405H797.336C802.873 561.405 807.404 565.128 807.404 569.679V627.397C807.405 631.948 802.874 635.671 797.337 635.671Z" fill="#F0FAFF"/>
<path d="M334.601 159.726L434.119 106.647L444.729 81.4569L444.073 109.556L359.872 169.772L334.601 159.726Z" fill="#DF9481"/>
<path d="M296.724 178.4L359.733 146.311L372.478 184.718L301.314 223.125L296.724 178.4Z" fill="#FFBE55"/>
<path opacity="0.2" d="M296.724 178.4L359.733 146.311L372.478 184.718L301.314 223.125L296.724 178.4Z" fill="#FFBE55"/>
<path d="M168.417 417.91L141.958 461.326L138.215 418.578L150.7 413.805L137.019 412.11L137.065 406.013L168.292 405.443L168.417 417.91Z" fill="#FFBE55"/>
<path d="M269.197 282.577C269.197 282.577 299.462 376.827 290.701 389.263C281.94 401.699 166.744 422.168 166.744 422.168L166.455 403.662C166.455 403.662 246.966 373.006 256.524 374.969C237.41 360.57 218.493 287.158 218.493 287.158L269.197 282.577Z" fill="#093C59"/>
<path d="M149.677 494.721L172.352 539.56L130.546 513.938L134.315 503.054L123.808 510.453L118.225 506.438L138.118 486.648L149.677 494.721Z" fill="#FFBE55"/>
<path d="M263.491 283.422C263.491 283.422 196.297 414.423 156.083 503.055C131.39 503.055 134.433 483.33 134.433 483.33C134.433 483.33 183.178 297.499 210.936 270.1C253.628 272.487 263.491 283.422 263.491 283.422Z" fill="#0B4870"/>
<path d="M218.492 223.125L137.254 284.858L93.4049 291.348L136.911 293.711L223.356 245.845L218.492 223.125Z" fill="#DF9481"/>
<path d="M291.651 162.994C310.164 162.994 325.171 149.971 325.171 133.907C325.171 117.842 310.164 104.82 291.651 104.82C273.139 104.82 258.132 117.842 258.132 133.907C258.132 149.971 273.139 162.994 291.651 162.994Z" fill="#0B4870"/>
<path d="M323.313 114.456C323.313 114.456 332.301 160.544 321.874 169.771C290.243 167.999 282.336 158.174 274.428 144.585C266.52 130.998 284.492 103.231 323.313 114.456Z" fill="#DF9481"/>
<path d="M331.23 114.417C329.618 124.516 281.963 150.286 271.516 145.789C270.023 127.39 282.515 93.9204 331.23 114.417Z" fill="#0B4870"/>
<path d="M279.254 146.783C275.273 143.444 271.43 143.056 270.795 147.337C270.219 151.208 276.394 156.895 280.872 155.997C285.35 155.1 279.254 146.783 279.254 146.783Z" fill="#DF9481"/>
<path d="M301.314 161.766L299.755 177.27L312.547 202.589L282.515 177.964L280.902 154.211L301.314 161.766Z" fill="#DF9481"/>
<path d="M318.315 231.81L296.719 249.896L276.632 293.71L218.822 276.865L199.262 271.159L218.49 257.341C218.49 257.341 198.61 240.317 194.732 227.852C230.969 202.622 258.788 182.364 282.512 177.966H288.837L312.549 202.584L318.315 231.81Z" fill="#FFBE55"/>
<path opacity="0.5" d="M256.523 229.78L218.822 276.866L199.261 271.16L218.49 257.341L256.523 229.78Z" fill="#FFBE55"/>
<path d="M674.814 417.945L717.026 463.765L701.352 392.05L668.812 397.032L674.814 417.945Z" fill="#FFBE55"/>
<path d="M572.82 300.526C560.37 330.98 545.429 374.175 564.55 398.717C583.672 423.259 678.365 419.407 678.365 419.407L674.627 396.76C674.627 396.76 609.02 385.76 611.871 378.748C614.721 371.737 631.17 321.143 628.681 314.337C626.192 307.531 622.789 287.031 622.789 287.031L572.82 300.526Z" fill="#B1D9F2"/>
<path d="M689.145 507.227L640.032 548.14L724.143 525.089L713.468 499.341L689.145 507.227Z" fill="#FFBE55"/>
<path d="M577.523 294.773C578.187 305.623 684.534 508.774 684.534 508.774L715.723 502.628C715.723 502.628 659.252 316.068 653.467 291.632C647.681 267.196 577.523 294.773 577.523 294.773Z" fill="#CCE9FF"/>
<path d="M694.494 231.286L703.346 240.379L724.689 301.535L730.463 327.314L715.161 323.668L712.059 307.073L708.085 313.62L703.721 314.283L709.128 300.208L684.593 250.106L669.095 241.576L694.494 231.286Z" fill="#FFE3CA"/>
<path d="M560.027 155.471L457.389 106.57L444.729 81.4569L444.073 109.556L535.403 166.547L560.027 155.471Z" fill="#FFE3CA"/>
<path d="M595.903 171.554L547.248 142.568L521.554 165.354L579.884 206.874L595.903 171.554Z" fill="#0B3E5B"/>
<path d="M595.903 171.553C593.952 172.981 575.19 184.721 566.549 198.118C557.909 211.515 567.157 306.079 567.157 306.079L667.659 301.923L647.598 232.065L667.625 249.838L702.453 225.789C702.453 225.789 665.4 184.236 657.54 179.913C642.802 171.809 595.903 171.553 595.903 171.553Z" fill="#0B4870"/>
<path d="M598.447 105.762C606.48 106.252 646.005 111.446 613.302 150.756C606.433 161.11 598.447 105.762 598.447 105.762Z" fill="#0B4870"/>
<path d="M564.093 114.989C564.093 114.989 559.083 156.33 570.06 165.114C577.93 164.345 590.129 164.137 595.351 162.536C611.016 157.735 608.66 148.799 614.768 142.705C626.421 131.08 602.177 102.175 564.093 114.989Z" fill="#FFE3CA"/>
<path d="M593.397 156.134L595.04 172.147L591.664 181.298C590.142 184.798 595.583 187.477 598.62 184.723L615.208 172.273L613.952 142.739L593.397 156.134Z" fill="#FFE3CA"/>
<path d="M581.819 126.429C578.016 126.261 574.279 126.986 570.54 127.584C566.802 128.182 562.643 128.359 559.475 126.624C555.13 124.243 554.302 119.291 551.08 115.915C548.786 113.511 545.392 112.024 542.547 110.06C542.128 109.77 541.708 109.456 541.497 109.042C541.021 108.105 541.766 107.066 542.552 106.282C545.347 103.494 549.164 101.356 553.43 100.487C557.697 99.6183 562.4 100.076 566.15 101.96C569.569 103.678 572.247 106.536 576.134 107.341C581.998 108.557 587.506 104.639 593.455 103.74C595.523 103.427 597.673 103.489 599.71 103.918C601.005 104.192 602.271 104.621 603.311 105.314C606.164 107.215 606.807 110.697 609.549 112.706C612.406 114.798 616.889 114.822 619.722 116.937C621.698 118.412 622.514 120.637 623.219 122.753C624.099 125.399 624.876 128.421 623.071 130.729C622.285 131.735 620.272 140.683 619.03 141.306C611.884 144.891 604.435 137.774 597.622 135.003C595.159 134.001 593.182 132.373 591.642 130.501C590.364 128.947 587.537 126.682 581.819 126.429Z" fill="#0B4870"/>
<path d="M606.153 130.334L606.341 145.3L609.971 145.15L615.872 129.932L606.153 130.334Z" fill="#0B4870"/>
<path d="M611.14 132.207C618.269 127.753 620.548 129.335 619.944 136.009C619.341 142.683 609.971 145.15 609.971 145.15L611.14 132.207Z" fill="#FFE3CA"/>
<path d="M579.699 243.548C585.414 243.311 589.544 234.926 588.925 224.82C588.305 214.713 583.171 206.712 577.456 206.948C571.741 207.185 567.61 215.57 568.23 225.676C568.849 235.783 573.984 243.784 579.699 243.548Z" fill="#FFBE55"/>
<path d="M432.261 87.3429L415.71 73.0897" stroke="#FFBE55" stroke-width="2" stroke-miterlimit="10" stroke-linecap="round"/>
<path d="M454.785 87.3429L471.335 73.0897" stroke="#FFBE55" stroke-width="2" stroke-miterlimit="10" stroke-linecap="round"/>
<path d="M461.973 65.5295L463.06 64.5933" stroke="#FFBE55" stroke-width="2" stroke-miterlimit="10" stroke-linecap="round"/>
<path d="M454.785 71.72L460.075 67.1641" stroke="#FFBE55" stroke-width="2" stroke-miterlimit="10" stroke-linecap="round"/>
<path d="M438.05 71.72L432.76 67.1641" stroke="#FFBE55" stroke-width="2" stroke-miterlimit="10" stroke-linecap="round"/>
<path d="M418.759 52.5183C402.688 52.5183 389.669 63.2235 389.669 76.4311C389.669 63.2235 376.643 52.5183 360.571 52.5183C376.643 52.5183 389.669 41.8131 389.669 28.6055C389.669 41.8131 402.688 52.5183 418.759 52.5183Z" fill="#FFBE55"/>
<path d="M483.337 150.148C475.287 150.148 468.767 155.509 468.767 162.124C468.767 155.509 462.243 150.148 454.193 150.148C462.243 150.148 468.767 144.786 468.767 138.171C468.768 144.785 475.288 150.148 483.337 150.148Z" fill="#FFBE55"/>
</svg>
